999
dxfrw 0.5.11
0
SECTION
2
HEADER
9
$ACADVER
1
AC1021
9
$HANDSEED
5
20000
9
$DWGCODEPAGE
3
ANSI_1252
9
$INSBASE
10
0
20
0
30
0
9
$EXTMIN
10
25
20
5
30
0
9
$EXTMAX
10
621.681343092
20
376.776794376
30
0
9
$LIMMIN
10
0
20
0
9
$LIMMAX
10
420
20
297
9
$ORTHOMODE
70
0
9
$LTSCALE
40
1
9
$TEXTSTYLE
7
STANDARD
9
$CLAYER
8
border
9
$DIMASZ
40
2.5
9
$DIMLFAC
40
1
9
$DIMSCALE
40
1
9
$DIMEXO
40
0.625
9
$DIMEXE
40
1.25
9
$DIMTXT
40
2.5
9
$DIMTSZ
40
0
9
$DIMAUNIT
70
0
9
$DIMADEC
70
0
9
$DIMLUNIT
70
2
9
$DIMSTYLE
2
STANDARD
9
$DIMGAP
40
0.625
9
$DIMTIH
70
0
9
$LUNITS
70
2
9
$LUPREC
70
4
9
$AUNITS
70
0
9
$AUPREC
70
2
9
$SPLINESEGS
70
8
9
$GRIDMODE
70
1
9
$SNAPSTYLE
70
0
9
$PINSBASE
10
0
20
0
30
0
9
$PLIMMIN
10
0
20
0
9
$PLIMMAX
10
210
20
297
9
$INSUNITS
70
4
9
$PSVPSCALE
40
1
0
ENDSEC
0
SECTION
2
CLASSES
0
ENDSEC
0
SECTION
2
TABLES
0
TABLE
2
VPORT
5
8
330
0
100
AcDbSymbolTable
70
1
0
VPORT
5
31
330
2
100
AcDbSymbolTableRecord
100
AcDbViewportTableRecord
2
*ACTIVE
70
0
10
0
20
0
11
1
21
1
12
154.375
22
77.1874999999
13
0
23
0
14
10
24
10
15
10
25
10
16
0
26
0
36
1
17
0
27
0
37
0
40
147.5
41
2.15889830508
42
50
43
0
44
0
50
0
51
0
71
0
72
100
73
1
74
3
75
0
76
1
77
0
78
0
281
0
65
1
110
0
120
0
130
0
111
1
121
0
131
0
112
0
122
1
132
0
79
0
146
0
348
10020
60
7
61
5
292
1
282
1
141
0
142
0
63
250
421
3358443
0
ENDTAB
0
TABLE
2
LTYPE
5
5
330
0
100
AcDbSymbolTable
70
4
0
LTYPE
5
14
330
5
100
AcDbSymbolTableRecord
100
AcDbLinetypeTableRecord
2
ByBlock
70
0
3

72
65
73
0
40
0
0
LTYPE
5
15
330
5
100
AcDbSymbolTableRecord
100
AcDbLinetypeTableRecord
2
ByLayer
70
0
3

72
65
73
0
40
0
0
LTYPE
5
16
330
5
100
AcDbSymbolTableRecord
100
AcDbLinetypeTableRecord
2
Continuous
70
0
3
Solid line
72
65
73
0
40
0
0
LTYPE
5
32
330
5
100
AcDbSymbolTableRecord
100
AcDbLinetypeTableRecord
2
DOT
70
0
3
Dot . . . . . . . . . . . . . . . . . . . . . .
72
65
73
2
40
6.35
49
0
74
0
49
-6.35
74
0
0
LTYPE
5
33
330
5
100
AcDbSymbolTableRecord
100
AcDbLinetypeTableRecord
2
DOT2
70
0
3
Dot (.5x) .....................................
72
65
73
2
40
3.175
49
0
74
0
49
-3.175
74
0
0
LTYPE
5
34
330
5
100
AcDbSymbolTableRecord
100
AcDbLinetypeTableRecord
2
DOTX2
70
0
3
Dot (2x) .  .  .  .  .  .  .  .  .  .  .  .  .
72
65
73
2
40
12.7
49
0
74
0
49
-12.7
74
0
0
LTYPE
5
35
330
5
100
AcDbSymbolTableRecord
100
AcDbLinetypeTableRecord
2
DASHED
70
0
3
Dot . . . . . . . . . . . . . . . . . . . . . .
72
65
73
2
40
19.05
49
12.7
74
0
49
-6.35
74
0
0
LTYPE
5
36
330
5
100
AcDbSymbolTableRecord
100
AcDbLinetypeTableRecord
2
DASHED2
70
0
3
Dashed (.5x) _ _ _ _ _ _ _ _ _ _ _ _ _ _ _ _ _
72
65
73
2
40
9.525
49
6.35
74
0
49
-3.175
74
0
0
LTYPE
5
37
330
5
100
AcDbSymbolTableRecord
100
AcDbLinetypeTableRecord
2
DASHEDX2
70
0
3
Dashed (2x) ____  ____  ____  ____  ____  ___
72
65
73
2
40
38.1
49
25.4
74
0
49
-12.7
74
0
0
LTYPE
5
38
330
5
100
AcDbSymbolTableRecord
100
AcDbLinetypeTableRecord
2
DASHDOT
70
0
3
Dash dot __ . __ . __ . __ . __ . __ . __ . __
72
65
73
4
40
25.4
49
12.7
74
0
49
-6.35
74
0
49
0
74
0
49
-6.35
74
0
0
LTYPE
5
39
330
5
100
AcDbSymbolTableRecord
100
AcDbLinetypeTableRecord
2
DASHDOT2
70
0
3
Dash dot (.5x) _._._._._._._._._._._._._._._.
72
65
73
4
40
12.7
49
6.35
74
0
49
-3.175
74
0
49
0
74
0
49
-3.175
74
0
0
LTYPE
5
3A
330
5
100
AcDbSymbolTableRecord
100
AcDbLinetypeTableRecord
2
DASHDOTX2
70
0
3
Dash dot (2x) ____  .  ____  .  ____  .  ___
72
65
73
4
40
50.8
49
25.4
74
0
49
-12.7
74
0
49
0
74
0
49
-12.7
74
0
0
LTYPE
5
3B
330
5
100
AcDbSymbolTableRecord
100
AcDbLinetypeTableRecord
2
DIVIDE
70
0
3
Divide ____ . . ____ . . ____ . . ____ . . ____
72
65
73
6
40
31.75
49
12.7
74
0
49
-6.35
74
0
49
0
74
0
49
-6.35
74
0
49
0
74
0
49
-6.35
74
0
0
LTYPE
5
3C
330
5
100
AcDbSymbolTableRecord
100
AcDbLinetypeTableRecord
2
DIVIDE2
70
0
3
Divide (.5x) __..__..__..__..__..__..__..__.._
72
65
73
6
40
15.875
49
6.35
74
0
49
-3.175
74
0
49
0
74
0
49
-3.175
74
0
49
0
74
0
49
-3.175
74
0
0
LTYPE
5
3D
330
5
100
AcDbSymbolTableRecord
100
AcDbLinetypeTableRecord
2
DIVIDEX2
70
0
3
Divide (2x) ________  .  .  ________  .  .  _
72
65
73
6
40
63.5
49
25.4
74
0
49
-12.7
74
0
49
0
74
0
49
-12.7
74
0
49
0
74
0
49
-12.7
74
0
0
LTYPE
5
3E
330
5
100
AcDbSymbolTableRecord
100
AcDbLinetypeTableRecord
2
BORDER
70
0
3
Border __ __ . __ __ . __ __ . __ __ . __ __ .
72
65
73
6
40
44.45
49
12.7
74
0
49
-6.35
74
0
49
12.7
74
0
49
-6.35
74
0
49
0
74
0
49
-6.35
74
0
0
LTYPE
5
3F
330
5
100
AcDbSymbolTableRecord
100
AcDbLinetypeTableRecord
2
BORDER2
70
0
3
Border (.5x) __.__.__.__.__.__.__.__.__.__.__.
72
65
73
6
40
22.225
49
6.35
74
0
49
-3.175
74
0
49
6.35
74
0
49
-3.175
74
0
49
0
74
0
49
-3.175
74
0
0
LTYPE
5
40
330
5
100
AcDbSymbolTableRecord
100
AcDbLinetypeTableRecord
2
BORDERX2
70
0
3
Border (2x) ____  ____  .  ____  ____  .  ___
72
65
73
6
40
88.9
49
25.4
74
0
49
-12.7
74
0
49
25.4
74
0
49
-12.7
74
0
49
0
74
0
49
-12.7
74
0
0
LTYPE
5
41
330
5
100
AcDbSymbolTableRecord
100
AcDbLinetypeTableRecord
2
CENTER
70
0
3
Center ____ _ ____ _ ____ _ ____ _ ____ _ ____
72
65
73
4
40
50.8
49
31.75
74
0
49
-6.35
74
0
49
6.35
74
0
49
-6.35
74
0
0
LTYPE
5
42
330
5
100
AcDbSymbolTableRecord
100
AcDbLinetypeTableRecord
2
CENTER2
70
0
3
Center (.5x) ___ _ ___ _ ___ _ ___ _ ___ _ ___
72
65
73
4
40
28.575
49
19.05
74
0
49
-3.175
74
0
49
3.175
74
0
49
-3.175
74
0
0
LTYPE
5
43
330
5
100
AcDbSymbolTableRecord
100
AcDbLinetypeTableRecord
2
CENTERX2
70
0
3
Center (2x) ________  __  ________  __  _____
72
65
73
4
40
101.6
49
63.5
74
0
49
-12.7
74
0
49
12.7
74
0
49
-12.7
74
0
0
ENDTAB
0
TABLE
2
LAYER
5
2
330
0
100
AcDbSymbolTable
70
1
0
LAYER
5
10
330
2
100
AcDbSymbolTableRecord
100
AcDbLayerTableRecord
2
0
70
1
62
4
6
CONTINUOUS
290
0
370
0
390
F
0
LAYER
5
44
330
2
100
AcDbSymbolTableRecord
100
AcDbLayerTableRecord
2
Logo
70
0
62
7
6
CONTINUOUS
370
0
390
F
0
LAYER
5
45
330
2
100
AcDbSymbolTableRecord
100
AcDbLayerTableRecord
2
border
70
0
62
7
6
CONTINUOUS
370
25
390
F
0
ENDTAB
0
TABLE
2
STYLE
5
3
330
0
100
AcDbSymbolTable
70
3
0
STYLE
5
46
330
2
100
AcDbSymbolTableRecord
100
AcDbTextStyleTableRecord
2
STANDARD
70
0
40
0
41
1
50
0
71
0
42
1
3
STANDARD
4

0
ENDTAB
0
TABLE
2
VIEW
5
6
330
0
100
AcDbSymbolTable
70
0
0
ENDTAB
0
TABLE
2
UCS
5
7
330
0
100
AcDbSymbolTable
70
0
0
ENDTAB
0
TABLE
2
APPID
5
9
330
0
100
AcDbSymbolTable
70
1
0
APPID
5
12
330
9
100
AcDbSymbolTableRecord
100
AcDbRegAppTableRecord
2
ACAD
70
0
0
ENDTAB
0
TABLE
2
DIMSTYLE
5
A
330
0
100
AcDbSymbolTable
70
1
100
AcDbDimStyleTable
71
1
0
DIMSTYLE
105
47
330
A
100
AcDbSymbolTableRecord
100
AcDbDimStyleTableRecord
2
Standard
70
0
40
1
41
2.5
42
0.625
43
0.38
44
1.25
45
0
46
0
47
0
48
0
140
2.5
141
0.09
142
0
143
25.4
144
1
145
0
146
1
147
0.625
148
0
71
0
72
0
73
0
74
1
75
0
76
0
77
0
78
0
79
0
170
0
171
2
172
0
173
0
174
0
175
0
176
0
177
0
178
0
179
0
271
4
272
4
273
2
274
2
275
0
276
0
277
2
278
46
279
0
280
0
281
0
282
0
283
1
284
0
285
0
286
0
288
0
289
3
340
Standard
341

371
-2
372
-2
0
ENDTAB
0
TABLE
2
BLOCK_RECORD
5
1
330
0
100
AcDbSymbolTable
70
2
0
BLOCK_RECORD
5
1F
330
1
100
AcDbSymbolTableRecord
100
AcDbBlockTableRecord
2
*Model_Space
70
0
280
1
281
0
0
BLOCK_RECORD
5
1E
330
1
100
AcDbSymbolTableRecord
100
AcDbBlockTableRecord
2
*Paper_Space
70
0
280
1
281
0
0
BLOCK_RECORD
5
48
330
1
100
AcDbSymbolTableRecord
100
AcDbBlockTableRecord
2
bricolabs_logo-0
70
0
280
1
281
0
0
ENDTAB
0
ENDSEC
0
SECTION
2
BLOCKS
0
BLOCK
5
20
330
1F
100
AcDbEntity
8
0
100
AcDbBlockBegin
2
*Model_Space
70
0
10
0
20
0
30
0
3
*Model_Space
1

0
ENDBLK
5
21
330
1F
100
AcDbEntity
8
0
100
AcDbBlockEnd
0
BLOCK
5
1C
330
1B
100
AcDbEntity
8
0
100
AcDbBlockBegin
2
*Paper_Space
70
0
10
0
20
0
30
0
3
*Paper_Space
1

0
ENDBLK
5
1D
330
1F
100
AcDbEntity
8
0
100
AcDbBlockEnd
0
BLOCK
5
49
330
48
100
AcDbEntity
8
0
100
AcDbBlockBegin
2
bricolabs_logo-0
70
0
10
0
20
0
3
bricolabs_logo-0
1

0
SPLINE
5
4B
100
AcDbEntity
8
0
6
ByLayer
62
7
370
-1
100
AcDbSpline
210
0
220
0
230
1
70
8
71
3
72
8
73
4
74
0
42
1e-07
43
1e-07
40
0
40
0
40
0
40
0
40
1
40
1
40
1
40
1
10
15.43275
20
28.3665
30
0
10
15.43275
20
30.2685
30
0
10
15.31725
20
31.59225
30
0
10
15.08775
20
32.3355
30
0
0
SPLINE
5
4C
100
AcDbEntity
8
0
6
ByLayer
62
7
370
-1
100
AcDbSpline
210
0
220
0
230
1
70
8
71
3
72
8
73
4
74
0
42
1e-07
43
1e-07
40
0
40
0
40
0
40
0
40
1
40
1
40
1
40
1
10
15.08775
20
32.3355
30
0
10
14.8575
20
33.0795
30
0
10
14.3475
20
33.7545
30
0
10
13.55775
20
34.3605
30
0
0
SPLINE
5
4D
100
AcDbEntity
8
0
6
ByLayer
62
7
370
-1
100
AcDbSpline
210
0
220
0
230
1
70
8
71
3
72
8
73
4
74
0
42
1e-07
43
1e-07
40
0
40
0
40
0
40
0
40
1
40
1
40
1
40
1
10
13.55775
20
34.3605
30
0
10
12.76725
20
34.9665
30
0
10
12.372
20
35.4615
30
0
10
12.372
20
35.84475
30
0
0
SPLINE
5
4E
100
AcDbEntity
8
0
6
ByLayer
62
7
370
-1
100
AcDbSpline
210
0
220
0
230
1
70
8
71
3
72
8
73
4
74
0
42
1e-07
43
1e-07
40
0
40
0
40
0
40
0
40
1
40
1
40
1
40
1
10
12.372
20
35.84475
30
0
10
12.372
20
36.489
30
0
10
12.85125
20
36.876
30
0
10
13.8105
20
37.00725
30
0
0
SPLINE
5
4F
100
AcDbEntity
8
0
6
ByLayer
62
7
370
-1
100
AcDbSpline
210
0
220
0
230
1
70
8
71
3
72
8
73
4
74
0
42
1e-07
43
1e-07
40
0
40
0
40
0
40
0
40
1
40
1
40
1
40
1
10
13.8105
20
37.00725
30
0
10
14.769
20
37.137
30
0
10
17.29575
20
37.20225
30
0
10
21.3915
20
37.20225
30
0
0
SPLINE
5
50
100
AcDbEntity
8
0
6
ByLayer
62
7
370
-1
100
AcDbSpline
210
0
220
0
230
1
70
8
71
3
72
8
73
4
74
0
42
1e-07
43
1e-07
40
0
40
0
40
0
40
0
40
1
40
1
40
1
40
1
10
24.95775
20
37.24875
30
0
10
28.869
20
37.24875
30
0
10
31.67625
20
36.6585
30
0
10
33.37875
20
35.47725
30
0
0
SPLINE
5
51
100
AcDbEntity
8
0
6
ByLayer
62
7
370
-1
100
AcDbSpline
210
0
220
0
230
1
70
8
71
3
72
8
73
4
74
0
42
1e-07
43
1e-07
40
0
40
0
40
0
40
0
40
1
40
1
40
1
40
1
10
33.37875
20
35.47725
30
0
10
35.4645
20
34.02075
30
0
10
36.50775
20
31.98825
30
0
10
36.50775
20
29.3805
30
0
0
SPLINE
5
52
100
AcDbEntity
8
0
6
ByLayer
62
7
370
-1
100
AcDbSpline
210
0
220
0
230
1
70
8
71
3
72
8
73
4
74
0
42
1e-07
43
1e-07
40
0
40
0
40
0
40
0
40
1
40
1
40
1
40
1
10
36.50775
20
29.3805
30
0
10
36.50775
20
27.141
30
0
10
35.28825
20
25.22325
30
0
10
32.84925
20
23.62875
30
0
0
SPLINE
5
53
100
AcDbEntity
8
0
6
ByLayer
62
7
370
-1
100
AcDbSpline
210
0
220
0
230
1
70
8
71
3
72
8
73
4
74
0
42
1e-07
43
1e-07
40
0
40
0
40
0
40
0
40
1
40
1
40
1
40
1
10
32.84925
20
23.62875
30
0
10
31.7445
20
22.893
30
0
10
31.1925
20
22.50825
30
0
10
31.1925
20
22.47825
30
0
0
SPLINE
5
54
100
AcDbEntity
8
0
6
ByLayer
62
7
370
-1
100
AcDbSpline
210
0
220
0
230
1
70
8
71
3
72
8
73
4
74
0
42
1e-07
43
1e-07
40
0
40
0
40
0
40
0
40
1
40
1
40
1
40
1
10
31.1925
20
22.47825
30
0
10
31.20825
20
22.41675
30
0
10
31.5375
20
22.26375
30
0
10
32.18175
20
22.0185
30
0
0
SPLINE
5
55
100
AcDbEntity
8
0
6
ByLayer
62
7
370
-1
100
AcDbSpline
210
0
220
0
230
1
70
8
71
3
72
8
73
4
74
0
42
1e-07
43
1e-07
40
0
40
0
40
0
40
0
40
1
40
1
40
1
40
1
10
32.18175
20
22.0185
30
0
10
33.94575
20
21.32775
30
0
10
35.265
20
20.51475
30
0
10
36.1395
20
19.5795
30
0
0
SPLINE
5
56
100
AcDbEntity
8
0
6
ByLayer
62
7
370
-1
100
AcDbSpline
210
0
220
0
230
1
70
8
71
3
72
8
73
4
74
0
42
1e-07
43
1e-07
40
0
40
0
40
0
40
0
40
1
40
1
40
1
40
1
10
36.1395
20
19.5795
30
0
10
37.443
20
18.153
30
0
10
38.09475
20
16.55775
30
0
10
38.09475
20
14.793
30
0
0
LWPOLYLINE
5
57
100
AcDbEntity
8
0
6
ByLayer
62
7
370
-1
100
AcDbPolyline
90
2
70
0
43
0
10
21.3915
20
37.20225
10
24.95775
20
37.24875
0
SPLINE
5
58
100
AcDbEntity
8
0
6
ByLayer
62
7
370
-1
100
AcDbSpline
210
0
220
0
230
1
70
8
71
3
72
8
73
4
74
0
42
1e-07
43
1e-07
40
0
40
0
40
0
40
0
40
1
40
1
40
1
40
1
10
38.09475
20
14.19525
30
0
10
38.09475
20
11.496
30
0
10
36.97875
20
9.37875
30
0
10
34.74675
20
7.845
30
0
0
SPLINE
5
59
100
AcDbEntity
8
0
6
ByLayer
62
7
370
-1
100
AcDbSpline
210
0
220
0
230
1
70
8
71
3
72
8
73
4
74
0
42
1e-07
43
1e-07
40
0
40
0
40
0
40
0
40
1
40
1
40
1
40
1
10
34.74675
20
7.845
30
0
10
32.51475
20
6.31125
30
0
10
29.48175
20
5.54475
30
0
10
25.64775
20
5.54475
30
0
0
LWPOLYLINE
5
5A
100
AcDbEntity
8
0
6
ByLayer
62
7
370
-1
100
AcDbPolyline
90
2
70
0
43
0
10
38.09475
20
14.793
10
38.09475
20
14.19525
0
SPLINE
5
5B
100
AcDbEntity
8
0
6
ByLayer
62
7
370
-1
100
AcDbSpline
210
0
220
0
230
1
70
8
71
3
72
8
73
4
74
0
42
1e-07
43
1e-07
40
0
40
0
40
0
40
0
40
1
40
1
40
1
40
1
10
15.111
20
5.54475
30
0
10
13.17825
20
5.54475
30
0
10
12.21225
20
5.90475
30
0
10
12.21225
20
6.6255
30
0
0
SPLINE
5
5C
100
AcDbEntity
8
0
6
ByLayer
62
7
370
-1
100
AcDbSpline
210
0
220
0
230
1
70
8
71
3
72
8
73
4
74
0
42
1e-07
43
1e-07
40
0
40
0
40
0
40
0
40
1
40
1
40
1
40
1
10
12.21225
20
6.6255
30
0
10
12.21225
20
7.20825
30
0
10
12.63825
20
7.7535
30
0
10
13.4895
20
8.25975
30
0
0
SPLINE
5
5D
100
AcDbEntity
8
0
6
ByLayer
62
7
370
-1
100
AcDbSpline
210
0
220
0
230
1
70
8
71
3
72
8
73
4
74
0
42
1e-07
43
1e-07
40
0
40
0
40
0
40
0
40
1
40
1
40
1
40
1
10
13.4895
20
8.25975
30
0
10
14.34075
20
8.76525
30
0
10
14.9085
20
9.40575
30
0
10
15.192
20
10.18125
30
0
0
SPLINE
5
5E
100
AcDbEntity
8
0
6
ByLayer
62
7
370
-1
100
AcDbSpline
210
0
220
0
230
1
70
8
71
3
72
8
73
4
74
0
42
1e-07
43
1e-07
40
0
40
0
40
0
40
0
40
1
40
1
40
1
40
1
10
15.192
20
10.18125
30
0
10
15.4755
20
10.95525
30
0
10
15.618
20
13.21425
30
0
10
15.618
20
16.95675
30
0
0
LWPOLYLINE
5
5F
100
AcDbEntity
8
0
6
ByLayer
62
7
370
-1
100
AcDbPolyline
90
6
70
0
43
0
10
25.64775
20
5.54475
10
22.03575
20
5.54475
10
21.43725
20
5.56725
10
17.96325
20
5.56725
10
15.663
20
5.54475
10
15.111
20
5.54475
0
SPLINE
5
60
100
AcDbEntity
8
0
6
ByLayer
62
7
370
-1
100
AcDbSpline
210
0
220
0
230
1
70
8
71
3
72
8
73
4
74
0
42
1e-07
43
1e-07
40
0
40
0
40
0
40
0
40
1
40
1
40
1
40
1
10
15.54825
20
20.03925
30
0
10
15.5325
20
20.45325
30
0
10
15.525
20
20.85975
30
0
10
15.525
20
21.258
30
0
0
LWPOLYLINE
5
61
100
AcDbEntity
8
0
6
ByLayer
62
7
370
-1
100
AcDbPolyline
90
3
70
0
43
0
10
15.618
20
16.95675
10
15.59475
20
18.79725
10
15.54825
20
20.03925
0
SPLINE
5
62
100
AcDbEntity
8
0
6
ByLayer
62
7
370
-1
100
AcDbSpline
210
0
220
0
230
1
70
8
71
3
72
8
73
4
74
0
42
1e-07
43
1e-07
40
0
40
0
40
0
40
0
40
1
40
1
40
1
40
1
10
15.47925
20
22.47825
30
0
10
15.4635
20
22.893
30
0
10
15.456
20
23.29125
30
0
10
15.456
20
23.6745
30
0
0
LWPOLYLINE
5
63
100
AcDbEntity
8
0
6
ByLayer
62
7
370
-1
100
AcDbPolyline
90
2
70
0
43
0
10
15.525
20
21.258
10
15.47925
20
22.47825
0
SPLINE
5
64
100
AcDbEntity
8
0
6
ByLayer
62
7
370
-1
100
AcDbSpline
210
0
220
0
230
1
70
8
71
3
72
8
73
4
74
0
42
1e-07
43
1e-07
40
0
40
0
40
0
40
0
40
1
40
1
40
1
40
1
10
22.0815
20
15.1605
30
0
10
22.0815
20
11.847
30
0
10
22.2195
20
9.9765
30
0
10
22.49625
20
9.54675
30
0
0
SPLINE
5
65
100
AcDbEntity
8
0
6
ByLayer
62
7
370
-1
100
AcDbSpline
210
0
220
0
230
1
70
8
71
3
72
8
73
4
74
0
42
1e-07
43
1e-07
40
0
40
0
40
0
40
0
40
1
40
1
40
1
40
1
10
22.49625
20
9.54675
30
0
10
22.97175
20
8.796
30
0
10
23.99175
20
8.42025
30
0
10
25.55625
20
8.42025
30
0
0
LWPOLYLINE
5
66
100
AcDbEntity
8
0
6
ByLayer
62
7
370
-1
100
AcDbPolyline
90
4
70
0
43
0
10
15.456
20
23.6745
10
15.4335
20
24.894
10
15.4335
20
28.3665
10
15.43275
20
28.3665
0
SPLINE
5
67
100
AcDbEntity
8
0
6
ByLayer
62
7
370
-1
100
AcDbSpline
210
0
220
0
230
1
70
8
71
3
72
8
73
4
74
0
42
1e-07
43
1e-07
40
0
40
0
40
0
40
0
40
1
40
1
40
1
40
1
10
25.76325
20
8.44275
30
0
10
27.558
20
8.44275
30
0
10
28.93425
20
8.96775
30
0
10
29.89275
20
10.01925
30
0
0
SPLINE
5
68
100
AcDbEntity
8
0
6
ByLayer
62
7
370
-1
100
AcDbSpline
210
0
220
0
230
1
70
8
71
3
72
8
73
4
74
0
42
1e-07
43
1e-07
40
0
40
0
40
0
40
0
40
1
40
1
40
1
40
1
10
29.89275
20
10.01925
30
0
10
30.85125
20
11.06925
30
0
10
31.3305
20
12.408
30
0
10
31.3305
20
14.034
30
0
0
LWPOLYLINE
5
69
100
AcDbEntity
8
0
6
ByLayer
62
7
370
-1
100
AcDbPolyline
90
2
70
0
43
0
10
25.55625
20
8.42025
10
25.76325
20
8.44275
0
SPLINE
5
6A
100
AcDbEntity
8
0
6
ByLayer
62
7
370
-1
100
AcDbSpline
210
0
220
0
230
1
70
8
71
3
72
8
73
4
74
0
42
1e-07
43
1e-07
40
0
40
0
40
0
40
0
40
1
40
1
40
1
40
1
10
31.3305
20
14.67825
30
0
10
31.3305
20
16.4265
30
0
10
30.717
20
17.86425
30
0
10
29.49
20
18.99225
30
0
0
SPLINE
5
6B
100
AcDbEntity
8
0
6
ByLayer
62
7
370
-1
100
AcDbSpline
210
0
220
0
230
1
70
8
71
3
72
8
73
4
74
0
42
1e-07
43
1e-07
40
0
40
0
40
0
40
0
40
1
40
1
40
1
40
1
10
29.49
20
18.99225
30
0
10
28.263
20
20.1195
30
0
10
26.66025
20
20.6835
30
0
10
24.681
20
20.6835
30
0
0
LWPOLYLINE
5
6C
100
AcDbEntity
8
0
6
ByLayer
62
7
370
-1
100
AcDbPolyline
90
2
70
0
43
0
10
31.3305
20
14.034
10
31.3305
20
14.67825
0
SPLINE
5
6D
100
AcDbEntity
8
0
6
ByLayer
62
7
370
-1
100
AcDbSpline
210
0
220
0
230
1
70
8
71
3
72
8
73
4
74
0
42
1e-07
43
1e-07
40
0
40
0
40
0
40
0
40
1
40
1
40
1
40
1
10
23.5305
20
20.6835
30
0
10
22.8555
20
20.6835
30
0
10
22.44075
20
20.553
30
0
10
22.28775
20
20.292
30
0
0
SPLINE
5
6E
100
AcDbEntity
8
0
6
ByLayer
62
7
370
-1
100
AcDbSpline
210
0
220
0
230
1
70
8
71
3
72
8
73
4
74
0
42
1e-07
43
1e-07
40
0
40
0
40
0
40
0
40
1
40
1
40
1
40
1
10
22.28775
20
20.292
30
0
10
22.134
20
20.03175
30
0
10
22.0575
20
19.54875
30
0
10
22.0575
20
18.84225
30
0
0
LWPOLYLINE
5
6F
100
AcDbEntity
8
0
6
ByLayer
62
7
370
-1
100
AcDbPolyline
90
2
70
0
43
0
10
24.681
20
20.6835
10
23.5305
20
20.6835
0
SPLINE
5
70
100
AcDbEntity
8
0
6
ByLayer
62
7
370
-1
100
AcDbSpline
210
0
220
0
230
1
70
8
71
3
72
8
73
4
74
0
42
1e-07
43
1e-07
40
0
40
0
40
0
40
0
40
1
40
1
40
1
40
1
10
24.12975
20
34.3725
30
0
10
23.2095
20
34.3725
30
0
10
22.6425
20
34.15725
30
0
10
22.42725
20
33.72825
30
0
0
SPLINE
5
71
100
AcDbEntity
8
0
6
ByLayer
62
7
370
-1
100
AcDbSpline
210
0
220
0
230
1
70
8
71
3
72
8
73
4
74
0
42
1e-07
43
1e-07
40
0
40
0
40
0
40
0
40
1
40
1
40
1
40
1
10
22.42725
20
33.72825
30
0
10
22.212
20
33.2985
30
0
10
22.10475
20
32.18625
30
0
10
22.10475
20
30.39225
30
0
0
LWPOLYLINE
5
72
100
AcDbEntity
8
0
6
ByLayer
62
7
370
-1
100
AcDbPolyline
90
5
70
0
43
0
10
22.0575
20
18.84225
10
22.0575
20
15.9435
10
22.08
20
15.7605
10
22.08
20
15.1605
10
22.0815
20
15.1605
0
SPLINE
5
73
100
AcDbEntity
8
0
6
ByLayer
62
7
370
-1
100
AcDbSpline
210
0
220
0
230
1
70
8
71
3
72
8
73
4
74
0
42
1e-07
43
1e-07
40
0
40
0
40
0
40
0
40
1
40
1
40
1
40
1
10
22.10475
20
26.043
30
0
10
22.10475
20
24.387
30
0
10
22.50375
20
23.559
30
0
10
23.30175
20
23.559
30
0
0
LWPOLYLINE
5
74
100
AcDbEntity
8
0
6
ByLayer
62
7
370
-1
100
AcDbPolyline
90
2
70
0
43
0
10
22.10475
20
30.39225
10
22.10475
20
26.043
0
SPLINE
5
75
100
AcDbEntity
8
0
6
ByLayer
62
7
370
-1
100
AcDbSpline
210
0
220
0
230
1
70
8
71
3
72
8
73
4
74
0
42
1e-07
43
1e-07
40
0
40
0
40
0
40
0
40
1
40
1
40
1
40
1
10
24.45225
20
23.48925
30
0
10
26.21625
20
23.48925
30
0
10
27.60075
20
23.99175
30
0
10
28.605
20
24.996
30
0
0
SPLINE
5
76
100
AcDbEntity
8
0
6
ByLayer
62
7
370
-1
100
AcDbSpline
210
0
220
0
230
1
70
8
71
3
72
8
73
4
74
0
42
1e-07
43
1e-07
40
0
40
0
40
0
40
0
40
1
40
1
40
1
40
1
10
28.605
20
24.996
30
0
10
29.60925
20
26.001
30
0
10
30.11175
20
27.28575
30
0
10
30.11175
20
28.851
30
0
0
LWPOLYLINE
5
77
100
AcDbEntity
8
0
6
ByLayer
62
7
370
-1
100
AcDbPolyline
90
4
70
0
43
0
10
23.30175
20
23.559
10
23.6235
20
23.51175
10
24.10725
20
23.48925
10
24.45225
20
23.48925
0
SPLINE
5
78
100
AcDbEntity
8
0
6
ByLayer
62
7
370
-1
100
AcDbSpline
210
0
220
0
230
1
70
8
71
3
72
8
73
4
74
0
42
1e-07
43
1e-07
40
0
40
0
40
0
40
0
40
1
40
1
40
1
40
1
10
30.11175
20
29.24175
30
0
10
30.11175
20
30.6375
30
0
10
29.66325
20
31.83375
30
0
10
28.7655
20
32.83125
30
0
0
SPLINE
5
79
100
AcDbEntity
8
0
6
ByLayer
62
7
370
-1
100
AcDbSpline
210
0
220
0
230
1
70
8
71
3
72
8
73
4
74
0
42
1e-07
43
1e-07
40
0
40
0
40
0
40
0
40
1
40
1
40
1
40
1
10
28.7655
20
32.83125
30
0
10
27.8685
20
33.828
30
0
10
26.77575
20
34.326
30
0
10
25.48725
20
34.326
30
0
0
LWPOLYLINE
5
7A
100
AcDbEntity
8
0
6
ByLayer
62
7
370
-1
100
AcDbPolyline
90
2
70
0
43
0
10
30.11175
20
28.851
10
30.11175
20
29.24175
0
SPLINE
5
7B
100
AcDbEntity
8
0
6
ByLayer
62
7
370
-1
100
AcDbSpline
210
0
220
0
230
1
70
8
71
3
72
8
73
4
74
0
42
1e-07
43
1e-07
40
0
40
0
40
0
40
0
40
1
40
1
40
1
40
1
10
42.97275
20
6.60225
30
0
10
42.97275
20
7.062
30
0
10
43.314
20
7.53375
30
0
10
43.9965
20
8.01675
30
0
0
SPLINE
5
7C
100
AcDbEntity
8
0
6
ByLayer
62
7
370
-1
100
AcDbSpline
210
0
220
0
230
1
70
8
71
3
72
8
73
4
74
0
42
1e-07
43
1e-07
40
0
40
0
40
0
40
0
40
1
40
1
40
1
40
1
10
43.9965
20
8.01675
30
0
10
44.679
20
8.5005
30
0
10
45.14325
20
9.10575
30
0
10
45.38775
20
9.83475
30
0
0
SPLINE
5
7D
100
AcDbEntity
8
0
6
ByLayer
62
7
370
-1
100
AcDbSpline
210
0
220
0
230
1
70
8
71
3
72
8
73
4
74
0
42
1e-07
43
1e-07
40
0
40
0
40
0
40
0
40
1
40
1
40
1
40
1
10
45.38775
20
9.83475
30
0
10
45.63375
20
10.56375
30
0
10
45.756
20
12.48075
30
0
10
45.756
20
15.5865
30
0
0
SPLINE
5
7E
100
AcDbEntity
8
0
6
ByLayer
62
7
370
-1
100
AcDbSpline
210
0
220
0
230
1
70
8
71
3
72
8
73
4
74
0
42
1e-07
43
1e-07
40
0
40
0
40
0
40
0
40
1
40
1
40
1
40
1
10
45.756
20
15.5865
30
0
10
45.756
20
18.693
30
0
10
45.6375
20
20.568
30
0
10
45.39975
20
21.21225
30
0
0
SPLINE
5
7F
100
AcDbEntity
8
0
6
ByLayer
62
7
370
-1
100
AcDbSpline
210
0
220
0
230
1
70
8
71
3
72
8
73
4
74
0
42
1e-07
43
1e-07
40
0
40
0
40
0
40
0
40
1
40
1
40
1
40
1
10
45.39975
20
21.21225
30
0
10
45.162
20
21.8565
30
0
10
44.72475
20
22.497
30
0
10
44.088
20
23.13375
30
0
0
SPLINE
5
80
100
AcDbEntity
8
0
6
ByLayer
62
7
370
-1
100
AcDbSpline
210
0
220
0
230
1
70
8
71
3
72
8
73
4
74
0
42
1e-07
43
1e-07
40
0
40
0
40
0
40
0
40
1
40
1
40
1
40
1
10
44.088
20
23.13375
30
0
10
43.45125
20
23.77125
30
0
10
43.13325
20
24.273
30
0
10
43.13325
20
24.6405
30
0
0
SPLINE
5
81
100
AcDbEntity
8
0
6
ByLayer
62
7
370
-1
100
AcDbSpline
210
0
220
0
230
1
70
8
71
3
72
8
73
4
74
0
42
1e-07
43
1e-07
40
0
40
0
40
0
40
0
40
1
40
1
40
1
40
1
10
43.13325
20
24.6405
30
0
10
43.13325
20
25.101
30
0
10
43.53975
20
25.4925
30
0
10
44.35275
20
25.8135
30
0
0
SPLINE
5
82
100
AcDbEntity
8
0
6
ByLayer
62
7
370
-1
100
AcDbSpline
210
0
220
0
230
1
70
8
71
3
72
8
73
4
74
0
42
1e-07
43
1e-07
40
0
40
0
40
0
40
0
40
1
40
1
40
1
40
1
10
44.35275
20
25.8135
30
0
10
45.963
20
26.44275
30
0
10
47.658
20
26.757
30
0
10
49.43775
20
26.757
30
0
0
LWPOLYLINE
5
83
100
AcDbEntity
8
0
6
ByLayer
62
7
370
-1
100
AcDbPolyline
90
4
70
0
43
0
10
25.48725
20
34.326
10
25.16475
20
34.37325
10
24.12975
20
34.37325
10
24.12975
20
34.3725
0
SPLINE
5
84
100
AcDbEntity
8
0
6
ByLayer
62
7
370
-1
100
AcDbSpline
210
0
220
0
230
1
70
8
71
3
72
8
73
4
74
0
42
1e-07
43
1e-07
40
0
40
0
40
0
40
0
40
1
40
1
40
1
40
1
10
49.85175
20
26.757
30
0
10
50.61825
20
26.757
30
0
10
51.1785
20
26.274
30
0
10
51.53175
20
25.30725
30
0
0
SPLINE
5
85
100
AcDbEntity
8
0
6
ByLayer
62
7
370
-1
100
AcDbSpline
210
0
220
0
230
1
70
8
71
3
72
8
73
4
74
0
42
1e-07
43
1e-07
40
0
40
0
40
0
40
0
40
1
40
1
40
1
40
1
10
51.53175
20
25.30725
30
0
10
51.88425
20
24.34125
30
0
10
52.21425
20
23.85825
30
0
10
52.52025
20
23.85825
30
0
0
SPLINE
5
86
100
AcDbEntity
8
0
6
ByLayer
62
7
370
-1
100
AcDbSpline
210
0
220
0
230
1
70
8
71
3
72
8
73
4
74
0
42
1e-07
43
1e-07
40
0
40
0
40
0
40
0
40
1
40
1
40
1
40
1
10
52.52025
20
23.85825
30
0
10
52.65825
20
23.85825
30
0
10
53.004
20
24.1185
30
0
10
53.556
20
24.63975
30
0
0
SPLINE
5
87
100
AcDbEntity
8
0
6
ByLayer
62
7
370
-1
100
AcDbSpline
210
0
220
0
230
1
70
8
71
3
72
8
73
4
74
0
42
1e-07
43
1e-07
40
0
40
0
40
0
40
0
40
1
40
1
40
1
40
1
10
53.556
20
24.63975
30
0
10
55.07475
20
26.052
30
0
10
56.36325
20
26.75625
30
0
10
57.4215
20
26.75625
30
0
0
LWPOLYLINE
5
88
100
AcDbEntity
8
0
6
ByLayer
62
7
370
-1
100
AcDbPolyline
90
2
70
0
43
0
10
49.43775
20
26.757
10
49.85175
20
26.757
0
SPLINE
5
89
100
AcDbEntity
8
0
6
ByLayer
62
7
370
-1
100
AcDbSpline
210
0
220
0
230
1
70
8
71
3
72
8
73
4
74
0
42
1e-07
43
1e-07
40
0
40
0
40
0
40
0
40
1
40
1
40
1
40
1
10
57.78975
20
26.75625
30
0
10
58.54125
20
26.75625
30
0
10
59.22375
20
26.47275
30
0
10
59.83725
20
25.90575
30
0
0
SPLINE
5
8A
100
AcDbEntity
8
0
6
ByLayer
62
7
370
-1
100
AcDbSpline
210
0
220
0
230
1
70
8
71
3
72
8
73
4
74
0
42
1e-07
43
1e-07
40
0
40
0
40
0
40
0
40
1
40
1
40
1
40
1
10
59.83725
20
25.90575
30
0
10
60.45075
20
25.338
30
0
10
60.7575
20
24.6555
30
0
10
60.7575
20
23.85825
30
0
0
SPLINE
5
8B
100
AcDbEntity
8
0
6
ByLayer
62
7
370
-1
100
AcDbSpline
210
0
220
0
230
1
70
8
71
3
72
8
73
4
74
0
42
1e-07
43
1e-07
40
0
40
0
40
0
40
0
40
1
40
1
40
1
40
1
10
60.7575
20
23.85825
30
0
10
60.7575
20
23.061
30
0
10
60.4965
20
22.38975
30
0
10
59.97525
20
21.8445
30
0
0
SPLINE
5
8C
100
AcDbEntity
8
0
6
ByLayer
62
7
370
-1
100
AcDbSpline
210
0
220
0
230
1
70
8
71
3
72
8
73
4
74
0
42
1e-07
43
1e-07
40
0
40
0
40
0
40
0
40
1
40
1
40
1
40
1
10
59.97525
20
21.8445
30
0
10
59.454
20
21.3
30
0
10
58.80975
20
21.027
30
0
10
58.0425
20
21.027
30
0
0
SPLINE
5
8D
100
AcDbEntity
8
0
6
ByLayer
62
7
370
-1
100
AcDbSpline
210
0
220
0
230
1
70
8
71
3
72
8
73
4
74
0
42
1e-07
43
1e-07
40
0
40
0
40
0
40
0
40
1
40
1
40
1
40
1
10
58.0425
20
21.027
30
0
10
57.81225
20
21.027
30
0
10
57.34875
20
21.19725
30
0
10
56.6505
20
21.534
30
0
0
SPLINE
5
8E
100
AcDbEntity
8
0
6
ByLayer
62
7
370
-1
100
AcDbSpline
210
0
220
0
230
1
70
8
71
3
72
8
73
4
74
0
42
1e-07
43
1e-07
40
0
40
0
40
0
40
0
40
1
40
1
40
1
40
1
10
56.6505
20
21.534
30
0
10
55.953
20
21.8715
30
0
10
55.404
20
22.04025
30
0
10
55.00575
20
22.04025
30
0
0
SPLINE
5
8F
100
AcDbEntity
8
0
6
ByLayer
62
7
370
-1
100
AcDbSpline
210
0
220
0
230
1
70
8
71
3
72
8
73
4
74
0
42
1e-07
43
1e-07
40
0
40
0
40
0
40
0
40
1
40
1
40
1
40
1
10
55.00575
20
22.04025
30
0
10
53.91675
20
22.04025
30
0
10
53.03475
20
21.38025
30
0
10
52.35975
20
20.061
30
0
0
SPLINE
5
90
100
AcDbEntity
8
0
6
ByLayer
62
7
370
-1
100
AcDbSpline
210
0
220
0
230
1
70
8
71
3
72
8
73
4
74
0
42
1e-07
43
1e-07
40
0
40
0
40
0
40
0
40
1
40
1
40
1
40
1
10
52.35975
20
20.061
30
0
10
51.88425
20
19.14075
30
0
10
51.6465
20
17.56875
30
0
10
51.6465
20
15.345
30
0
0
SPLINE
5
91
100
AcDbEntity
8
0
6
ByLayer
62
7
370
-1
100
AcDbSpline
210
0
220
0
230
1
70
8
71
3
72
8
73
4
74
0
42
1e-07
43
1e-07
40
0
40
0
40
0
40
0
40
1
40
1
40
1
40
1
10
51.6465
20
15.345
30
0
10
51.6465
20
13.1205
30
0
10
51.8685
20
11.4795
30
0
10
52.31325
20
10.42125
30
0
0
SPLINE
5
92
100
AcDbEntity
8
0
6
ByLayer
62
7
370
-1
100
AcDbSpline
210
0
220
0
230
1
70
8
71
3
72
8
73
4
74
0
42
1e-07
43
1e-07
40
0
40
0
40
0
40
0
40
1
40
1
40
1
40
1
10
52.31325
20
10.42125
30
0
10
52.467
20
10.05375
30
0
10
52.94625
20
9.4515
30
0
10
53.751
20
8.61525
30
0
0
SPLINE
5
93
100
AcDbEntity
8
0
6
ByLayer
62
7
370
-1
100
AcDbSpline
210
0
220
0
230
1
70
8
71
3
72
8
73
4
74
0
42
1e-07
43
1e-07
40
0
40
0
40
0
40
0
40
1
40
1
40
1
40
1
10
53.751
20
8.61525
30
0
10
54.5565
20
7.77975
30
0
10
54.95925
20
7.12425
30
0
10
54.95925
20
6.64875
30
0
0
SPLINE
5
94
100
AcDbEntity
8
0
6
ByLayer
62
7
370
-1
100
AcDbSpline
210
0
220
0
230
1
70
8
71
3
72
8
73
4
74
0
42
1e-07
43
1e-07
40
0
40
0
40
0
40
0
40
1
40
1
40
1
40
1
10
54.95925
20
6.64875
30
0
10
54.95925
20
5.92725
30
0
10
52.689
20
5.56725
30
0
10
48.1485
20
5.56725
30
0
0
LWPOLYLINE
5
95
100
AcDbEntity
8
0
6
ByLayer
62
7
370
-1
100
AcDbPolyline
90
2
70
0
43
0
10
57.4215
20
26.75625
10
57.78975
20
26.75625
0
SPLINE
5
96
100
AcDbEntity
8
0
6
ByLayer
62
7
370
-1
100
AcDbSpline
210
0
220
0
230
1
70
8
71
3
72
8
73
4
74
0
42
1e-07
43
1e-07
40
0
40
0
40
0
40
0
40
1
40
1
40
1
40
1
10
44.904
20
5.52075
30
0
10
43.617
20
5.52
30
0
10
42.97275
20
5.88075
30
0
10
42.97275
20
6.60225
30
0
0
LWPOLYLINE
5
97
100
AcDbEntity
8
0
6
ByLayer
62
7
370
-1
100
AcDbPolyline
90
3
70
0
43
0
10
48.1485
20
5.56725
10
45.34125
20
5.52075
10
44.904
20
5.52075
0
SPLINE
5
98
100
AcDbEntity
8
0
6
ByLayer
62
7
370
-1
100
AcDbSpline
210
0
220
0
230
1
70
8
71
3
72
8
73
4
74
0
42
1e-07
43
1e-07
40
0
40
0
40
0
40
0
40
1
40
1
40
1
40
1
10
65.33625
20
5.589
30
0
10
64.20075
20
5.589
30
0
10
63.63375
20
5.93475
30
0
10
63.63375
20
6.62475
30
0
0
LWPOLYLINE
5
99
100
AcDbEntity
8
0
6
ByLayer
62
7
370
-1
100
AcDbPolyline
90
1
70
1
43
0
10
42.97275
20
6.60225
0
SPLINE
5
9A
100
AcDbEntity
8
0
6
ByLayer
62
7
370
-1
100
AcDbSpline
210
0
220
0
230
1
70
8
71
3
72
8
73
4
74
0
42
1e-07
43
1e-07
40
0
40
0
40
0
40
0
40
1
40
1
40
1
40
1
10
63.63375
20
6.87825
30
0
10
63.63375
20
7.215
30
0
10
64.017
20
7.65225
30
0
10
64.78425
20
8.19
30
0
0
SPLINE
5
9B
100
AcDbEntity
8
0
6
ByLayer
62
7
370
-1
100
AcDbSpline
210
0
220
0
230
1
70
8
71
3
72
8
73
4
74
0
42
1e-07
43
1e-07
40
0
40
0
40
0
40
0
40
1
40
1
40
1
40
1
10
64.78425
20
8.19
30
0
10
65.55075
20
8.72625
30
0
10
66.06525
20
9.40875
30
0
10
66.32625
20
10.23675
30
0
0
SPLINE
5
9C
100
AcDbEntity
8
0
6
ByLayer
62
7
370
-1
100
AcDbSpline
210
0
220
0
230
1
70
8
71
3
72
8
73
4
74
0
42
1e-07
43
1e-07
40
0
40
0
40
0
40
0
40
1
40
1
40
1
40
1
10
66.32625
20
10.23675
30
0
10
66.58725
20
11.0655
30
0
10
66.717
20
13.05975
30
0
10
66.717
20
16.22025
30
0
0
SPLINE
5
9D
100
AcDbEntity
8
0
6
ByLayer
62
7
370
-1
100
AcDbSpline
210
0
220
0
230
1
70
8
71
3
72
8
73
4
74
0
42
1e-07
43
1e-07
40
0
40
0
40
0
40
0
40
1
40
1
40
1
40
1
10
66.717
20
16.22025
30
0
10
66.717
20
19.38
30
0
10
66.58275
20
21.26625
30
0
10
66.31425
20
21.87975
30
0
0
SPLINE
5
9E
100
AcDbEntity
8
0
6
ByLayer
62
7
370
-1
100
AcDbSpline
210
0
220
0
230
1
70
8
71
3
72
8
73
4
74
0
42
1e-07
43
1e-07
40
0
40
0
40
0
40
0
40
1
40
1
40
1
40
1
10
66.31425
20
21.87975
30
0
10
66.04575
20
22.49325
30
0
10
65.5395
20
23.061
30
0
10
64.7955
20
23.583
30
0
0
SPLINE
5
9F
100
AcDbEntity
8
0
6
ByLayer
62
7
370
-1
100
AcDbSpline
210
0
220
0
230
1
70
8
71
3
72
8
73
4
74
0
42
1e-07
43
1e-07
40
0
40
0
40
0
40
0
40
1
40
1
40
1
40
1
10
64.7955
20
23.583
30
0
10
64.0515
20
24.10425
30
0
10
63.68025
20
24.618
30
0
10
63.68025
20
25.12425
30
0
0
SPLINE
5
A0
100
AcDbEntity
8
0
6
ByLayer
62
7
370
-1
100
AcDbSpline
210
0
220
0
230
1
70
8
71
3
72
8
73
4
74
0
42
1e-07
43
1e-07
40
0
40
0
40
0
40
0
40
1
40
1
40
1
40
1
10
63.68025
20
25.12425
30
0
10
63.68025
20
25.63125
30
0
10
64.02525
20
25.97625
30
0
10
64.71525
20
26.16
30
0
0
SPLINE
5
A1
100
AcDbEntity
8
0
6
ByLayer
62
7
370
-1
100
AcDbSpline
210
0
220
0
230
1
70
8
71
3
72
8
73
4
74
0
42
1e-07
43
1e-07
40
0
40
0
40
0
40
0
40
1
40
1
40
1
40
1
10
64.71525
20
26.16
30
0
10
66.70875
20
26.697
30
0
10
68.8875
20
26.96475
30
0
10
71.24925
20
26.96475
30
0
0
SPLINE
5
A2
100
AcDbEntity
8
0
6
ByLayer
62
7
370
-1
100
AcDbSpline
210
0
220
0
230
1
70
8
71
3
72
8
73
4
74
0
42
1e-07
43
1e-07
40
0
40
0
40
0
40
0
40
1
40
1
40
1
40
1
10
71.24925
20
26.96475
30
0
10
72.00075
20
26.96475
30
0
10
72.438
20
26.61975
30
0
10
72.561
20
25.92975
30
0
0
SPLINE
5
A3
100
AcDbEntity
8
0
6
ByLayer
62
7
370
-1
100
AcDbSpline
210
0
220
0
230
1
70
8
71
3
72
8
73
4
74
0
42
1e-07
43
1e-07
40
0
40
0
40
0
40
0
40
1
40
1
40
1
40
1
10
72.561
20
25.92975
30
0
10
72.576
20
25.8525
30
0
10
72.5835
20
23.5605
30
0
10
72.5835
20
19.05
30
0
0
SPLINE
5
A4
100
AcDbEntity
8
0
6
ByLayer
62
7
370
-1
100
AcDbSpline
210
0
220
0
230
1
70
8
71
3
72
8
73
4
74
0
42
1e-07
43
1e-07
40
0
40
0
40
0
40
0
40
1
40
1
40
1
40
1
10
72.5835
20
19.05
30
0
10
72.5835
20
14.54025
30
0
10
72.75225
20
11.5575
30
0
10
73.08975
20
10.10025
30
0
0
SPLINE
5
A5
100
AcDbEntity
8
0
6
ByLayer
62
7
370
-1
100
AcDbSpline
210
0
220
0
230
1
70
8
71
3
72
8
73
4
74
0
42
1e-07
43
1e-07
40
0
40
0
40
0
40
0
40
1
40
1
40
1
40
1
10
73.08975
20
10.10025
30
0
10
73.22775
20
9.501
30
0
10
73.638
20
8.862
30
0
10
74.3205
20
8.178
30
0
0
SPLINE
5
A6
100
AcDbEntity
8
0
6
ByLayer
62
7
370
-1
100
AcDbSpline
210
0
220
0
230
1
70
8
71
3
72
8
73
4
74
0
42
1e-07
43
1e-07
40
0
40
0
40
0
40
0
40
1
40
1
40
1
40
1
10
74.3205
20
8.178
30
0
10
75.003
20
7.4955
30
0
10
75.34425
20
7.01625
30
0
10
75.34425
20
6.74025
30
0
0
LWPOLYLINE
5
A7
100
AcDbEntity
8
0
6
ByLayer
62
7
370
-1
100
AcDbPolyline
90
2
70
0
43
0
10
63.63375
20
6.62475
10
63.63375
20
6.87825
0
SPLINE
5
A8
100
AcDbEntity
8
0
6
ByLayer
62
7
370
-1
100
AcDbSpline
210
0
220
0
230
1
70
8
71
3
72
8
73
4
74
0
42
1e-07
43
1e-07
40
0
40
0
40
0
40
0
40
1
40
1
40
1
40
1
10
75.34425
20
6.46425
30
0
10
75.34425
20
5.8815
30
0
10
74.85375
20
5.58975
30
0
10
73.872
20
5.58975
30
0
0
LWPOLYLINE
5
A9
100
AcDbEntity
8
0
6
ByLayer
62
7
370
-1
100
AcDbPolyline
90
2
70
0
43
0
10
75.34425
20
6.74025
10
75.34425
20
6.46425
0
SPLINE
5
AA
100
AcDbEntity
8
0
6
ByLayer
62
7
370
-1
100
AcDbSpline
210
0
220
0
230
1
70
8
71
3
72
8
73
4
74
0
42
1e-07
43
1e-07
40
0
40
0
40
0
40
0
40
1
40
1
40
1
40
1
10
69.777
20
37.36275
30
0
10
70.6815
20
37.36275
30
0
10
71.433
20
37.1055
30
0
10
72.0315
20
36.5925
30
0
0
SPLINE
5
AB
100
AcDbEntity
8
0
6
ByLayer
62
7
370
-1
100
AcDbSpline
210
0
220
0
230
1
70
8
71
3
72
8
73
4
74
0
42
1e-07
43
1e-07
40
0
40
0
40
0
40
0
40
1
40
1
40
1
40
1
10
72.0315
20
36.5925
30
0
10
72.63
20
36.078
30
0
10
72.92925
20
35.43825
30
0
10
72.92925
20
34.671
30
0
0
LWPOLYLINE
5
AC
100
AcDbEntity
8
0
6
ByLayer
62
7
370
-1
100
AcDbPolyline
90
7
70
0
43
0
10
73.872
20
5.58975
10
71.5485
20
5.58975
10
71.2035
20
5.613
10
69.156
20
5.613
10
67.75275
20
5.58975
10
65.33625
20
5.58975
10
65.33625
20
5.589
0
SPLINE
5
AD
100
AcDbEntity
8
0
6
ByLayer
62
7
370
-1
100
AcDbSpline
210
0
220
0
230
1
70
8
71
3
72
8
73
4
74
0
42
1e-07
43
1e-07
40
0
40
0
40
0
40
0
40
1
40
1
40
1
40
1
10
72.92925
20
34.119
30
0
10
72.88275
20
33.88875
30
0
10
72.86025
20
33.63225
30
0
10
72.86025
20
33.34875
30
0
0
SPLINE
5
AE
100
AcDbEntity
8
0
6
ByLayer
62
7
370
-1
100
AcDbSpline
210
0
220
0
230
1
70
8
71
3
72
8
73
4
74
0
42
1e-07
43
1e-07
40
0
40
0
40
0
40
0
40
1
40
1
40
1
40
1
10
72.86025
20
33.34875
30
0
10
72.86025
20
33.0645
30
0
10
72.58725
20
32.64975
30
0
10
72.0435
20
32.106
30
0
0
SPLINE
5
AF
100
AcDbEntity
8
0
6
ByLayer
62
7
370
-1
100
AcDbSpline
210
0
220
0
230
1
70
8
71
3
72
8
73
4
74
0
42
1e-07
43
1e-07
40
0
40
0
40
0
40
0
40
1
40
1
40
1
40
1
10
72.0435
20
32.106
30
0
10
71.499
20
31.56075
30
0
10
70.88925
20
31.28925
30
0
10
70.215
20
31.28925
30
0
0
SPLINE
5
B0
100
AcDbEntity
8
0
6
ByLayer
62
7
370
-1
100
AcDbSpline
210
0
220
0
230
1
70
8
71
3
72
8
73
4
74
0
42
1e-07
43
1e-07
40
0
40
0
40
0
40
0
40
1
40
1
40
1
40
1
10
70.215
20
31.28925
30
0
10
69.9075
20
31.22775
30
0
10
69.71625
20
31.19775
30
0
10
69.639
20
31.19775
30
0
0
LWPOLYLINE
5
B1
100
AcDbEntity
8
0
6
ByLayer
62
7
370
-1
100
AcDbPolyline
90
2
70
0
43
0
10
72.92925
20
34.671
10
72.92925
20
34.119
0
SPLINE
5
B2
100
AcDbEntity
8
0
6
ByLayer
62
7
370
-1
100
AcDbSpline
210
0
220
0
230
1
70
8
71
3
72
8
73
4
74
0
42
1e-07
43
1e-07
40
0
40
0
40
0
40
0
40
1
40
1
40
1
40
1
10
68.949
20
31.19775
30
0
10
68.71875
20
31.2435
30
0
10
68.535
20
31.266
30
0
10
68.397
20
31.266
30
0
0
SPLINE
5
B3
100
AcDbEntity
8
0
6
ByLayer
62
7
370
-1
100
AcDbSpline
210
0
220
0
230
1
70
8
71
3
72
8
73
4
74
0
42
1e-07
43
1e-07
40
0
40
0
40
0
40
0
40
1
40
1
40
1
40
1
10
68.397
20
31.266
30
0
10
67.7835
20
31.266
30
0
10
67.212
20
31.5315
30
0
10
66.68325
20
32.06025
30
0
0
SPLINE
5
B4
100
AcDbEntity
8
0
6
ByLayer
62
7
370
-1
100
AcDbSpline
210
0
220
0
230
1
70
8
71
3
72
8
73
4
74
0
42
1e-07
43
1e-07
40
0
40
0
40
0
40
0
40
1
40
1
40
1
40
1
10
66.68325
20
32.06025
30
0
10
66.15375
20
32.589
30
0
10
65.889
20
33.237
30
0
10
65.889
20
34.005
30
0
0
LWPOLYLINE
5
B5
100
AcDbEntity
8
0
6
ByLayer
62
7
370
-1
100
AcDbPolyline
90
2
70
0
43
0
10
69.639
20
31.19775
10
68.949
20
31.19775
0
SPLINE
5
B6
100
AcDbEntity
8
0
6
ByLayer
62
7
370
-1
100
AcDbSpline
210
0
220
0
230
1
70
8
71
3
72
8
73
4
74
0
42
1e-07
43
1e-07
40
0
40
0
40
0
40
0
40
1
40
1
40
1
40
1
10
65.889
20
34.44225
30
0
10
65.889
20
35.20875
30
0
10
66.1695
20
35.87175
30
0
10
66.729
20
36.432
30
0
0
SPLINE
5
B7
100
AcDbEntity
8
0
6
ByLayer
62
7
370
-1
100
AcDbSpline
210
0
220
0
230
1
70
8
71
3
72
8
73
4
74
0
42
1e-07
43
1e-07
40
0
40
0
40
0
40
0
40
1
40
1
40
1
40
1
10
66.729
20
36.432
30
0
10
67.28925
20
36.9915
30
0
10
67.914
20
37.27125
30
0
10
68.604
20
37.27125
30
0
0
LWPOLYLINE
5
B8
100
AcDbEntity
8
0
6
ByLayer
62
7
370
-1
100
AcDbPolyline
90
2
70
0
43
0
10
65.889
20
34.005
10
65.889
20
34.44225
0
LWPOLYLINE
5
B9
100
AcDbEntity
8
0
6
ByLayer
62
7
370
-1
100
AcDbPolyline
90
4
70
0
43
0
10
68.604
20
37.27125
10
69.4095
20
37.3635
10
69.777
20
37.3635
10
69.777
20
37.36275
0
LWPOLYLINE
5
BA
100
AcDbEntity
8
0
6
ByLayer
62
7
370
-1
100
AcDbPolyline
90
1
70
1
43
0
10
89.81625
20
5.12925
0
SPLINE
5
BB
100
AcDbEntity
8
0
6
ByLayer
62
7
370
-1
100
AcDbSpline
210
0
220
0
230
1
70
8
71
3
72
8
73
4
74
0
42
1e-07
43
1e-07
40
0
40
0
40
0
40
0
40
1
40
1
40
1
40
1
10
124.60425
20
16.794
30
0
10
124.60425
20
13.48125
30
0
10
123.393
20
10.67325
30
0
10
120.969
20
8.37225
30
0
0
SPLINE
5
BC
100
AcDbEntity
8
0
6
ByLayer
62
7
370
-1
100
AcDbSpline
210
0
220
0
230
1
70
8
71
3
72
8
73
4
74
0
42
1e-07
43
1e-07
40
0
40
0
40
0
40
0
40
1
40
1
40
1
40
1
10
120.969
20
8.37225
30
0
10
118.85175
20
6.363
30
0
10
116.16825
20
5.358
30
0
10
112.91625
20
5.358
30
0
0
SPLINE
5
BD
100
AcDbEntity
8
0
6
ByLayer
62
7
370
-1
100
AcDbSpline
210
0
220
0
230
1
70
8
71
3
72
8
73
4
74
0
42
1e-07
43
1e-07
40
0
40
0
40
0
40
0
40
1
40
1
40
1
40
1
10
112.91625
20
5.358
30
0
10
109.665
20
5.358
30
0
10
107.1105
20
6.24
30
0
10
105.255
20
8.004
30
0
0
SPLINE
5
BE
100
AcDbEntity
8
0
6
ByLayer
62
7
370
-1
100
AcDbSpline
210
0
220
0
230
1
70
8
71
3
72
8
73
4
74
0
42
1e-07
43
1e-07
40
0
40
0
40
0
40
0
40
1
40
1
40
1
40
1
10
105.255
20
8.004
30
0
10
103.077
20
10.089
30
0
10
101.988
20
12.55125
30
0
10
101.988
20
15.39
30
0
0
LWPOLYLINE
5
BF
100
AcDbEntity
8
0
6
ByLayer
62
7
370
-1
100
AcDbPolyline
90
2
70
0
43
0
10
124.60425
20
17.553
10
124.60425
20
16.794
0
SPLINE
5
C0
100
AcDbEntity
8
0
6
ByLayer
62
7
370
-1
100
AcDbSpline
210
0
220
0
230
1
70
8
71
3
72
8
73
4
74
0
42
1e-07
43
1e-07
40
0
40
0
40
0
40
0
40
1
40
1
40
1
40
1
10
101.988
20
16.149
30
0
10
101.988
20
17.66775
30
0
10
102.29475
20
19.15575
30
0
10
102.90825
20
20.613
30
0
0
SPLINE
5
C1
100
AcDbEntity
8
0
6
ByLayer
62
7
370
-1
100
AcDbSpline
210
0
220
0
230
1
70
8
71
3
72
8
73
4
74
0
42
1e-07
43
1e-07
40
0
40
0
40
0
40
0
40
1
40
1
40
1
40
1
10
102.90825
20
20.613
30
0
10
104.0895
20
23.46525
30
0
10
106.17525
20
25.50525
30
0
10
109.16625
20
26.73225
30
0
0
SPLINE
5
C2
100
AcDbEntity
8
0
6
ByLayer
62
7
370
-1
100
AcDbSpline
210
0
220
0
230
1
70
8
71
3
72
8
73
4
74
0
42
1e-07
43
1e-07
40
0
40
0
40
0
40
0
40
1
40
1
40
1
40
1
10
109.16625
20
26.73225
30
0
10
110.53125
20
27.30075
30
0
10
111.95775
20
27.5835
30
0
10
113.44575
20
27.5835
30
0
0
LWPOLYLINE
5
C3
100
AcDbEntity
8
0
6
ByLayer
62
7
370
-1
100
AcDbPolyline
90
2
70
0
43
0
10
101.988
20
15.39
10
101.988
20
16.149
0
SPLINE
5
C4
100
AcDbEntity
8
0
6
ByLayer
62
7
370
-1
100
AcDbSpline
210
0
220
0
230
1
70
8
71
3
72
8
73
4
74
0
42
1e-07
43
1e-07
40
0
40
0
40
0
40
0
40
1
40
1
40
1
40
1
10
114.18225
20
27.5835
30
0
10
117.204
20
27.5835
30
0
10
119.72625
20
26.57175
30
0
10
121.75125
20
24.54675
30
0
0
SPLINE
5
C5
100
AcDbEntity
8
0
6
ByLayer
62
7
370
-1
100
AcDbSpline
210
0
220
0
230
1
70
8
71
3
72
8
73
4
74
0
42
1e-07
43
1e-07
40
0
40
0
40
0
40
0
40
1
40
1
40
1
40
1
10
121.75125
20
24.54675
30
0
10
122.6415
20
23.6565
30
0
10
123.339
20
22.57125
30
0
10
123.8445
20
21.291
30
0
0
SPLINE
5
C6
100
AcDbEntity
8
0
6
ByLayer
62
7
370
-1
100
AcDbSpline
210
0
220
0
230
1
70
8
71
3
72
8
73
4
74
0
42
1e-07
43
1e-07
40
0
40
0
40
0
40
0
40
1
40
1
40
1
40
1
10
123.8445
20
21.291
30
0
10
124.3515
20
20.0115
30
0
10
124.60425
20
18.76425
30
0
10
124.60425
20
17.553
30
0
0
LWPOLYLINE
5
C7
100
AcDbEntity
8
0
6
ByLayer
62
7
370
-1
100
AcDbPolyline
90
2
70
0
43
0
10
113.44575
20
27.5835
10
114.18225
20
27.5835
0
LWPOLYLINE
5
C8
100
AcDbEntity
8
0
6
ByLayer
62
7
370
-1
100
AcDbPolyline
90
1
70
1
43
0
10
124.60425
20
17.553
0
SPLINE
5
C9
100
AcDbEntity
8
0
6
ByLayer
62
7
370
-1
100
AcDbSpline
210
0
220
0
230
1
70
8
71
3
72
8
73
4
74
0
42
1e-07
43
1e-07
40
0
40
0
40
0
40
0
40
1
40
1
40
1
40
1
10
113.79075
20
7.91325
30
0
10
115.0335
20
7.91325
30
0
10
115.99275
20
8.54175
30
0
10
116.66625
20
9.801
30
0
0
SPLINE
5
CA
100
AcDbEntity
8
0
6
ByLayer
62
7
370
-1
100
AcDbSpline
210
0
220
0
230
1
70
8
71
3
72
8
73
4
74
0
42
1e-07
43
1e-07
40
0
40
0
40
0
40
0
40
1
40
1
40
1
40
1
10
116.66625
20
9.801
30
0
10
117.57225
20
11.5035
30
0
10
118.0245
20
13.5195
30
0
10
118.0245
20
15.85125
30
0
0
LWPOLYLINE
5
CB
100
AcDbEntity
8
0
6
ByLayer
62
7
370
-1
100
AcDbPolyline
90
2
70
0
43
0
10
113.16975
20
7.91325
10
113.79075
20
7.91325
0
SPLINE
5
CC
100
AcDbEntity
8
0
6
ByLayer
62
7
370
-1
100
AcDbSpline
210
0
220
0
230
1
70
8
71
3
72
8
73
4
74
0
42
1e-07
43
1e-07
40
0
40
0
40
0
40
0
40
1
40
1
40
1
40
1
10
118.002
20
16.38
30
0
10
118.002
20
18.8955
30
0
10
117.56475
20
20.97
30
0
10
116.69025
20
22.60425
30
0
0
SPLINE
5
CD
100
AcDbEntity
8
0
6
ByLayer
62
7
370
-1
100
AcDbSpline
210
0
220
0
230
1
70
8
71
3
72
8
73
4
74
0
42
1e-07
43
1e-07
40
0
40
0
40
0
40
0
40
1
40
1
40
1
40
1
10
116.69025
20
22.60425
30
0
10
115.81575
20
24.23775
30
0
10
114.681
20
25.0545
30
0
10
113.28525
20
25.0545
30
0
0
LWPOLYLINE
5
CE
100
AcDbEntity
8
0
6
ByLayer
62
7
370
-1
100
AcDbPolyline
90
3
70
0
43
0
10
118.0245
20
15.85125
10
118.0245
20
16.104
10
118.002
20
16.38
0
SPLINE
5
CF
100
AcDbEntity
8
0
6
ByLayer
62
7
370
-1
100
AcDbSpline
210
0
220
0
230
1
70
8
71
3
72
8
73
4
74
0
42
1e-07
43
1e-07
40
0
40
0
40
0
40
0
40
1
40
1
40
1
40
1
10
113.07825
20
25.0545
30
0
10
111.6825
20
25.0545
30
0
10
110.586
20
24.303
30
0
10
109.788
20
22.79925
30
0
0
SPLINE
5
D0
100
AcDbEntity
8
0
6
ByLayer
62
7
370
-1
100
AcDbSpline
210
0
220
0
230
1
70
8
71
3
72
8
73
4
74
0
42
1e-07
43
1e-07
40
0
40
0
40
0
40
0
40
1
40
1
40
1
40
1
10
109.788
20
22.79925
30
0
10
108.99075
20
21.29625
30
0
10
108.59175
20
19.38675
30
0
10
108.59175
20
17.07
30
0
0
LWPOLYLINE
5
D1
100
AcDbEntity
8
0
6
ByLayer
62
7
370
-1
100
AcDbPolyline
90
2
70
0
43
0
10
113.28525
20
25.0545
10
113.07825
20
25.0545
0
SPLINE
5
D2
100
AcDbEntity
8
0
6
ByLayer
62
7
370
-1
100
AcDbSpline
210
0
220
0
230
1
70
8
71
3
72
8
73
4
74
0
42
1e-07
43
1e-07
40
0
40
0
40
0
40
0
40
1
40
1
40
1
40
1
10
108.59175
20
16.54125
30
0
10
108.59175
20
14.118
30
0
10
109.0365
20
12.0735
30
0
10
109.926
20
10.41
30
0
0
SPLINE
5
D3
100
AcDbEntity
8
0
6
ByLayer
62
7
370
-1
100
AcDbSpline
210
0
220
0
230
1
70
8
71
3
72
8
73
4
74
0
42
1e-07
43
1e-07
40
0
40
0
40
0
40
0
40
1
40
1
40
1
40
1
10
109.926
20
10.41
30
0
10
110.81475
20
8.745
30
0
10
111.89625
20
7.91325
30
0
10
113.16975
20
7.91325
30
0
0
LWPOLYLINE
5
D4
100
AcDbEntity
8
0
6
ByLayer
62
7
370
-1
100
AcDbPolyline
90
2
70
0
43
0
10
108.59175
20
17.07
10
108.59175
20
16.54125
0
SPLINE
5
D5
100
AcDbEntity
8
0
6
ByLayer
62
7
370
-1
100
AcDbSpline
210
0
220
0
230
1
70
8
71
3
72
8
73
4
74
0
42
1e-07
43
1e-07
40
0
40
0
40
0
40
0
40
1
40
1
40
1
40
1
10
128.676
20
36.12075
30
0
10
128.676
20
36.81075
30
0
10
129.16725
20
37.1565
30
0
10
130.149
20
37.1565
30
0
0
LWPOLYLINE
5
D6
100
AcDbEntity
8
0
6
ByLayer
62
7
370
-1
100
AcDbPolyline
90
1
70
1
43
0
10
113.16975
20
7.91325
0
SPLINE
5
D7
100
AcDbEntity
8
0
6
ByLayer
62
7
370
-1
100
AcDbSpline
210
0
220
0
230
1
70
8
71
3
72
8
73
4
74
0
42
1e-07
43
1e-07
40
0
40
0
40
0
40
0
40
1
40
1
40
1
40
1
10
135.51
20
37.13325
30
0
10
139.22175
20
37.13325
30
0
10
141.27
20
37.095
30
0
10
141.65325
20
37.0185
30
0
0
SPLINE
5
D8
100
AcDbEntity
8
0
6
ByLayer
62
7
370
-1
100
AcDbSpline
210
0
220
0
230
1
70
8
71
3
72
8
73
4
74
0
42
1e-07
43
1e-07
40
0
40
0
40
0
40
0
40
1
40
1
40
1
40
1
10
141.65325
20
37.0185
30
0
10
142.29675
20
36.8955
30
0
10
142.61925
20
36.59325
30
0
10
142.61925
20
36.1095
30
0
0
SPLINE
5
D9
100
AcDbEntity
8
0
6
ByLayer
62
7
370
-1
100
AcDbSpline
210
0
220
0
230
1
70
8
71
3
72
8
73
4
74
0
42
1e-07
43
1e-07
40
0
40
0
40
0
40
0
40
1
40
1
40
1
40
1
10
142.61925
20
36.1095
30
0
10
142.61925
20
35.6265
30
0
10
142.1475
20
34.9935
30
0
10
141.204
20
34.212
30
0
0
SPLINE
5
DA
100
AcDbEntity
8
0
6
ByLayer
62
7
370
-1
100
AcDbSpline
210
0
220
0
230
1
70
8
71
3
72
8
73
4
74
0
42
1e-07
43
1e-07
40
0
40
0
40
0
40
0
40
1
40
1
40
1
40
1
10
141.204
20
34.212
30
0
10
140.2605
20
33.42975
30
0
10
139.68225
20
32.57025
30
0
10
139.467
20
31.63425
30
0
0
SPLINE
5
DB
100
AcDbEntity
8
0
6
ByLayer
62
7
370
-1
100
AcDbSpline
210
0
220
0
230
1
70
8
71
3
72
8
73
4
74
0
42
1e-07
43
1e-07
40
0
40
0
40
0
40
0
40
1
40
1
40
1
40
1
10
139.467
20
31.63425
30
0
10
139.08375
20
29.9475
30
0
10
138.89175
20
26.289
30
0
10
138.89175
20
20.6595
30
0
0
LWPOLYLINE
5
DC
100
AcDbEntity
8
0
6
ByLayer
62
7
370
-1
100
AcDbPolyline
90
3
70
0
43
0
10
130.149
20
37.1565
10
134.8425
20
37.1565
10
135.51
20
37.13325
0
SPLINE
5
DD
100
AcDbEntity
8
0
6
ByLayer
62
7
370
-1
100
AcDbSpline
210
0
220
0
230
1
70
8
71
3
72
8
73
4
74
0
42
1e-07
43
1e-07
40
0
40
0
40
0
40
0
40
1
40
1
40
1
40
1
10
138.93825
20
13.75725
30
0
10
138.93825
20
11.65575
30
0
10
139.23
20
10.275
30
0
10
139.81275
20
9.6165
30
0
0
SPLINE
5
DE
100
AcDbEntity
8
0
6
ByLayer
62
7
370
-1
100
AcDbSpline
210
0
220
0
230
1
70
8
71
3
72
8
73
4
74
0
42
1e-07
43
1e-07
40
0
40
0
40
0
40
0
40
1
40
1
40
1
40
1
10
139.81275
20
9.6165
30
0
10
140.39475
20
8.9565
30
0
10
141.549
20
8.62725
30
0
10
143.2755
20
8.62725
30
0
0
SPLINE
5
DF
100
AcDbEntity
8
0
6
ByLayer
62
7
370
-1
100
AcDbSpline
210
0
220
0
230
1
70
8
71
3
72
8
73
4
74
0
42
1e-07
43
1e-07
40
0
40
0
40
0
40
0
40
1
40
1
40
1
40
1
10
143.2755
20
8.62725
30
0
10
145.0005
20
8.62725
30
0
10
146.592
20
9.02625
30
0
10
148.04925
20
9.82425
30
0
0
SPLINE
5
E0
100
AcDbEntity
8
0
6
ByLayer
62
7
370
-1
100
AcDbSpline
210
0
220
0
230
1
70
8
71
3
72
8
73
4
74
0
42
1e-07
43
1e-07
40
0
40
0
40
0
40
0
40
1
40
1
40
1
40
1
10
148.04925
20
9.82425
30
0
10
148.7235
20
10.19175
30
0
10
149.69775
20
11.08575
30
0
10
150.97125
20
12.504
30
0
0
SPLINE
5
E1
100
AcDbEntity
8
0
6
ByLayer
62
7
370
-1
100
AcDbSpline
210
0
220
0
230
1
70
8
71
3
72
8
73
4
74
0
42
1e-07
43
1e-07
40
0
40
0
40
0
40
0
40
1
40
1
40
1
40
1
10
150.97125
20
12.504
30
0
10
152.24475
20
13.92375
30
0
10
153.249
20
14.6325
30
0
10
153.9855
20
14.6325
30
0
0
SPLINE
5
E2
100
AcDbEntity
8
0
6
ByLayer
62
7
370
-1
100
AcDbSpline
210
0
220
0
230
1
70
8
71
3
72
8
73
4
74
0
42
1e-07
43
1e-07
40
0
40
0
40
0
40
0
40
1
40
1
40
1
40
1
10
153.9855
20
14.6325
30
0
10
154.49175
20
14.6325
30
0
10
154.74525
20
14.2485
30
0
10
154.74525
20
13.48275
30
0
0
SPLINE
5
E3
100
AcDbEntity
8
0
6
ByLayer
62
7
370
-1
100
AcDbSpline
210
0
220
0
230
1
70
8
71
3
72
8
73
4
74
0
42
1e-07
43
1e-07
40
0
40
0
40
0
40
0
40
1
40
1
40
1
40
1
10
154.74525
20
13.48275
30
0
10
154.74525
20
10.2915
30
0
10
154.36875
20
8.0295
30
0
10
153.61725
20
6.6945
30
0
0
SPLINE
5
E4
100
AcDbEntity
8
0
6
ByLayer
62
7
370
-1
100
AcDbSpline
210
0
220
0
230
1
70
8
71
3
72
8
73
4
74
0
42
1e-07
43
1e-07
40
0
40
0
40
0
40
0
40
1
40
1
40
1
40
1
10
153.61725
20
6.6945
30
0
10
153.2955
20
6.1275
30
0
10
152.298
20
5.84325
30
0
10
150.627
20
5.84325
30
0
0
SPLINE
5
E5
100
AcDbEntity
8
0
6
ByLayer
62
7
370
-1
100
AcDbSpline
210
0
220
0
230
1
70
8
71
3
72
8
73
4
74
0
42
1e-07
43
1e-07
40
0
40
0
40
0
40
0
40
1
40
1
40
1
40
1
10
150.627
20
5.84325
30
0
10
147.31425
20
5.72025
30
0
10
145.31925
20
5.6595
30
0
10
144.64425
20
5.6595
30
0
0
LWPOLYLINE
5
E6
100
AcDbEntity
8
0
6
ByLayer
62
7
370
-1
100
AcDbPolyline
90
3
70
0
43
0
10
138.89175
20
20.6595
10
138.89175
20
17.13975
10
138.93825
20
13.75725
0
SPLINE
5
E7
100
AcDbEntity
8
0
6
ByLayer
62
7
370
-1
100
AcDbSpline
210
0
220
0
230
1
70
8
71
3
72
8
73
4
74
0
42
1e-07
43
1e-07
40
0
40
0
40
0
40
0
40
1
40
1
40
1
40
1
10
131.691
20
5.56725
30
0
10
130.1115
20
5.56725
30
0
10
129.321
20
5.9895
30
0
10
129.321
20
6.83325
30
0
0
SPLINE
5
E8
100
AcDbEntity
8
0
6
ByLayer
62
7
370
-1
100
AcDbSpline
210
0
220
0
230
1
70
8
71
3
72
8
73
4
74
0
42
1e-07
43
1e-07
40
0
40
0
40
0
40
0
40
1
40
1
40
1
40
1
10
129.321
20
6.83325
30
0
10
129.321
20
6.87975
30
0
10
129.8655
20
7.58475
30
0
10
130.9545
20
8.94975
30
0
0
SPLINE
5
E9
100
AcDbEntity
8
0
6
ByLayer
62
7
370
-1
100
AcDbSpline
210
0
220
0
230
1
70
8
71
3
72
8
73
4
74
0
42
1e-07
43
1e-07
40
0
40
0
40
0
40
0
40
1
40
1
40
1
40
1
10
130.9545
20
8.94975
30
0
10
131.4615
20
9.594
30
0
10
131.829
20
10.70625
30
0
10
132.05925
20
12.285
30
0
0
SPLINE
5
EA
100
AcDbEntity
8
0
6
ByLayer
62
7
370
-1
100
AcDbSpline
210
0
220
0
230
1
70
8
71
3
72
8
73
4
74
0
42
1e-07
43
1e-07
40
0
40
0
40
0
40
0
40
1
40
1
40
1
40
1
10
132.05925
20
12.285
30
0
10
132.2895
20
13.86525
30
0
10
132.405
20
16.68
30
0
10
132.405
20
20.72925
30
0
0
LWPOLYLINE
5
EB
100
AcDbEntity
8
0
6
ByLayer
62
7
370
-1
100
AcDbPolyline
90
3
70
0
43
0
10
144.64425
20
5.6595
10
135.92475
20
5.56725
10
131.691
20
5.56725
0
SPLINE
5
EC
100
AcDbEntity
8
0
6
ByLayer
62
7
370
-1
100
AcDbSpline
210
0
220
0
230
1
70
8
71
3
72
8
73
4
74
0
42
1e-07
43
1e-07
40
0
40
0
40
0
40
0
40
1
40
1
40
1
40
1
10
132.3585
20
30.9915
30
0
10
132.3585
20
31.9425
30
0
10
132.20475
20
32.65125
30
0
10
131.89875
20
33.12
30
0
0
SPLINE
5
ED
100
AcDbEntity
8
0
6
ByLayer
62
7
370
-1
100
AcDbSpline
210
0
220
0
230
1
70
8
71
3
72
8
73
4
74
0
42
1e-07
43
1e-07
40
0
40
0
40
0
40
0
40
1
40
1
40
1
40
1
10
131.89875
20
33.12
30
0
10
131.592
20
33.58725
30
0
10
130.977
20
34.074
30
0
10
130.0575
20
34.581
30
0
0
SPLINE
5
EE
100
AcDbEntity
8
0
6
ByLayer
62
7
370
-1
100
AcDbSpline
210
0
220
0
230
1
70
8
71
3
72
8
73
4
74
0
42
1e-07
43
1e-07
40
0
40
0
40
0
40
0
40
1
40
1
40
1
40
1
10
130.0575
20
34.581
30
0
10
129.1365
20
35.085
30
0
10
128.676
20
35.59875
30
0
10
128.676
20
36.12075
30
0
0
LWPOLYLINE
5
EF
100
AcDbEntity
8
0
6
ByLayer
62
7
370
-1
100
AcDbPolyline
90
3
70
0
43
0
10
132.405
20
20.72925
10
132.405
20
28.23
10
132.3585
20
30.9915
0
SPLINE
5
F0
100
AcDbEntity
8
0
6
ByLayer
62
7
370
-1
100
AcDbSpline
210
0
220
0
230
1
70
8
71
3
72
8
73
4
74
0
42
1e-07
43
1e-07
40
0
40
0
40
0
40
0
40
1
40
1
40
1
40
1
10
160.611
20
19.992
30
0
10
159.1995
20
19.992
30
0
10
158.4945
20
20.60175
30
0
10
158.4945
20
21.8205
30
0
0
SPLINE
5
F1
100
AcDbEntity
8
0
6
ByLayer
62
7
370
-1
100
AcDbSpline
210
0
220
0
230
1
70
8
71
3
72
8
73
4
74
0
42
1e-07
43
1e-07
40
0
40
0
40
0
40
0
40
1
40
1
40
1
40
1
10
158.4945
20
21.8205
30
0
10
158.4945
20
23.04075
30
0
10
159.46125
20
24.198
30
0
10
161.39325
20
25.29525
30
0
0
SPLINE
5
F2
100
AcDbEntity
8
0
6
ByLayer
62
7
370
-1
100
AcDbSpline
210
0
220
0
230
1
70
8
71
3
72
8
73
4
74
0
42
1e-07
43
1e-07
40
0
40
0
40
0
40
0
40
1
40
1
40
1
40
1
10
161.39325
20
25.29525
30
0
10
163.32525
20
26.39175
30
0
10
165.5115
20
26.94
30
0
10
167.9505
20
26.94
30
0
0
SPLINE
5
F3
100
AcDbEntity
8
0
6
ByLayer
62
7
370
-1
100
AcDbSpline
210
0
220
0
230
1
70
8
71
3
72
8
73
4
74
0
42
1e-07
43
1e-07
40
0
40
0
40
0
40
0
40
1
40
1
40
1
40
1
10
167.9505
20
26.94
30
0
10
170.38875
20
26.94
30
0
10
172.257
20
26.3145
30
0
10
173.55225
20
25.065
30
0
0
SPLINE
5
F4
100
AcDbEntity
8
0
6
ByLayer
62
7
370
-1
100
AcDbSpline
210
0
220
0
230
1
70
8
71
3
72
8
73
4
74
0
42
1e-07
43
1e-07
40
0
40
0
40
0
40
0
40
1
40
1
40
1
40
1
10
173.55225
20
25.065
30
0
10
174.849
20
23.81475
30
0
10
175.49775
20
21.924
30
0
10
175.49775
20
19.39275
30
0
0
LWPOLYLINE
5
F5
100
AcDbEntity
8
0
6
ByLayer
62
7
370
-1
100
AcDbPolyline
90
1
70
1
43
0
10
128.676
20
36.12075
0
SPLINE
5
F6
100
AcDbEntity
8
0
6
ByLayer
62
7
370
-1
100
AcDbSpline
210
0
220
0
230
1
70
8
71
3
72
8
73
4
74
0
42
1e-07
43
1e-07
40
0
40
0
40
0
40
0
40
1
40
1
40
1
40
1
10
175.4745
20
18.864
30
0
10
175.45875
20
18.51075
30
0
10
175.45125
20
18.15075
30
0
10
175.45125
20
17.7825
30
0
0
LWPOLYLINE
5
F7
100
AcDbEntity
8
0
6
ByLayer
62
7
370
-1
100
AcDbPolyline
90
2
70
0
43
0
10
175.49775
20
19.39275
10
175.4745
20
18.864
0
SPLINE
5
F8
100
AcDbEntity
8
0
6
ByLayer
62
7
370
-1
100
AcDbSpline
210
0
220
0
230
1
70
8
71
3
72
8
73
4
74
0
42
1e-07
43
1e-07
40
0
40
0
40
0
40
0
40
1
40
1
40
1
40
1
10
175.42875
20
17.25375
30
0
10
175.413
20
16.794
30
0
10
175.39425
20
16.31775
30
0
10
175.371
20
15.828
30
0
0
SPLINE
5
F9
100
AcDbEntity
8
0
6
ByLayer
62
7
370
-1
100
AcDbSpline
210
0
220
0
230
1
70
8
71
3
72
8
73
4
74
0
42
1e-07
43
1e-07
40
0
40
0
40
0
40
0
40
1
40
1
40
1
40
1
10
175.371
20
15.828
30
0
10
175.3485
20
15.33675
30
0
10
175.33725
20
14.9145
30
0
10
175.33725
20
14.562
30
0
0
SPLINE
5
FA
100
AcDbEntity
8
0
6
ByLayer
62
7
370
-1
100
AcDbSpline
210
0
220
0
230
1
70
8
71
3
72
8
73
4
74
0
42
1e-07
43
1e-07
40
0
40
0
40
0
40
0
40
1
40
1
40
1
40
1
10
175.33725
20
14.562
30
0
10
175.33725
20
12.18525
30
0
10
175.4865
20
10.73175
30
0
10
175.78575
20
10.20225
30
0
0
SPLINE
5
FB
100
AcDbEntity
8
0
6
ByLayer
62
7
370
-1
100
AcDbSpline
210
0
220
0
230
1
70
8
71
3
72
8
73
4
74
0
42
1e-07
43
1e-07
40
0
40
0
40
0
40
0
40
1
40
1
40
1
40
1
10
175.78575
20
10.20225
30
0
10
176.085
20
9.6735
30
0
10
176.61375
20
9.27
30
0
10
177.37275
20
8.99475
30
0
0
SPLINE
5
FC
100
AcDbEntity
8
0
6
ByLayer
62
7
370
-1
100
AcDbSpline
210
0
220
0
230
1
70
8
71
3
72
8
73
4
74
0
42
1e-07
43
1e-07
40
0
40
0
40
0
40
0
40
1
40
1
40
1
40
1
10
177.37275
20
8.99475
30
0
10
178.1325
20
8.71875
30
0
10
178.51275
20
8.3955
30
0
10
178.51275
20
8.028
30
0
0
SPLINE
5
FD
100
AcDbEntity
8
0
6
ByLayer
62
7
370
-1
100
AcDbSpline
210
0
220
0
230
1
70
8
71
3
72
8
73
4
74
0
42
1e-07
43
1e-07
40
0
40
0
40
0
40
0
40
1
40
1
40
1
40
1
10
178.51275
20
8.028
30
0
10
178.51275
20
7.338
30
0
10
177.94425
20
6.717
30
0
10
176.8095
20
6.165
30
0
0
SPLINE
5
FE
100
AcDbEntity
8
0
6
ByLayer
62
7
370
-1
100
AcDbSpline
210
0
220
0
230
1
70
8
71
3
72
8
73
4
74
0
42
1e-07
43
1e-07
40
0
40
0
40
0
40
0
40
1
40
1
40
1
40
1
10
176.8095
20
6.165
30
0
10
175.674
20
5.613
30
0
10
174.65775
20
5.337
30
0
10
173.76075
20
5.337
30
0
0
SPLINE
5
FF
100
AcDbEntity
8
0
6
ByLayer
62
7
370
-1
100
AcDbSpline
210
0
220
0
230
1
70
8
71
3
72
8
73
4
74
0
42
1e-07
43
1e-07
40
0
40
0
40
0
40
0
40
1
40
1
40
1
40
1
10
173.76075
20
5.337
30
0
10
172.86375
20
5.337
30
0
10
172.017
20
5.625
30
0
10
171.219
20
6.1995
30
0
0
SPLINE
5
100
100
AcDbEntity
8
0
6
ByLayer
62
7
370
-1
100
AcDbSpline
210
0
220
0
230
1
70
8
71
3
72
8
73
4
74
0
42
1e-07
43
1e-07
40
0
40
0
40
0
40
0
40
1
40
1
40
1
40
1
10
171.219
20
6.1995
30
0
10
170.421
20
6.774
30
0
10
169.88025
20
7.062
30
0
10
169.59675
20
7.062
30
0
0
SPLINE
5
101
100
AcDbEntity
8
0
6
ByLayer
62
7
370
-1
100
AcDbSpline
210
0
220
0
230
1
70
8
71
3
72
8
73
4
74
0
42
1e-07
43
1e-07
40
0
40
0
40
0
40
0
40
1
40
1
40
1
40
1
10
169.59675
20
7.062
30
0
10
169.31325
20
7.062
30
0
10
168.822
20
6.8745
30
0
10
168.1245
20
6.49875
30
0
0
SPLINE
5
102
100
AcDbEntity
8
0
6
ByLayer
62
7
370
-1
100
AcDbSpline
210
0
220
0
230
1
70
8
71
3
72
8
73
4
74
0
42
1e-07
43
1e-07
40
0
40
0
40
0
40
0
40
1
40
1
40
1
40
1
10
168.1245
20
6.49875
30
0
10
167.4255
20
6.12225
30
0
10
166.7775
20
5.808
30
0
10
166.17975
20
5.55525
30
0
0
SPLINE
5
103
100
AcDbEntity
8
0
6
ByLayer
62
7
370
-1
100
AcDbSpline
210
0
220
0
230
1
70
8
71
3
72
8
73
4
74
0
42
1e-07
43
1e-07
40
0
40
0
40
0
40
0
40
1
40
1
40
1
40
1
10
166.17975
20
5.55525
30
0
10
165.58125
20
5.301
30
0
10
164.5965
20
5.175
30
0
10
163.22325
20
5.175
30
0
0
SPLINE
5
104
100
AcDbEntity
8
0
6
ByLayer
62
7
370
-1
100
AcDbSpline
210
0
220
0
230
1
70
8
71
3
72
8
73
4
74
0
42
1e-07
43
1e-07
40
0
40
0
40
0
40
0
40
1
40
1
40
1
40
1
10
163.22325
20
5.175
30
0
10
161.85075
20
5.175
30
0
10
160.593
20
5.6925
30
0
10
159.45075
20
6.72825
30
0
0
SPLINE
5
105
100
AcDbEntity
8
0
6
ByLayer
62
7
370
-1
100
AcDbSpline
210
0
220
0
230
1
70
8
71
3
72
8
73
4
74
0
42
1e-07
43
1e-07
40
0
40
0
40
0
40
0
40
1
40
1
40
1
40
1
10
159.45075
20
6.72825
30
0
10
158.30775
20
7.76325
30
0
10
157.73625
20
9.08625
30
0
10
157.73625
20
10.6965
30
0
0
SPLINE
5
106
100
AcDbEntity
8
0
6
ByLayer
62
7
370
-1
100
AcDbSpline
210
0
220
0
230
1
70
8
71
3
72
8
73
4
74
0
42
1e-07
43
1e-07
40
0
40
0
40
0
40
0
40
1
40
1
40
1
40
1
10
157.73625
20
10.6965
30
0
10
157.73625
20
12.3075
30
0
10
158.40375
20
13.68
30
0
10
159.73875
20
14.81475
30
0
0
SPLINE
5
107
100
AcDbEntity
8
0
6
ByLayer
62
7
370
-1
100
AcDbSpline
210
0
220
0
230
1
70
8
71
3
72
8
73
4
74
0
42
1e-07
43
1e-07
40
0
40
0
40
0
40
0
40
1
40
1
40
1
40
1
10
159.73875
20
14.81475
30
0
10
161.073
20
15.95025
30
0
10
163.22775
20
16.92375
30
0
10
166.203
20
17.73675
30
0
0
SPLINE
5
108
100
AcDbEntity
8
0
6
ByLayer
62
7
370
-1
100
AcDbSpline
210
0
220
0
230
1
70
8
71
3
72
8
73
4
74
0
42
1e-07
43
1e-07
40
0
40
0
40
0
40
0
40
1
40
1
40
1
40
1
10
166.203
20
17.73675
30
0
10
167.2305
20
18.0285
30
0
10
168.06
20
18.3585
30
0
10
168.68775
20
18.726
30
0
0
SPLINE
5
109
100
AcDbEntity
8
0
6
ByLayer
62
7
370
-1
100
AcDbSpline
210
0
220
0
230
1
70
8
71
3
72
8
73
4
74
0
42
1e-07
43
1e-07
40
0
40
0
40
0
40
0
40
1
40
1
40
1
40
1
10
168.68775
20
18.726
30
0
10
169.317
20
19.09425
30
0
10
169.63125
20
19.758
30
0
10
169.63125
20
20.7165
30
0
0
SPLINE
5
10A
100
AcDbEntity
8
0
6
ByLayer
62
7
370
-1
100
AcDbSpline
210
0
220
0
230
1
70
8
71
3
72
8
73
4
74
0
42
1e-07
43
1e-07
40
0
40
0
40
0
40
0
40
1
40
1
40
1
40
1
10
169.63125
20
20.7165
30
0
10
169.63125
20
21.675
30
0
10
169.36275
20
22.43025
30
0
10
168.82575
20
22.98225
30
0
0
SPLINE
5
10B
100
AcDbEntity
8
0
6
ByLayer
62
7
370
-1
100
AcDbSpline
210
0
220
0
230
1
70
8
71
3
72
8
73
4
74
0
42
1e-07
43
1e-07
40
0
40
0
40
0
40
0
40
1
40
1
40
1
40
1
10
168.82575
20
22.98225
30
0
10
168.2895
20
23.5335
30
0
10
167.55375
20
23.81025
30
0
10
166.61775
20
23.81025
30
0
0
SPLINE
5
10C
100
AcDbEntity
8
0
6
ByLayer
62
7
370
-1
100
AcDbSpline
210
0
220
0
230
1
70
8
71
3
72
8
73
4
74
0
42
1e-07
43
1e-07
40
0
40
0
40
0
40
0
40
1
40
1
40
1
40
1
10
166.61775
20
23.81025
30
0
10
165.68175
20
23.81025
30
0
10
164.67
20
23.17275
30
0
10
163.581
20
21.9
30
0
0
SPLINE
5
10D
100
AcDbEntity
8
0
6
ByLayer
62
7
370
-1
100
AcDbSpline
210
0
220
0
230
1
70
8
71
3
72
8
73
4
74
0
42
1e-07
43
1e-07
40
0
40
0
40
0
40
0
40
1
40
1
40
1
40
1
10
163.581
20
21.9
30
0
10
162.48975
20
20.62875
30
0
10
161.5005
20
19.992
30
0
10
160.611
20
19.992
30
0
0
LWPOLYLINE
5
10E
100
AcDbEntity
8
0
6
ByLayer
62
7
370
-1
100
AcDbPolyline
90
2
70
0
43
0
10
175.45125
20
17.7825
10
175.42875
20
17.25375
0
SPLINE
5
10F
100
AcDbEntity
8
0
6
ByLayer
62
7
370
-1
100
AcDbSpline
210
0
220
0
230
1
70
8
71
3
72
8
73
4
74
0
42
1e-07
43
1e-07
40
0
40
0
40
0
40
0
40
1
40
1
40
1
40
1
10
169.608
20
14.86125
30
0
10
169.608
20
15.41325
30
0
10
169.4235
20
15.68925
30
0
10
169.05525
20
15.68925
30
0
0
LWPOLYLINE
5
110
100
AcDbEntity
8
0
6
ByLayer
62
7
370
-1
100
AcDbPolyline
90
1
70
1
43
0
10
160.611
20
19.992
0
SPLINE
5
111
100
AcDbEntity
8
0
6
ByLayer
62
7
370
-1
100
AcDbSpline
210
0
220
0
230
1
70
8
71
3
72
8
73
4
74
0
42
1e-07
43
1e-07
40
0
40
0
40
0
40
0
40
1
40
1
40
1
40
1
10
168.77925
20
15.68925
30
0
10
167.43
20
15.68925
30
0
10
166.215
20
15.225
30
0
10
165.1335
20
14.298
30
0
0
SPLINE
5
112
100
AcDbEntity
8
0
6
ByLayer
62
7
370
-1
100
AcDbSpline
210
0
220
0
230
1
70
8
71
3
72
8
73
4
74
0
42
1e-07
43
1e-07
40
0
40
0
40
0
40
0
40
1
40
1
40
1
40
1
10
165.1335
20
14.298
30
0
10
164.052
20
13.3695
30
0
10
163.51125
20
12.438
30
0
10
163.51125
20
11.502
30
0
0
LWPOLYLINE
5
113
100
AcDbEntity
8
0
6
ByLayer
62
7
370
-1
100
AcDbPolyline
90
2
70
0
43
0
10
169.05525
20
15.68925
10
168.77925
20
15.68925
0
SPLINE
5
114
100
AcDbEntity
8
0
6
ByLayer
62
7
370
-1
100
AcDbSpline
210
0
220
0
230
1
70
8
71
3
72
8
73
4
74
0
42
1e-07
43
1e-07
40
0
40
0
40
0
40
0
40
1
40
1
40
1
40
1
10
163.51125
20
10.78875
30
0
10
163.51125
20
10.221
30
0
10
163.7025
20
9.71475
30
0
10
164.08725
20
9.27
30
0
0
SPLINE
5
115
100
AcDbEntity
8
0
6
ByLayer
62
7
370
-1
100
AcDbSpline
210
0
220
0
230
1
70
8
71
3
72
8
73
4
74
0
42
1e-07
43
1e-07
40
0
40
0
40
0
40
0
40
1
40
1
40
1
40
1
10
164.08725
20
9.27
30
0
10
164.4705
20
8.82525
30
0
10
164.877
20
8.6025
30
0
10
165.306
20
8.6025
30
0
0
LWPOLYLINE
5
116
100
AcDbEntity
8
0
6
ByLayer
62
7
370
-1
100
AcDbPolyline
90
2
70
0
43
0
10
163.51125
20
11.502
10
163.51125
20
10.78875
0
SPLINE
5
117
100
AcDbEntity
8
0
6
ByLayer
62
7
370
-1
100
AcDbSpline
210
0
220
0
230
1
70
8
71
3
72
8
73
4
74
0
42
1e-07
43
1e-07
40
0
40
0
40
0
40
0
40
1
40
1
40
1
40
1
10
166.04175
20
8.55675
30
0
10
167.19225
20
8.55675
30
0
10
168.1665
20
9.11625
30
0
10
168.96375
20
10.23525
30
0
0
SPLINE
5
118
100
AcDbEntity
8
0
6
ByLayer
62
7
370
-1
100
AcDbSpline
210
0
220
0
230
1
70
8
71
3
72
8
73
4
74
0
42
1e-07
43
1e-07
40
0
40
0
40
0
40
0
40
1
40
1
40
1
40
1
10
168.96375
20
10.23525
30
0
10
169.3785
20
10.818
30
0
10
169.58475
20
11.877
30
0
10
169.58475
20
13.41075
30
0
0
LWPOLYLINE
5
119
100
AcDbEntity
8
0
6
ByLayer
62
7
370
-1
100
AcDbPolyline
90
3
70
0
43
0
10
165.306
20
8.6025
10
165.513
20
8.55675
10
166.04175
20
8.55675
0
LWPOLYLINE
5
11A
100
AcDbEntity
8
0
6
ByLayer
62
7
370
-1
100
AcDbPolyline
90
4
70
0
43
0
10
169.58475
20
13.41075
10
169.608
20
13.641
10
169.608
20
14.86125
10
169.608
20
14.86125
0
SPLINE
5
11B
100
AcDbEntity
8
0
6
ByLayer
62
7
370
-1
100
AcDbSpline
210
0
220
0
230
1
70
8
71
3
72
8
73
4
74
0
42
1e-07
43
1e-07
40
0
40
0
40
0
40
0
40
1
40
1
40
1
40
1
10
183.96375
20
28.71225
30
0
10
183.96375
20
30.5985
30
0
10
183.83325
20
31.9755
30
0
10
183.573
20
32.84175
30
0
0
SPLINE
5
11C
100
AcDbEntity
8
0
6
ByLayer
62
7
370
-1
100
AcDbSpline
210
0
220
0
230
1
70
8
71
3
72
8
73
4
74
0
42
1e-07
43
1e-07
40
0
40
0
40
0
40
0
40
1
40
1
40
1
40
1
10
183.573
20
32.84175
30
0
10
183.31125
20
33.70875
30
0
10
182.85525
20
34.39875
30
0
10
182.2035
20
34.9125
30
0
0
SPLINE
5
11D
100
AcDbEntity
8
0
6
ByLayer
62
7
370
-1
100
AcDbSpline
210
0
220
0
230
1
70
8
71
3
72
8
73
4
74
0
42
1e-07
43
1e-07
40
0
40
0
40
0
40
0
40
1
40
1
40
1
40
1
10
182.2035
20
34.9125
30
0
10
181.55175
20
35.427
30
0
10
181.2255
20
35.8605
30
0
10
181.2255
20
36.213
30
0
0
SPLINE
5
11E
100
AcDbEntity
8
0
6
ByLayer
62
7
370
-1
100
AcDbSpline
210
0
220
0
230
1
70
8
71
3
72
8
73
4
74
0
42
1e-07
43
1e-07
40
0
40
0
40
0
40
0
40
1
40
1
40
1
40
1
10
181.2255
20
36.213
30
0
10
181.2255
20
36.91725
30
0
10
181.6785
20
37.43175
30
0
10
182.583
20
37.75425
30
0
0
SPLINE
5
11F
100
AcDbEntity
8
0
6
ByLayer
62
7
370
-1
100
AcDbSpline
210
0
220
0
230
1
70
8
71
3
72
8
73
4
74
0
42
1e-07
43
1e-07
40
0
40
0
40
0
40
0
40
1
40
1
40
1
40
1
10
182.583
20
37.75425
30
0
10
184.1175
20
38.30625
30
0
10
185.85075
20
38.58225
30
0
10
187.7835
20
38.58225
30
0
0
LWPOLYLINE
5
120
100
AcDbEntity
8
0
6
ByLayer
62
7
370
-1
100
AcDbPolyline
90
2
70
0
43
0
10
183.96375
20
25.32975
10
183.96375
20
28.71225
0
SPLINE
5
121
100
AcDbEntity
8
0
6
ByLayer
62
7
370
-1
100
AcDbSpline
210
0
220
0
230
1
70
8
71
3
72
8
73
4
74
0
42
1e-07
43
1e-07
40
0
40
0
40
0
40
0
40
1
40
1
40
1
40
1
10
188.22075
20
38.58225
30
0
10
189.111
20
38.58225
30
0
10
189.63975
20
38.076
30
0
10
189.8085
20
37.0635
30
0
0
SPLINE
5
122
100
AcDbEntity
8
0
6
ByLayer
62
7
370
-1
100
AcDbSpline
210
0
220
0
230
1
70
8
71
3
72
8
73
4
74
0
42
1e-07
43
1e-07
40
0
40
0
40
0
40
0
40
1
40
1
40
1
40
1
10
189.8085
20
37.0635
30
0
10
189.82425
20
36.972
30
0
10
189.831
20
35.0505
30
0
10
189.831
20
31.3005
30
0
0
SPLINE
5
123
100
AcDbEntity
8
0
6
ByLayer
62
7
370
-1
100
AcDbSpline
210
0
220
0
230
1
70
8
71
3
72
8
73
4
74
0
42
1e-07
43
1e-07
40
0
40
0
40
0
40
0
40
1
40
1
40
1
40
1
10
189.831
20
31.3005
30
0
10
189.831
20
27.54975
30
0
10
190.16775
20
25.67475
30
0
10
190.8435
20
25.67475
30
0
0
SPLINE
5
124
100
AcDbEntity
8
0
6
ByLayer
62
7
370
-1
100
AcDbSpline
210
0
220
0
230
1
70
8
71
3
72
8
73
4
74
0
42
1e-07
43
1e-07
40
0
40
0
40
0
40
0
40
1
40
1
40
1
40
1
10
190.8435
20
25.67475
30
0
10
191.1045
20
25.67475
30
0
10
191.787
20
25.85475
30
0
10
192.89025
20
26.21625
30
0
0
SPLINE
5
125
100
AcDbEntity
8
0
6
ByLayer
62
7
370
-1
100
AcDbSpline
210
0
220
0
230
1
70
8
71
3
72
8
73
4
74
0
42
1e-07
43
1e-07
40
0
40
0
40
0
40
0
40
1
40
1
40
1
40
1
10
192.89025
20
26.21625
30
0
10
193.995
20
26.57625
30
0
10
195.123
20
26.75625
30
0
10
196.2735
20
26.75625
30
0
0
SPLINE
5
126
100
AcDbEntity
8
0
6
ByLayer
62
7
370
-1
100
AcDbSpline
210
0
220
0
230
1
70
8
71
3
72
8
73
4
74
0
42
1e-07
43
1e-07
40
0
40
0
40
0
40
0
40
1
40
1
40
1
40
1
10
196.2735
20
26.75625
30
0
10
197.42325
20
26.75625
30
0
10
198.555
20
26.46525
30
0
10
199.6665
20
25.8825
30
0
0
SPLINE
5
127
100
AcDbEntity
8
0
6
ByLayer
62
7
370
-1
100
AcDbSpline
210
0
220
0
230
1
70
8
71
3
72
8
73
4
74
0
42
1e-07
43
1e-07
40
0
40
0
40
0
40
0
40
1
40
1
40
1
40
1
10
199.6665
20
25.8825
30
0
10
200.77875
20
25.29975
30
0
10
201.71775
20
24.5175
30
0
10
202.485
20
23.535
30
0
0
SPLINE
5
128
100
AcDbEntity
8
0
6
ByLayer
62
7
370
-1
100
AcDbSpline
210
0
220
0
230
1
70
8
71
3
72
8
73
4
74
0
42
1e-07
43
1e-07
40
0
40
0
40
0
40
0
40
1
40
1
40
1
40
1
10
202.485
20
23.535
30
0
10
204.0645
20
21.52575
30
0
10
204.85425
20
19.1025
30
0
10
204.85425
20
16.26525
30
0
0
LWPOLYLINE
5
129
100
AcDbEntity
8
0
6
ByLayer
62
7
370
-1
100
AcDbPolyline
90
2
70
0
43
0
10
187.7835
20
38.58225
10
188.22075
20
38.58225
0
SPLINE
5
12A
100
AcDbEntity
8
0
6
ByLayer
62
7
370
-1
100
AcDbSpline
210
0
220
0
230
1
70
8
71
3
72
8
73
4
74
0
42
1e-07
43
1e-07
40
0
40
0
40
0
40
0
40
1
40
1
40
1
40
1
10
204.85425
20
15.66675
30
0
10
204.85425
20
12.783
30
0
10
203.9535
20
10.34025
30
0
10
202.15125
20
8.33925
30
0
0
SPLINE
5
12B
100
AcDbEntity
8
0
6
ByLayer
62
7
370
-1
100
AcDbSpline
210
0
220
0
230
1
70
8
71
3
72
8
73
4
74
0
42
1e-07
43
1e-07
40
0
40
0
40
0
40
0
40
1
40
1
40
1
40
1
10
202.15125
20
8.33925
30
0
10
200.34975
20
6.33675
30
0
10
198.2595
20
5.33625
30
0
10
195.882
20
5.33625
30
0
0
LWPOLYLINE
5
12C
100
AcDbEntity
8
0
6
ByLayer
62
7
370
-1
100
AcDbPolyline
90
2
70
0
43
0
10
204.85425
20
16.26525
10
204.85425
20
15.66675
0
SPLINE
5
12D
100
AcDbEntity
8
0
6
ByLayer
62
7
370
-1
100
AcDbSpline
210
0
220
0
230
1
70
8
71
3
72
8
73
4
74
0
42
1e-07
43
1e-07
40
0
40
0
40
0
40
0
40
1
40
1
40
1
40
1
10
195.35325
20
5.33625
30
0
10
194.63175
20
5.33625
30
0
10
193.43175
20
5.52
30
0
10
191.7525
20
5.88825
30
0
0
SPLINE
5
12E
100
AcDbEntity
8
0
6
ByLayer
62
7
370
-1
100
AcDbSpline
210
0
220
0
230
1
70
8
71
3
72
8
73
4
74
0
42
1e-07
43
1e-07
40
0
40
0
40
0
40
0
40
1
40
1
40
1
40
1
10
191.7525
20
5.88825
30
0
10
190.07325
20
6.25575
30
0
10
189.2175
20
6.44025
30
0
10
189.18675
20
6.44025
30
0
0
LWPOLYLINE
5
12F
100
AcDbEntity
8
0
6
ByLayer
62
7
370
-1
100
AcDbPolyline
90
2
70
0
43
0
10
195.882
20
5.33625
10
195.35325
20
5.33625
0
SPLINE
5
130
100
AcDbEntity
8
0
6
ByLayer
62
7
370
-1
100
AcDbSpline
210
0
220
0
230
1
70
8
71
3
72
8
73
4
74
0
42
1e-07
43
1e-07
40
0
40
0
40
0
40
0
40
1
40
1
40
1
40
1
10
186.633
20
6.072
30
0
10
185.49825
20
6.072
30
0
10
184.785
20
6.40875
30
0
10
184.49325
20
7.08525
30
0
0
SPLINE
5
131
100
AcDbEntity
8
0
6
ByLayer
62
7
370
-1
100
AcDbSpline
210
0
220
0
230
1
70
8
71
3
72
8
73
4
74
0
42
1e-07
43
1e-07
40
0
40
0
40
0
40
0
40
1
40
1
40
1
40
1
10
184.49325
20
7.08525
30
0
10
184.2015
20
7.7595
30
0
10
184.056
20
9.33975
30
0
10
184.056
20
11.82375
30
0
0
LWPOLYLINE
5
132
100
AcDbEntity
8
0
6
ByLayer
62
7
370
-1
100
AcDbPolyline
90
2
70
0
43
0
10
189.18675
20
6.44025
10
186.633
20
6.072
0
SPLINE
5
133
100
AcDbEntity
8
0
6
ByLayer
62
7
370
-1
100
AcDbSpline
210
0
220
0
230
1
70
8
71
3
72
8
73
4
74
0
42
1e-07
43
1e-07
40
0
40
0
40
0
40
0
40
1
40
1
40
1
40
1
10
184.17075
20
18.21975
30
0
10
184.14
20
18.97125
30
0
10
184.12425
20
19.524
30
0
10
184.12425
20
19.8765
30
0
0
LWPOLYLINE
5
134
100
AcDbEntity
8
0
6
ByLayer
62
7
370
-1
100
AcDbPolyline
90
3
70
0
43
0
10
184.056
20
11.82375
10
184.2165
20
17.0925
10
184.17075
20
18.21975
0
SPLINE
5
135
100
AcDbEntity
8
0
6
ByLayer
62
7
370
-1
100
AcDbSpline
210
0
220
0
230
1
70
8
71
3
72
8
73
4
74
0
42
1e-07
43
1e-07
40
0
40
0
40
0
40
0
40
1
40
1
40
1
40
1
10
184.0785
20
20.95725
30
0
10
184.06275
20
21.3255
30
0
10
184.05525
20
21.693
30
0
10
184.05525
20
22.062
30
0
0
LWPOLYLINE
5
136
100
AcDbEntity
8
0
6
ByLayer
62
7
370
-1
100
AcDbPolyline
90
2
70
0
43
0
10
184.12425
20
19.8765
10
184.0785
20
20.95725
0
SPLINE
5
137
100
AcDbEntity
8
0
6
ByLayer
62
7
370
-1
100
AcDbSpline
210
0
220
0
230
1
70
8
71
3
72
8
73
4
74
0
42
1e-07
43
1e-07
40
0
40
0
40
0
40
0
40
1
40
1
40
1
40
1
10
190.383
20
12.88275
30
0
10
190.383
20
11.487
30
0
10
190.71
20
10.31775
30
0
10
191.36175
20
9.37425
30
0
0
SPLINE
5
138
100
AcDbEntity
8
0
6
ByLayer
62
7
370
-1
100
AcDbSpline
210
0
220
0
230
1
70
8
71
3
72
8
73
4
74
0
42
1e-07
43
1e-07
40
0
40
0
40
0
40
0
40
1
40
1
40
1
40
1
10
191.36175
20
9.37425
30
0
10
192.01275
20
8.43075
30
0
10
192.8685
20
7.959
30
0
10
193.9275
20
7.959
30
0
0
LWPOLYLINE
5
139
100
AcDbEntity
8
0
6
ByLayer
62
7
370
-1
100
AcDbPolyline
90
4
70
0
43
0
10
184.05525
20
22.062
10
184.0095
20
23.16675
10
183.96375
20
25.32975
10
183.96375
20
25.32975
0
SPLINE
5
13A
100
AcDbEntity
8
0
6
ByLayer
62
7
370
-1
100
AcDbSpline
210
0
220
0
230
1
70
8
71
3
72
8
73
4
74
0
42
1e-07
43
1e-07
40
0
40
0
40
0
40
0
40
1
40
1
40
1
40
1
10
194.502
20
7.959
30
0
10
195.63825
20
7.959
30
0
10
196.623
20
8.6415
30
0
10
197.4585
20
10.00575
30
0
0
SPLINE
5
13B
100
AcDbEntity
8
0
6
ByLayer
62
7
370
-1
100
AcDbSpline
210
0
220
0
230
1
70
8
71
3
72
8
73
4
74
0
42
1e-07
43
1e-07
40
0
40
0
40
0
40
0
40
1
40
1
40
1
40
1
10
197.4585
20
10.00575
30
0
10
198.29475
20
11.3715
30
0
10
198.71325
20
13.08225
30
0
10
198.71325
20
15.13725
30
0
0
LWPOLYLINE
5
13C
100
AcDbEntity
8
0
6
ByLayer
62
7
370
-1
100
AcDbPolyline
90
2
70
0
43
0
10
193.9275
20
7.959
10
194.502
20
7.959
0
SPLINE
5
13D
100
AcDbEntity
8
0
6
ByLayer
62
7
370
-1
100
AcDbSpline
210
0
220
0
230
1
70
8
71
3
72
8
73
4
74
0
42
1e-07
43
1e-07
40
0
40
0
40
0
40
0
40
1
40
1
40
1
40
1
10
198.71325
20
16.37925
30
0
10
198.71325
20
18.45
30
0
10
198.2835
20
20.18325
30
0
10
197.424
20
21.57975
30
0
0
SPLINE
5
13E
100
AcDbEntity
8
0
6
ByLayer
62
7
370
-1
100
AcDbSpline
210
0
220
0
230
1
70
8
71
3
72
8
73
4
74
0
42
1e-07
43
1e-07
40
0
40
0
40
0
40
0
40
1
40
1
40
1
40
1
10
197.424
20
21.57975
30
0
10
196.5645
20
22.97625
30
0
10
195.5835
20
23.673
30
0
10
194.47875
20
23.673
30
0
0
LWPOLYLINE
5
13F
100
AcDbEntity
8
0
6
ByLayer
62
7
370
-1
100
AcDbPolyline
90
2
70
0
43
0
10
198.71325
20
15.13725
10
198.71325
20
16.37925
0
SPLINE
5
140
100
AcDbEntity
8
0
6
ByLayer
62
7
370
-1
100
AcDbSpline
210
0
220
0
230
1
70
8
71
3
72
8
73
4
74
0
42
1e-07
43
1e-07
40
0
40
0
40
0
40
0
40
1
40
1
40
1
40
1
10
193.95
20
23.673
30
0
10
192.891
20
23.673
30
0
10
192.0405
20
23.25525
30
0
10
191.39625
20
22.419
30
0
0
SPLINE
5
141
100
AcDbEntity
8
0
6
ByLayer
62
7
370
-1
100
AcDbSpline
210
0
220
0
230
1
70
8
71
3
72
8
73
4
74
0
42
1e-07
43
1e-07
40
0
40
0
40
0
40
0
40
1
40
1
40
1
40
1
10
191.39625
20
22.419
30
0
10
190.752
20
21.5835
30
0
10
190.4295
20
20.45175
30
0
10
190.4295
20
19.026
30
0
0
SPLINE
5
142
100
AcDbEntity
8
0
6
ByLayer
62
7
370
-1
100
AcDbSpline
210
0
220
0
230
1
70
8
71
3
72
8
73
4
74
0
42
1e-07
43
1e-07
40
0
40
0
40
0
40
0
40
1
40
1
40
1
40
1
10
190.4295
20
19.026
30
0
10
190.383
20
18.61125
30
0
10
190.3605
20
18.39675
30
0
10
190.3605
20
18.38175
30
0
0
LWPOLYLINE
5
143
100
AcDbEntity
8
0
6
ByLayer
62
7
370
-1
100
AcDbPolyline
90
2
70
0
43
0
10
194.47875
20
23.673
10
193.95
20
23.673
0
SPLINE
5
144
100
AcDbEntity
8
0
6
ByLayer
62
7
370
-1
100
AcDbSpline
210
0
220
0
230
1
70
8
71
3
72
8
73
4
74
0
42
1e-07
43
1e-07
40
0
40
0
40
0
40
0
40
1
40
1
40
1
40
1
10
190.2915
20
15.27525
30
0
10
190.2915
20
15.12225
30
0
10
190.2915
20
14.96925
30
0
10
190.2915
20
14.8155
30
0
0
LWPOLYLINE
5
145
100
AcDbEntity
8
0
6
ByLayer
62
7
370
-1
100
AcDbPolyline
90
6
70
0
43
0
10
190.3605
20
18.38175
10
190.2915
20
16.86375
10
190.2915
20
16.4265
10
190.269
20
15.73575
10
190.269
20
15.5055
10
190.2915
20
15.27525
0
SPLINE
5
146
100
AcDbEntity
8
0
6
ByLayer
62
7
370
-1
100
AcDbSpline
210
0
220
0
230
1
70
8
71
3
72
8
73
4
74
0
42
1e-07
43
1e-07
40
0
40
0
40
0
40
0
40
1
40
1
40
1
40
1
10
190.3605
20
13.2975
30
0
10
190.3755
20
13.143
30
0
10
190.383
20
13.00575
30
0
10
190.383
20
12.88275
30
0
0
LWPOLYLINE
5
147
100
AcDbEntity
8
0
6
ByLayer
62
7
370
-1
100
AcDbPolyline
90
2
70
0
43
0
10
190.2915
20
14.8155
10
190.3605
20
13.2975
0
SPLINE
5
148
100
AcDbEntity
8
0
6
ByLayer
62
7
370
-1
100
AcDbSpline
210
0
220
0
230
1
70
8
71
3
72
8
73
4
74
0
42
1e-07
43
1e-07
40
0
40
0
40
0
40
0
40
1
40
1
40
1
40
1
10
211.458
20
5.75025
30
0
10
210.4605
20
5.75025
30
0
10
209.805
20
6.084
30
0
10
209.49075
20
6.7515
30
0
0
SPLINE
5
149
100
AcDbEntity
8
0
6
ByLayer
62
7
370
-1
100
AcDbSpline
210
0
220
0
230
1
70
8
71
3
72
8
73
4
74
0
42
1e-07
43
1e-07
40
0
40
0
40
0
40
0
40
1
40
1
40
1
40
1
10
209.49075
20
6.7515
30
0
10
209.1765
20
7.419
30
0
10
209.019
20
8.64225
30
0
10
209.019
20
10.42125
30
0
0
LWPOLYLINE
5
14A
100
AcDbEntity
8
0
6
ByLayer
62
7
370
-1
100
AcDbPolyline
90
1
70
1
43
0
10
190.383
20
12.88275
0
SPLINE
5
14B
100
AcDbEntity
8
0
6
ByLayer
62
7
370
-1
100
AcDbSpline
210
0
220
0
230
1
70
8
71
3
72
8
73
4
74
0
42
1e-07
43
1e-07
40
0
40
0
40
0
40
0
40
1
40
1
40
1
40
1
10
209.019
20
10.97325
30
0
10
209.019
20
11.80125
30
0
10
209.32575
20
12.21525
30
0
10
209.93925
20
12.21525
30
0
0
SPLINE
5
14C
100
AcDbEntity
8
0
6
ByLayer
62
7
370
-1
100
AcDbSpline
210
0
220
0
230
1
70
8
71
3
72
8
73
4
74
0
42
1e-07
43
1e-07
40
0
40
0
40
0
40
0
40
1
40
1
40
1
40
1
10
209.93925
20
12.21525
30
0
10
210.44625
20
12.21525
30
0
10
211.25925
20
11.65575
30
0
10
212.37825
20
10.53675
30
0
0
SPLINE
5
14D
100
AcDbEntity
8
0
6
ByLayer
62
7
370
-1
100
AcDbSpline
210
0
220
0
230
1
70
8
71
3
72
8
73
4
74
0
42
1e-07
43
1e-07
40
0
40
0
40
0
40
0
40
1
40
1
40
1
40
1
10
212.37825
20
10.53675
30
0
10
213.49875
20
9.41625
30
0
10
214.39275
20
8.66475
30
0
10
215.05875
20
8.2815
30
0
0
SPLINE
5
14E
100
AcDbEntity
8
0
6
ByLayer
62
7
370
-1
100
AcDbSpline
210
0
220
0
230
1
70
8
71
3
72
8
73
4
74
0
42
1e-07
43
1e-07
40
0
40
0
40
0
40
0
40
1
40
1
40
1
40
1
10
215.05875
20
8.2815
30
0
10
215.72625
20
7.89825
30
0
10
216.5505
20
7.7055
30
0
10
217.533
20
7.7055
30
0
0
SPLINE
5
14F
100
AcDbEntity
8
0
6
ByLayer
62
7
370
-1
100
AcDbSpline
210
0
220
0
230
1
70
8
71
3
72
8
73
4
74
0
42
1e-07
43
1e-07
40
0
40
0
40
0
40
0
40
1
40
1
40
1
40
1
10
217.533
20
7.7055
30
0
10
218.51475
20
7.7055
30
0
10
219.35775
20
7.917
30
0
10
220.0635
20
8.33925
30
0
0
SPLINE
5
150
100
AcDbEntity
8
0
6
ByLayer
62
7
370
-1
100
AcDbSpline
210
0
220
0
230
1
70
8
71
3
72
8
73
4
74
0
42
1e-07
43
1e-07
40
0
40
0
40
0
40
0
40
1
40
1
40
1
40
1
10
220.0635
20
8.33925
30
0
10
220.7685
20
8.76075
30
0
10
221.121
20
9.4125
30
0
10
221.121
20
10.29375
30
0
0
SPLINE
5
151
100
AcDbEntity
8
0
6
ByLayer
62
7
370
-1
100
AcDbSpline
210
0
220
0
230
1
70
8
71
3
72
8
73
4
74
0
42
1e-07
43
1e-07
40
0
40
0
40
0
40
0
40
1
40
1
40
1
40
1
10
221.121
20
10.29375
30
0
10
221.121
20
11.175
30
0
10
220.7415
20
11.871
30
0
10
219.9825
20
12.3765
30
0
0
SPLINE
5
152
100
AcDbEntity
8
0
6
ByLayer
62
7
370
-1
100
AcDbSpline
210
0
220
0
230
1
70
8
71
3
72
8
73
4
74
0
42
1e-07
43
1e-07
40
0
40
0
40
0
40
0
40
1
40
1
40
1
40
1
10
219.9825
20
12.3765
30
0
10
219.22275
20
12.882
30
0
10
217.80825
20
13.5375
30
0
10
215.7375
20
14.343
30
0
0
SPLINE
5
153
100
AcDbEntity
8
0
6
ByLayer
62
7
370
-1
100
AcDbSpline
210
0
220
0
230
1
70
8
71
3
72
8
73
4
74
0
42
1e-07
43
1e-07
40
0
40
0
40
0
40
0
40
1
40
1
40
1
40
1
10
215.7375
20
14.343
30
0
10
213.66675
20
15.14775
30
0
10
212.202
20
15.9645
30
0
10
211.34325
20
16.794
30
0
0
SPLINE
5
154
100
AcDbEntity
8
0
6
ByLayer
62
7
370
-1
100
AcDbSpline
210
0
220
0
230
1
70
8
71
3
72
8
73
4
74
0
42
1e-07
43
1e-07
40
0
40
0
40
0
40
0
40
1
40
1
40
1
40
1
10
211.34325
20
16.794
30
0
10
210.0855
20
18.021
30
0
10
209.457
20
19.5285
30
0
10
209.457
20
21.31425
30
0
0
SPLINE
5
155
100
AcDbEntity
8
0
6
ByLayer
62
7
370
-1
100
AcDbSpline
210
0
220
0
230
1
70
8
71
3
72
8
73
4
74
0
42
1e-07
43
1e-07
40
0
40
0
40
0
40
0
40
1
40
1
40
1
40
1
10
209.457
20
21.31425
30
0
10
209.457
20
23.1015
30
0
10
210.20775
20
24.59325
30
0
10
211.71075
20
25.7895
30
0
0
SPLINE
5
156
100
AcDbEntity
8
0
6
ByLayer
62
7
370
-1
100
AcDbSpline
210
0
220
0
230
1
70
8
71
3
72
8
73
4
74
0
42
1e-07
43
1e-07
40
0
40
0
40
0
40
0
40
1
40
1
40
1
40
1
10
211.71075
20
25.7895
30
0
10
213.2145
20
26.98575
30
0
10
214.94025
20
27.58425
30
0
10
216.888
20
27.58425
30
0
0
LWPOLYLINE
5
157
100
AcDbEntity
8
0
6
ByLayer
62
7
370
-1
100
AcDbPolyline
90
2
70
0
43
0
10
209.019
20
10.42125
10
209.019
20
10.97325
0
SPLINE
5
158
100
AcDbEntity
8
0
6
ByLayer
62
7
370
-1
100
AcDbSpline
210
0
220
0
230
1
70
8
71
3
72
8
73
4
74
0
42
1e-07
43
1e-07
40
0
40
0
40
0
40
0
40
1
40
1
40
1
40
1
10
217.53225
20
27.58425
30
0
10
218.1915
20
27.58425
30
0
10
218.9775
20
27.50025
30
0
10
219.89025
20
27.3315
30
0
0
SPLINE
5
159
100
AcDbEntity
8
0
6
ByLayer
62
7
370
-1
100
AcDbSpline
210
0
220
0
230
1
70
8
71
3
72
8
73
4
74
0
42
1e-07
43
1e-07
40
0
40
0
40
0
40
0
40
1
40
1
40
1
40
1
10
219.89025
20
27.3315
30
0
10
220.803
20
27.16275
30
0
10
221.79225
20
27.07875
30
0
10
222.858
20
27.07875
30
0
0
SPLINE
5
15A
100
AcDbEntity
8
0
6
ByLayer
62
7
370
-1
100
AcDbSpline
210
0
220
0
230
1
70
8
71
3
72
8
73
4
74
0
42
1e-07
43
1e-07
40
0
40
0
40
0
40
0
40
1
40
1
40
1
40
1
10
222.858
20
27.07875
30
0
10
223.92375
20
27.07875
30
0
10
224.61825
20
26.829
30
0
10
224.94
20
26.33025
30
0
0
SPLINE
5
15B
100
AcDbEntity
8
0
6
ByLayer
62
7
370
-1
100
AcDbSpline
210
0
220
0
230
1
70
8
71
3
72
8
73
4
74
0
42
1e-07
43
1e-07
40
0
40
0
40
0
40
0
40
1
40
1
40
1
40
1
10
224.94
20
26.33025
30
0
10
225.2625
20
25.83225
30
0
10
225.42375
20
24.4635
30
0
10
225.42375
20
22.22325
30
0
0
SPLINE
5
15C
100
AcDbEntity
8
0
6
ByLayer
62
7
370
-1
100
AcDbSpline
210
0
220
0
230
1
70
8
71
3
72
8
73
4
74
0
42
1e-07
43
1e-07
40
0
40
0
40
0
40
0
40
1
40
1
40
1
40
1
10
225.42375
20
22.22325
30
0
10
225.42375
20
21.564
30
0
10
225.1785
20
21.234
30
0
10
224.688
20
21.234
30
0
0
SPLINE
5
15D
100
AcDbEntity
8
0
6
ByLayer
62
7
370
-1
100
AcDbSpline
210
0
220
0
230
1
70
8
71
3
72
8
73
4
74
0
42
1e-07
43
1e-07
40
0
40
0
40
0
40
0
40
1
40
1
40
1
40
1
10
224.688
20
21.234
30
0
10
224.19675
20
21.234
30
0
10
223.2075
20
21.85575
30
0
10
221.72025
20
23.09775
30
0
0
SPLINE
5
15E
100
AcDbEntity
8
0
6
ByLayer
62
7
370
-1
100
AcDbSpline
210
0
220
0
230
1
70
8
71
3
72
8
73
4
74
0
42
1e-07
43
1e-07
40
0
40
0
40
0
40
0
40
1
40
1
40
1
40
1
10
221.72025
20
23.09775
30
0
10
220.23225
20
24.33975
30
0
10
218.98875
20
24.9615
30
0
10
217.99275
20
24.9615
30
0
0
SPLINE
5
15F
100
AcDbEntity
8
0
6
ByLayer
62
7
370
-1
100
AcDbSpline
210
0
220
0
230
1
70
8
71
3
72
8
73
4
74
0
42
1e-07
43
1e-07
40
0
40
0
40
0
40
0
40
1
40
1
40
1
40
1
10
217.99275
20
24.9615
30
0
10
216.99525
20
24.9615
30
0
10
216.156
20
24.77325
30
0
10
215.4735
20
24.3975
30
0
0
SPLINE
5
160
100
AcDbEntity
8
0
6
ByLayer
62
7
370
-1
100
AcDbSpline
210
0
220
0
230
1
70
8
71
3
72
8
73
4
74
0
42
1e-07
43
1e-07
40
0
40
0
40
0
40
0
40
1
40
1
40
1
40
1
10
215.4735
20
24.3975
30
0
10
214.791
20
24.02175
30
0
10
214.44975
20
23.41275
30
0
10
214.44975
20
22.56825
30
0
0
SPLINE
5
161
100
AcDbEntity
8
0
6
ByLayer
62
7
370
-1
100
AcDbSpline
210
0
220
0
230
1
70
8
71
3
72
8
73
4
74
0
42
1e-07
43
1e-07
40
0
40
0
40
0
40
0
40
1
40
1
40
1
40
1
10
214.44975
20
22.56825
30
0
10
214.44975
20
21.72525
30
0
10
214.99425
20
20.99625
30
0
10
216.08325
20
20.38275
30
0
0
SPLINE
5
162
100
AcDbEntity
8
0
6
ByLayer
62
7
370
-1
100
AcDbSpline
210
0
220
0
230
1
70
8
71
3
72
8
73
4
74
0
42
1e-07
43
1e-07
40
0
40
0
40
0
40
0
40
1
40
1
40
1
40
1
10
216.08325
20
20.38275
30
0
10
216.1755
20
20.33625
30
0
10
217.37175
20
19.84575
30
0
10
219.67275
20
18.90975
30
0
0
SPLINE
5
163
100
AcDbEntity
8
0
6
ByLayer
62
7
370
-1
100
AcDbSpline
210
0
220
0
230
1
70
8
71
3
72
8
73
4
74
0
42
1e-07
43
1e-07
40
0
40
0
40
0
40
0
40
1
40
1
40
1
40
1
10
219.67275
20
18.90975
30
0
10
221.973
20
17.97525
30
0
10
223.56825
20
17.0925
30
0
10
224.4585
20
16.2645
30
0
0
SPLINE
5
164
100
AcDbEntity
8
0
6
ByLayer
62
7
370
-1
100
AcDbSpline
210
0
220
0
230
1
70
8
71
3
72
8
73
4
74
0
42
1e-07
43
1e-07
40
0
40
0
40
0
40
0
40
1
40
1
40
1
40
1
10
224.4585
20
16.2645
30
0
10
225.71625
20
15.08325
30
0
10
226.34475
20
13.6875
30
0
10
226.34475
20
12.0765
30
0
0
LWPOLYLINE
5
165
100
AcDbEntity
8
0
6
ByLayer
62
7
370
-1
100
AcDbPolyline
90
2
70
0
43
0
10
216.888
20
27.58425
10
217.53225
20
27.58425
0
SPLINE
5
166
100
AcDbEntity
8
0
6
ByLayer
62
7
370
-1
100
AcDbSpline
210
0
220
0
230
1
70
8
71
3
72
8
73
4
74
0
42
1e-07
43
1e-07
40
0
40
0
40
0
40
0
40
1
40
1
40
1
40
1
10
226.34475
20
11.45625
30
0
10
226.34475
20
9.73875
30
0
10
225.56325
20
8.2545
30
0
10
223.998
20
7.0035
30
0
0
SPLINE
5
167
100
AcDbEntity
8
0
6
ByLayer
62
7
370
-1
100
AcDbSpline
210
0
220
0
230
1
70
8
71
3
72
8
73
4
74
0
42
1e-07
43
1e-07
40
0
40
0
40
0
40
0
40
1
40
1
40
1
40
1
10
223.998
20
7.0035
30
0
10
222.4335
20
5.754
30
0
10
220.53975
20
5.1285
30
0
10
218.31525
20
5.1285
30
0
0
LWPOLYLINE
5
168
100
AcDbEntity
8
0
6
ByLayer
62
7
370
-1
100
AcDbPolyline
90
2
70
0
43
0
10
226.34475
20
12.0765
10
226.34475
20
11.45625
0
SPLINE
5
169
100
AcDbEntity
8
0
6
ByLayer
62
7
370
-1
100
AcDbSpline
210
0
220
0
230
1
70
8
71
3
72
8
73
4
74
0
42
1e-07
43
1e-07
40
0
40
0
40
0
40
0
40
1
40
1
40
1
40
1
10
217.671
20
5.1285
30
0
10
217.1955
20
5.1285
30
0
10
216.303
20
5.2395
30
0
10
214.99125
20
5.46225
30
0
0
SPLINE
5
16A
100
AcDbEntity
8
0
6
ByLayer
62
7
370
-1
100
AcDbSpline
210
0
220
0
230
1
70
8
71
3
72
8
73
4
74
0
42
1e-07
43
1e-07
40
0
40
0
40
0
40
0
40
1
40
1
40
1
40
1
10
214.99125
20
5.46225
30
0
10
213.6795
20
5.685
30
0
10
212.98575
20
5.79525
30
0
10
212.91
20
5.79525
30
0
0
LWPOLYLINE
5
16B
100
AcDbEntity
8
0
6
ByLayer
62
7
370
-1
100
AcDbPolyline
90
2
70
0
43
0
10
218.31525
20
5.1285
10
217.671
20
5.1285
0
SPLINE
5
16C
100
AcDbEntity
8
0
6
ByLayer
62
7
370
-1
100
AcDbSpline
210
0
220
0
230
1
70
8
71
3
72
8
73
4
74
0
42
1e-07
43
1e-07
40
0
40
0
40
0
40
0
40
1
40
1
40
1
40
1
10
212.403
20
5.77275
30
0
10
212.079
20
5.7585
30
0
10
211.7655
20
5.75025
30
0
10
211.458
20
5.75025
30
0
0
LWPOLYLINE
5
16D
100
AcDbEntity
8
0
6
ByLayer
62
7
370
-1
100
AcDbPolyline
90
2
70
0
43
0
10
212.91
20
5.79525
10
212.403
20
5.77275
0
LWPOLYLINE
5
16E
100
AcDbEntity
8
0
6
ByLayer
62
7
370
-1
100
AcDbPolyline
90
1
70
1
43
0
10
211.458
20
5.75025
0
LWPOLYLINE
5
16F
100
AcDbEntity
8
0
6
ByLayer
62
7
370
-1
100
AcDbPolyline
90
1
70
1
43
0
10
27.6975
20
5.6415
0
LWPOLYLINE
5
170
100
AcDbEntity
8
0
6
ByLayer
62
7
370
-1
100
AcDbPolyline
90
1
70
1
43
0
10
51.42375
20
13.608
0
LWPOLYLINE
5
171
100
AcDbEntity
8
0
6
ByLayer
62
7
370
-1
100
AcDbPolyline
90
1
70
1
43
0
10
67.91925
20
31.80975
0
SPLINE
5
172
100
AcDbEntity
8
0
6
ByLayer
62
7
370
-1
100
AcDbSpline
210
0
220
0
230
1
70
8
71
3
72
8
73
4
74
0
42
1e-07
43
1e-07
40
0
40
0
40
0
40
0
40
1
40
1
40
1
40
1
10
98.0595
20
12.39975
30
0
10
98.0595
20
11.6655
30
0
10
97.839
20
10.88175
30
0
10
97.40025
20
10.0455
30
0
0
SPLINE
5
173
100
AcDbEntity
8
0
6
ByLayer
62
7
370
-1
100
AcDbSpline
210
0
220
0
230
1
70
8
71
3
72
8
73
4
74
0
42
1e-07
43
1e-07
40
0
40
0
40
0
40
0
40
1
40
1
40
1
40
1
10
97.40025
20
10.0455
30
0
10
96.96225
20
9.2115
30
0
10
96.2925
20
8.41575
30
0
10
95.3925
20
7.6605
30
0
0
SPLINE
5
174
100
AcDbEntity
8
0
6
ByLayer
62
7
370
-1
100
AcDbSpline
210
0
220
0
230
1
70
8
71
3
72
8
73
4
74
0
42
1e-07
43
1e-07
40
0
40
0
40
0
40
0
40
1
40
1
40
1
40
1
10
95.3925
20
7.6605
30
0
10
94.49325
20
6.9045
30
0
10
93.36
20
6.29625
30
0
10
91.992
20
5.835
30
0
0
SPLINE
5
175
100
AcDbEntity
8
0
6
ByLayer
62
7
370
-1
100
AcDbSpline
210
0
220
0
230
1
70
8
71
3
72
8
73
4
74
0
42
1e-07
43
1e-07
40
0
40
0
40
0
40
0
40
1
40
1
40
1
40
1
10
91.992
20
5.835
30
0
10
90.62475
20
5.376
30
0
10
89.085
20
5.145
30
0
10
87.372
20
5.145
30
0
0
SPLINE
5
176
100
AcDbEntity
8
0
6
ByLayer
62
7
370
-1
100
AcDbSpline
210
0
220
0
230
1
70
8
71
3
72
8
73
4
74
0
42
1e-07
43
1e-07
40
0
40
0
40
0
40
0
40
1
40
1
40
1
40
1
10
87.372
20
5.145
30
0
10
83.73075
20
5.145
30
0
10
80.8875
20
6.20625
30
0
10
78.84375
20
8.3295
30
0
0
SPLINE
5
177
100
AcDbEntity
8
0
6
ByLayer
62
7
370
-1
100
AcDbSpline
210
0
220
0
230
1
70
8
71
3
72
8
73
4
74
0
42
1e-07
43
1e-07
40
0
40
0
40
0
40
0
40
1
40
1
40
1
40
1
10
78.84375
20
8.3295
30
0
10
76.8
20
10.45275
30
0
10
75.7785
20
13.29825
30
0
10
75.7785
20
16.869
30
0
0
SPLINE
5
178
100
AcDbEntity
8
0
6
ByLayer
62
7
370
-1
100
AcDbSpline
210
0
220
0
230
1
70
8
71
3
72
8
73
4
74
0
42
1e-07
43
1e-07
40
0
40
0
40
0
40
0
40
1
40
1
40
1
40
1
10
75.7785
20
16.869
30
0
10
75.7785
20
19.2855
30
0
10
76.2465
20
21.42375
30
0
10
77.18175
20
23.28
30
0
0
SPLINE
5
179
100
AcDbEntity
8
0
6
ByLayer
62
7
370
-1
100
AcDbSpline
210
0
220
0
230
1
70
8
71
3
72
8
73
4
74
0
42
1e-07
43
1e-07
40
0
40
0
40
0
40
0
40
1
40
1
40
1
40
1
10
77.18175
20
23.28
30
0
10
78.11775
20
25.13775
30
0
10
79.47
20
26.5725
30
0
10
81.24075
20
27.588
30
0
0
SPLINE
5
17A
100
AcDbEntity
8
0
6
ByLayer
62
7
370
-1
100
AcDbSpline
210
0
220
0
230
1
70
8
71
3
72
8
73
4
74
0
42
1e-07
43
1e-07
40
0
40
0
40
0
40
0
40
1
40
1
40
1
40
1
10
81.24075
20
27.588
30
0
10
83.01075
20
28.602
30
0
10
85.12725
20
29.10825
30
0
10
87.588
20
29.10825
30
0
0
SPLINE
5
17B
100
AcDbEntity
8
0
6
ByLayer
62
7
370
-1
100
AcDbSpline
210
0
220
0
230
1
70
8
71
3
72
8
73
4
74
0
42
1e-07
43
1e-07
40
0
40
0
40
0
40
0
40
1
40
1
40
1
40
1
10
87.588
20
29.10825
30
0
10
89.11425
20
29.10825
30
0
10
90.513
20
28.88625
30
0
10
91.78725
20
28.43925
30
0
0
SPLINE
5
17C
100
AcDbEntity
8
0
6
ByLayer
62
7
370
-1
100
AcDbSpline
210
0
220
0
230
1
70
8
71
3
72
8
73
4
74
0
42
1e-07
43
1e-07
40
0
40
0
40
0
40
0
40
1
40
1
40
1
40
1
10
91.78725
20
28.43925
30
0
10
93.0615
20
27.99375
30
0
10
94.1415
20
27.41775
30
0
10
95.02575
20
26.71125
30
0
0
SPLINE
5
17D
100
AcDbEntity
8
0
6
ByLayer
62
7
370
-1
100
AcDbSpline
210
0
220
0
230
1
70
8
71
3
72
8
73
4
74
0
42
1e-07
43
1e-07
40
0
40
0
40
0
40
0
40
1
40
1
40
1
40
1
10
95.02575
20
26.71125
30
0
10
95.9115
20
26.00775
30
0
10
96.588
20
25.2555
30
0
10
97.05525
20
24.45525
30
0
0
SPLINE
5
17E
100
AcDbEntity
8
0
6
ByLayer
62
7
370
-1
100
AcDbSpline
210
0
220
0
230
1
70
8
71
3
72
8
73
4
74
0
42
1e-07
43
1e-07
40
0
40
0
40
0
40
0
40
1
40
1
40
1
40
1
10
97.05525
20
24.45525
30
0
10
97.52325
20
23.658
30
0
10
97.75725
20
22.9125
30
0
10
97.75725
20
22.221
30
0
0
SPLINE
5
17F
100
AcDbEntity
8
0
6
ByLayer
62
7
370
-1
100
AcDbSpline
210
0
220
0
230
1
70
8
71
3
72
8
73
4
74
0
42
1e-07
43
1e-07
40
0
40
0
40
0
40
0
40
1
40
1
40
1
40
1
10
97.75725
20
22.221
30
0
10
97.75725
20
21.5175
30
0
10
97.49475
20
20.919
30
0
10
96.96975
20
20.42925
30
0
0
SPLINE
5
180
100
AcDbEntity
8
0
6
ByLayer
62
7
370
-1
100
AcDbSpline
210
0
220
0
230
1
70
8
71
3
72
8
73
4
74
0
42
1e-07
43
1e-07
40
0
40
0
40
0
40
0
40
1
40
1
40
1
40
1
10
96.96975
20
20.42925
30
0
10
96.444
20
19.9395
30
0
10
95.808
20
19.695
30
0
10
95.0595
20
19.695
30
0
0
SPLINE
5
181
100
AcDbEntity
8
0
6
ByLayer
62
7
370
-1
100
AcDbSpline
210
0
220
0
230
1
70
8
71
3
72
8
73
4
74
0
42
1e-07
43
1e-07
40
0
40
0
40
0
40
0
40
1
40
1
40
1
40
1
10
95.0595
20
19.695
30
0
10
94.5705
20
19.695
30
0
10
94.1625
20
19.821
30
0
10
93.84
20
20.07225
30
0
0
SPLINE
5
182
100
AcDbEntity
8
0
6
ByLayer
62
7
370
-1
100
AcDbSpline
210
0
220
0
230
1
70
8
71
3
72
8
73
4
74
0
42
1e-07
43
1e-07
40
0
40
0
40
0
40
0
40
1
40
1
40
1
40
1
10
93.84
20
20.07225
30
0
10
93.516
20
20.325
30
0
10
93.15225
20
20.7315
30
0
10
92.7495
20
21.2925
30
0
0
SPLINE
5
183
100
AcDbEntity
8
0
6
ByLayer
62
7
370
-1
100
AcDbSpline
210
0
220
0
230
1
70
8
71
3
72
8
73
4
74
0
42
1e-07
43
1e-07
40
0
40
0
40
0
40
0
40
1
40
1
40
1
40
1
10
92.7495
20
21.2925
30
0
10
92.03025
20
22.38675
30
0
10
91.278
20
23.20725
30
0
10
90.4935
20
23.75325
30
0
0
SPLINE
5
184
100
AcDbEntity
8
0
6
ByLayer
62
7
370
-1
100
AcDbSpline
210
0
220
0
230
1
70
8
71
3
72
8
73
4
74
0
42
1e-07
43
1e-07
40
0
40
0
40
0
40
0
40
1
40
1
40
1
40
1
10
90.4935
20
23.75325
30
0
10
89.70975
20
24.3
30
0
10
88.71225
20
24.57375
30
0
10
87.50325
20
24.57375
30
0
0
SPLINE
5
185
100
AcDbEntity
8
0
6
ByLayer
62
7
370
-1
100
AcDbSpline
210
0
220
0
230
1
70
8
71
3
72
8
73
4
74
0
42
1e-07
43
1e-07
40
0
40
0
40
0
40
0
40
1
40
1
40
1
40
1
10
87.50325
20
24.57375
30
0
10
85.76175
20
24.57375
30
0
10
84.3585
20
23.89425
30
0
10
83.29275
20
22.533
30
0
0
SPLINE
5
186
100
AcDbEntity
8
0
6
ByLayer
62
7
370
-1
100
AcDbSpline
210
0
220
0
230
1
70
8
71
3
72
8
73
4
74
0
42
1e-07
43
1e-07
40
0
40
0
40
0
40
0
40
1
40
1
40
1
40
1
10
83.29275
20
22.533
30
0
10
82.2285
20
21.17325
30
0
10
81.69525
20
19.31325
30
0
10
81.69525
20
16.95225
30
0
0
SPLINE
5
187
100
AcDbEntity
8
0
6
ByLayer
62
7
370
-1
100
AcDbSpline
210
0
220
0
230
1
70
8
71
3
72
8
73
4
74
0
42
1e-07
43
1e-07
40
0
40
0
40
0
40
0
40
1
40
1
40
1
40
1
10
81.69525
20
16.95225
30
0
10
81.69525
20
15.8445
30
0
10
81.8325
20
14.826
30
0
10
82.1055
20
13.89825
30
0
0
SPLINE
5
188
100
AcDbEntity
8
0
6
ByLayer
62
7
370
-1
100
AcDbSpline
210
0
220
0
230
1
70
8
71
3
72
8
73
4
74
0
42
1e-07
43
1e-07
40
0
40
0
40
0
40
0
40
1
40
1
40
1
40
1
10
82.1055
20
13.89825
30
0
10
82.3785
20
12.969
30
0
10
82.77525
20
12.17775
30
0
10
83.29275
20
11.523
30
0
0
SPLINE
5
189
100
AcDbEntity
8
0
6
ByLayer
62
7
370
-1
100
AcDbSpline
210
0
220
0
230
1
70
8
71
3
72
8
73
4
74
0
42
1e-07
43
1e-07
40
0
40
0
40
0
40
0
40
1
40
1
40
1
40
1
10
83.29275
20
11.523
30
0
10
83.81175
20
10.86825
30
0
10
84.4365
20
10.371
30
0
10
85.17075
20
10.0335
30
0
0
SPLINE
5
18A
100
AcDbEntity
8
0
6
ByLayer
62
7
370
-1
100
AcDbSpline
210
0
220
0
230
1
70
8
71
3
72
8
73
4
74
0
42
1e-07
43
1e-07
40
0
40
0
40
0
40
0
40
1
40
1
40
1
40
1
10
85.17075
20
10.0335
30
0
10
85.905
20
9.696
30
0
10
86.71125
20
9.5265
30
0
10
87.58875
20
9.5265
30
0
0
SPLINE
5
18B
100
AcDbEntity
8
0
6
ByLayer
62
7
370
-1
100
AcDbSpline
210
0
220
0
230
1
70
8
71
3
72
8
73
4
74
0
42
1e-07
43
1e-07
40
0
40
0
40
0
40
0
40
1
40
1
40
1
40
1
10
87.58875
20
9.5265
30
0
10
88.76925
20
9.5265
30
0
10
89.78025
20
9.7995
30
0
10
90.62175
20
10.347
30
0
0
SPLINE
5
18C
100
AcDbEntity
8
0
6
ByLayer
62
7
370
-1
100
AcDbSpline
210
0
220
0
230
1
70
8
71
3
72
8
73
4
74
0
42
1e-07
43
1e-07
40
0
40
0
40
0
40
0
40
1
40
1
40
1
40
1
10
90.62175
20
10.347
30
0
10
91.46475
20
10.89375
30
0
10
92.20875
20
11.7285
30
0
10
92.85675
20
12.852
30
0
0
SPLINE
5
18D
100
AcDbEntity
8
0
6
ByLayer
62
7
370
-1
100
AcDbSpline
210
0
220
0
230
1
70
8
71
3
72
8
73
4
74
0
42
1e-07
43
1e-07
40
0
40
0
40
0
40
0
40
1
40
1
40
1
40
1
10
92.85675
20
12.852
30
0
10
93.216
20
13.5135
30
0
10
93.60525
20
14.03175
30
0
10
94.02225
20
14.40525
30
0
0
SPLINE
5
18E
100
AcDbEntity
8
0
6
ByLayer
62
7
370
-1
100
AcDbSpline
210
0
220
0
230
1
70
8
71
3
72
8
73
4
74
0
42
1e-07
43
1e-07
40
0
40
0
40
0
40
0
40
1
40
1
40
1
40
1
10
94.02225
20
14.40525
30
0
10
94.44
20
14.7795
30
0
10
94.95075
20
14.96625
30
0
10
95.55525
20
14.96625
30
0
0
SPLINE
5
18F
100
AcDbEntity
8
0
6
ByLayer
62
7
370
-1
100
AcDbSpline
210
0
220
0
230
1
70
8
71
3
72
8
73
4
74
0
42
1e-07
43
1e-07
40
0
40
0
40
0
40
0
40
1
40
1
40
1
40
1
10
95.55525
20
14.96625
30
0
10
96.2745
20
14.96625
30
0
10
96.873
20
14.694
30
0
10
97.347
20
14.1465
30
0
0
SPLINE
5
190
100
AcDbEntity
8
0
6
ByLayer
62
7
370
-1
100
AcDbSpline
210
0
220
0
230
1
70
8
71
3
72
8
73
4
74
0
42
1e-07
43
1e-07
40
0
40
0
40
0
40
0
40
1
40
1
40
1
40
1
10
97.347
20
14.1465
30
0
10
97.82175
20
13.602
30
0
10
98.0595
20
13.0185
30
0
10
98.0595
20
12.39975
30
0
0
LWPOLYLINE
5
191
100
AcDbEntity
8
0
6
ByLayer
62
7
370
-1
100
AcDbPolyline
90
1
70
1
43
0
10
70.83375
20
25.7205
0
LWPOLYLINE
5
192
100
AcDbEntity
8
0
6
ByLayer
62
7
370
-1
100
AcDbPolyline
90
1
70
1
43
0
10
98.0595
20
12.39975
0
LWPOLYLINE
5
193
100
AcDbEntity
8
0
6
ByLayer
62
7
370
-1
100
AcDbPolyline
90
1
70
1
43
0
10
125.26275
20
17.08425
0
LWPOLYLINE
5
194
100
AcDbEntity
8
0
6
ByLayer
62
7
370
-1
100
AcDbPolyline
90
1
70
1
43
0
10
119.346
20
17.08425
0
LWPOLYLINE
5
195
100
AcDbEntity
8
0
6
ByLayer
62
7
370
-1
100
AcDbPolyline
90
1
70
1
43
0
10
136.5975
20
33.9465
0
LWPOLYLINE
5
196
100
AcDbEntity
8
0
6
ByLayer
62
7
370
-1
100
AcDbPolyline
90
1
70
1
43
0
10
171.5085
20
8.427
0
LWPOLYLINE
5
197
100
AcDbEntity
8
0
6
ByLayer
62
7
370
-1
100
AcDbPolyline
90
1
70
1
43
0
10
187.7445
20
34.4655
0
LWPOLYLINE
5
198
100
AcDbEntity
8
0
6
ByLayer
62
7
370
-1
100
AcDbPolyline
90
1
70
1
43
0
10
188.0235
20
16.9545
0
SPLINE
5
199
100
AcDbEntity
8
0
6
ByLayer
62
7
370
-1
100
AcDbSpline
210
0
220
0
230
1
70
8
71
3
72
8
73
4
74
0
42
1e-07
43
1e-07
40
0
40
0
40
0
40
0
40
1
40
1
40
1
40
1
10
197.14575
20
76.3755
30
0
10
195.59925
20
77.74125
30
0
10
193.884
20
78.921
30
0
10
192.23775
20
80.175
30
0
0
SPLINE
5
19A
100
AcDbEntity
8
0
6
ByLayer
62
7
370
-1
100
AcDbSpline
210
0
220
0
230
1
70
8
71
3
72
8
73
4
74
0
42
1e-07
43
1e-07
40
0
40
0
40
0
40
0
40
1
40
1
40
1
40
1
10
192.23775
20
80.175
30
0
10
190.47975
20
81.5145
30
0
10
189.32325
20
83.11575
30
0
10
189.68025
20
85.497
30
0
0
SPLINE
5
19B
100
AcDbEntity
8
0
6
ByLayer
62
7
370
-1
100
AcDbSpline
210
0
220
0
230
1
70
8
71
3
72
8
73
4
74
0
42
1e-07
43
1e-07
40
0
40
0
40
0
40
0
40
1
40
1
40
1
40
1
10
189.68025
20
85.497
30
0
10
190.14525
20
88.614
30
0
10
190.14675
20
91.75875
30
0
10
189.60675
20
94.8495
30
0
0
SPLINE
5
19C
100
AcDbEntity
8
0
6
ByLayer
62
7
370
-1
100
AcDbSpline
210
0
220
0
230
1
70
8
71
3
72
8
73
4
74
0
42
1e-07
43
1e-07
40
0
40
0
40
0
40
0
40
1
40
1
40
1
40
1
10
189.60675
20
94.8495
30
0
10
188.35425
20
102.02775
30
0
10
184.98975
20
108.0615
30
0
10
179.12175
20
112.4595
30
0
0
SPLINE
5
19D
100
AcDbEntity
8
0
6
ByLayer
62
7
370
-1
100
AcDbSpline
210
0
220
0
230
1
70
8
71
3
72
8
73
4
74
0
42
1e-07
43
1e-07
40
0
40
0
40
0
40
0
40
1
40
1
40
1
40
1
10
179.12175
20
112.4595
30
0
10
172.50675
20
117.41475
30
0
10
165.13125
20
119.09475
30
0
10
157.09125
20
116.63475
30
0
0
SPLINE
5
19E
100
AcDbEntity
8
0
6
ByLayer
62
7
370
-1
100
AcDbSpline
210
0
220
0
230
1
70
8
71
3
72
8
73
4
74
0
42
1e-07
43
1e-07
40
0
40
0
40
0
40
0
40
1
40
1
40
1
40
1
10
157.09125
20
116.63475
30
0
10
151.06725
20
114.79125
30
0
10
146.59275
20
111.00375
30
0
10
144.01275
20
105.21375
30
0
0
SPLINE
5
19F
100
AcDbEntity
8
0
6
ByLayer
62
7
370
-1
100
AcDbSpline
210
0
220
0
230
1
70
8
71
3
72
8
73
4
74
0
42
1e-07
43
1e-07
40
0
40
0
40
0
40
0
40
1
40
1
40
1
40
1
10
144.01275
20
105.21375
30
0
10
141.3045
20
99.138
30
0
10
141.98025
20
91.40625
30
0
10
147.0315
20
86.499
30
0
0
SPLINE
5
1A0
100
AcDbEntity
8
0
6
ByLayer
62
7
370
-1
100
AcDbSpline
210
0
220
0
230
1
70
8
71
3
72
8
73
4
74
0
42
1e-07
43
1e-07
40
0
40
0
40
0
40
0
40
1
40
1
40
1
40
1
10
147.0315
20
86.499
30
0
10
150.69375
20
82.93875
30
0
10
155.00325
20
81.44775
30
0
10
160.02
20
83.247
30
0
0
SPLINE
5
1A1
100
AcDbEntity
8
0
6
ByLayer
62
7
370
-1
100
AcDbSpline
210
0
220
0
230
1
70
8
71
3
72
8
73
4
74
0
42
1e-07
43
1e-07
40
0
40
0
40
0
40
0
40
1
40
1
40
1
40
1
10
160.02
20
83.247
30
0
10
163.1745
20
84.37875
30
0
10
165.1905
20
86.595
30
0
10
165.71925
20
90.00525
30
0
0
SPLINE
5
1A2
100
AcDbEntity
8
0
6
ByLayer
62
7
370
-1
100
AcDbSpline
210
0
220
0
230
1
70
8
71
3
72
8
73
4
74
0
42
1e-07
43
1e-07
40
0
40
0
40
0
40
0
40
1
40
1
40
1
40
1
10
165.71925
20
90.00525
30
0
10
166.01775
20
91.92
30
0
10
164.89425
20
94.032
30
0
10
163.1655
20
94.806
30
0
0
SPLINE
5
1A3
100
AcDbEntity
8
0
6
ByLayer
62
7
370
-1
100
AcDbSpline
210
0
220
0
230
1
70
8
71
3
72
8
73
4
74
0
42
1e-07
43
1e-07
40
0
40
0
40
0
40
0
40
1
40
1
40
1
40
1
10
163.1655
20
94.806
30
0
10
162.21075
20
95.13225
30
0
10
161.65725
20
95.24475
30
0
10
160.82025
20
95.25225
30
0
0
SPLINE
5
1A4
100
AcDbEntity
8
0
6
ByLayer
62
7
370
-1
100
AcDbSpline
210
0
220
0
230
1
70
8
71
3
72
8
73
4
74
0
42
1e-07
43
1e-07
40
0
40
0
40
0
40
0
40
1
40
1
40
1
40
1
10
160.82025
20
95.25225
30
0
10
159.5715
20
95.26125
30
0
10
157.77525
20
94.57125
30
0
10
156.94425
20
94.797
30
0
0
SPLINE
5
1A5
100
AcDbEntity
8
0
6
ByLayer
62
7
370
-1
100
AcDbSpline
210
0
220
0
230
1
70
8
71
3
72
8
73
4
74
0
42
1e-07
43
1e-07
40
0
40
0
40
0
40
0
40
1
40
1
40
1
40
1
10
156.94425
20
94.797
30
0
10
155.69025
20
95.139
30
0
10
155.15175
20
95.90625
30
0
10
154.93875
20
96.28725
30
0
0
SPLINE
5
1A6
100
AcDbEntity
8
0
6
ByLayer
62
7
370
-1
100
AcDbSpline
210
0
220
0
230
1
70
8
71
3
72
8
73
4
74
0
42
1e-07
43
1e-07
40
0
40
0
40
0
40
0
40
1
40
1
40
1
40
1
10
154.93875
20
96.28725
30
0
10
154.446
20
97.221
30
0
10
154.5
20
98.38725
30
0
10
154.62675
20
99.051
30
0
0
SPLINE
5
1A7
100
AcDbEntity
8
0
6
ByLayer
62
7
370
-1
100
AcDbSpline
210
0
220
0
230
1
70
8
71
3
72
8
73
4
74
0
42
1e-07
43
1e-07
40
0
40
0
40
0
40
0
40
1
40
1
40
1
40
1
10
154.62675
20
99.051
30
0
10
154.83225
20
100.13325
30
0
10
155.1105
20
100.9095
30
0
10
155.36775
20
101.298
30
0
0
SPLINE
5
1A8
100
AcDbEntity
8
0
6
ByLayer
62
7
370
-1
100
AcDbSpline
210
0
220
0
230
1
70
8
71
3
72
8
73
4
74
0
42
1e-07
43
1e-07
40
0
40
0
40
0
40
0
40
1
40
1
40
1
40
1
10
155.36775
20
101.298
30
0
10
156.11025
20
102.52425
30
0
10
157.4685
20
103.48275
30
0
10
158.55375
20
104.1315
30
0
0
SPLINE
5
1A9
100
AcDbEntity
8
0
6
ByLayer
62
7
370
-1
100
AcDbSpline
210
0
220
0
230
1
70
8
71
3
72
8
73
4
74
0
42
1e-07
43
1e-07
40
0
40
0
40
0
40
0
40
1
40
1
40
1
40
1
10
158.55375
20
104.1315
30
0
10
161.30625
20
105.777
30
0
10
164.31825
20
105.6285
30
0
10
167.1945
20
104.93925
30
0
0
SPLINE
5
1AA
100
AcDbEntity
8
0
6
ByLayer
62
7
370
-1
100
AcDbSpline
210
0
220
0
230
1
70
8
71
3
72
8
73
4
74
0
42
1e-07
43
1e-07
40
0
40
0
40
0
40
0
40
1
40
1
40
1
40
1
10
167.1945
20
104.93925
30
0
10
171.27225
20
103.96275
30
0
10
173.9745
20
101.091
30
0
10
175.9305
20
97.48125
30
0
0
SPLINE
5
1AB
100
AcDbEntity
8
0
6
ByLayer
62
7
370
-1
100
AcDbSpline
210
0
220
0
230
1
70
8
71
3
72
8
73
4
74
0
42
1e-07
43
1e-07
40
0
40
0
40
0
40
0
40
1
40
1
40
1
40
1
10
175.9305
20
97.48125
30
0
10
176.13525
20
97.215
30
0
10
176.15475
20
96.8505
30
0
10
176.38575
20
96.59625
30
0
0
SPLINE
5
1AC
100
AcDbEntity
8
0
6
ByLayer
62
7
370
-1
100
AcDbSpline
210
0
220
0
230
1
70
8
71
3
72
8
73
4
74
0
42
1e-07
43
1e-07
40
0
40
0
40
0
40
0
40
1
40
1
40
1
40
1
10
176.38575
20
96.59625
30
0
10
178.76025
20
89.6355
30
0
10
177.69225
20
83.247
30
0
10
172.878
20
77.68125
30
0
0
SPLINE
5
1AD
100
AcDbEntity
8
0
6
ByLayer
62
7
370
-1
100
AcDbSpline
210
0
220
0
230
1
70
8
71
3
72
8
73
4
74
0
42
1e-07
43
1e-07
40
0
40
0
40
0
40
0
40
1
40
1
40
1
40
1
10
172.878
20
77.68125
30
0
10
168.60675
20
72.73875
30
0
10
163.1055
20
70.3335
30
0
10
156.5115
20
70.20825
30
0
0
SPLINE
5
1AE
100
AcDbEntity
8
0
6
ByLayer
62
7
370
-1
100
AcDbSpline
210
0
220
0
230
1
70
8
71
3
72
8
73
4
74
0
42
1e-07
43
1e-07
40
0
40
0
40
0
40
0
40
1
40
1
40
1
40
1
10
156.5115
20
70.20825
30
0
10
150.0195
20
70.08225
30
0
10
144.48525
20
72.309
30
0
10
139.56975
20
76.37475
30
0
0
SPLINE
5
1AF
100
AcDbEntity
8
0
6
ByLayer
62
7
370
-1
100
AcDbSpline
210
0
220
0
230
1
70
8
71
3
72
8
73
4
74
0
42
1e-07
43
1e-07
40
0
40
0
40
0
40
0
40
1
40
1
40
1
40
1
10
139.56975
20
76.37475
30
0
10
138.54375
20
77.118
30
0
10
137.68725
20
78.036
30
0
10
136.881
20
79.00575
30
0
0
SPLINE
5
1B0
100
AcDbEntity
8
0
6
ByLayer
62
7
370
-1
100
AcDbSpline
210
0
220
0
230
1
70
8
71
3
72
8
73
4
74
0
42
1e-07
43
1e-07
40
0
40
0
40
0
40
0
40
1
40
1
40
1
40
1
10
136.881
20
79.00575
30
0
10
133.656
20
82.7445
30
0
10
131.5095
20
87.0615
30
0
10
130.5555
20
91.86975
30
0
0
SPLINE
5
1B1
100
AcDbEntity
8
0
6
ByLayer
62
7
370
-1
100
AcDbSpline
210
0
220
0
230
1
70
8
71
3
72
8
73
4
74
0
42
1e-07
43
1e-07
40
0
40
0
40
0
40
0
40
1
40
1
40
1
40
1
10
130.5555
20
91.86975
30
0
10
129.70875
20
96.14925
30
0
10
129.753
20
100.47225
30
0
10
130.743
20
104.78625
30
0
0
SPLINE
5
1B2
100
AcDbEntity
8
0
6
ByLayer
62
7
370
-1
100
AcDbSpline
210
0
220
0
230
1
70
8
71
3
72
8
73
4
74
0
42
1e-07
43
1e-07
40
0
40
0
40
0
40
0
40
1
40
1
40
1
40
1
10
130.743
20
104.78625
30
0
10
132.3285
20
111.687
30
0
10
135.89325
20
117.36375
30
0
10
141.18525
20
121.956
30
0
0
SPLINE
5
1B3
100
AcDbEntity
8
0
6
ByLayer
62
7
370
-1
100
AcDbSpline
210
0
220
0
230
1
70
8
71
3
72
8
73
4
74
0
42
1e-07
43
1e-07
40
0
40
0
40
0
40
0
40
1
40
1
40
1
40
1
10
141.18525
20
121.956
30
0
10
146.1495
20
126.26325
30
0
10
150.06825
20
131.3235
30
0
10
152.622
20
137.3715
30
0
0
SPLINE
5
1B4
100
AcDbEntity
8
0
6
ByLayer
62
7
370
-1
100
AcDbSpline
210
0
220
0
230
1
70
8
71
3
72
8
73
4
74
0
42
1e-07
43
1e-07
40
0
40
0
40
0
40
0
40
1
40
1
40
1
40
1
10
152.622
20
137.3715
30
0
10
155.74425
20
144.76875
30
0
10
156.54225
20
152.43825
30
0
10
154.94175
20
160.33725
30
0
0
SPLINE
5
1B5
100
AcDbEntity
8
0
6
ByLayer
62
7
370
-1
100
AcDbSpline
210
0
220
0
230
1
70
8
71
3
72
8
73
4
74
0
42
1e-07
43
1e-07
40
0
40
0
40
0
40
0
40
1
40
1
40
1
40
1
10
154.94175
20
160.33725
30
0
10
153.4635
20
167.6235
30
0
10
150.0885
20
173.8875
30
0
10
144.777
20
179.07675
30
0
0
SPLINE
5
1B6
100
AcDbEntity
8
0
6
ByLayer
62
7
370
-1
100
AcDbSpline
210
0
220
0
230
1
70
8
71
3
72
8
73
4
74
0
42
1e-07
43
1e-07
40
0
40
0
40
0
40
0
40
1
40
1
40
1
40
1
10
144.777
20
179.07675
30
0
10
140.97525
20
182.79225
30
0
10
136.572
20
185.56125
30
0
10
131.44725
20
187.10775
30
0
0
SPLINE
5
1B7
100
AcDbEntity
8
0
6
ByLayer
62
7
370
-1
100
AcDbSpline
210
0
220
0
230
1
70
8
71
3
72
8
73
4
74
0
42
1e-07
43
1e-07
40
0
40
0
40
0
40
0
40
1
40
1
40
1
40
1
10
131.44725
20
187.10775
30
0
10
129.84825
20
187.5705
30
0
10
129.2655
20
189.3675
30
0
10
129.0735
20
190.4745
30
0
0
SPLINE
5
1B8
100
AcDbEntity
8
0
6
ByLayer
62
7
370
-1
100
AcDbSpline
210
0
220
0
230
1
70
8
71
3
72
8
73
4
74
0
42
1e-07
43
1e-07
40
0
40
0
40
0
40
0
40
1
40
1
40
1
40
1
10
129.0735
20
190.4745
30
0
10
128.75625
20
192.03075
30
0
10
128.58
20
193.61925
30
0
10
128.391
20
195.1995
30
0
0
SPLINE
5
1B9
100
AcDbEntity
8
0
6
ByLayer
62
7
370
-1
100
AcDbSpline
210
0
220
0
230
1
70
8
71
3
72
8
73
4
74
0
42
1e-07
43
1e-07
40
0
40
0
40
0
40
0
40
1
40
1
40
1
40
1
10
128.391
20
195.1995
30
0
10
128.115
20
197.51175
30
0
10
128.21175
20
200.49825
30
0
10
125.08125
20
201
30
0
0
SPLINE
5
1BA
100
AcDbEntity
8
0
6
ByLayer
62
7
370
-1
100
AcDbSpline
210
0
220
0
230
1
70
8
71
3
72
8
73
4
74
0
42
1e-07
43
1e-07
40
0
40
0
40
0
40
0
40
1
40
1
40
1
40
1
10
125.08125
20
201
30
0
10
122.5755
20
200.991
30
0
10
120.69675
20
200.985
30
0
10
118.191
20
200.97525
30
0
0
SPLINE
5
1BB
100
AcDbEntity
8
0
6
ByLayer
62
7
370
-1
100
AcDbSpline
210
0
220
0
230
1
70
8
71
3
72
8
73
4
74
0
42
1e-07
43
1e-07
40
0
40
0
40
0
40
0
40
1
40
1
40
1
40
1
10
118.191
20
200.97525
30
0
10
115.63875
20
200.60775
30
0
10
115.2945
20
198.21825
30
0
10
115.09875
20
196.161
30
0
0
SPLINE
5
1BC
100
AcDbEntity
8
0
6
ByLayer
62
7
370
-1
100
AcDbSpline
210
0
220
0
230
1
70
8
71
3
72
8
73
4
74
0
42
1e-07
43
1e-07
40
0
40
0
40
0
40
0
40
1
40
1
40
1
40
1
10
115.09875
20
196.161
30
0
10
114.92475
20
194.346
30
0
10
114.70425
20
192.525
30
0
10
114.3285
20
190.74375
30
0
0
SPLINE
5
1BD
100
AcDbEntity
8
0
6
ByLayer
62
7
370
-1
100
AcDbSpline
210
0
220
0
230
1
70
8
71
3
72
8
73
4
74
0
42
1e-07
43
1e-07
40
0
40
0
40
0
40
0
40
1
40
1
40
1
40
1
10
114.3285
20
190.74375
30
0
10
113.99325
20
189.1635
30
0
10
113.22375
20
187.746
30
0
10
111.552
20
187.1835
30
0
0
SPLINE
5
1BE
100
AcDbEntity
8
0
6
ByLayer
62
7
370
-1
100
AcDbSpline
210
0
220
0
230
1
70
8
71
3
72
8
73
4
74
0
42
1e-07
43
1e-07
40
0
40
0
40
0
40
0
40
1
40
1
40
1
40
1
10
111.552
20
187.1835
30
0
10
104.892
20
184.9485
30
0
10
99.55425
20
180.99
30
0
10
95.81775
20
175.0155
30
0
0
SPLINE
5
1BF
100
AcDbEntity
8
0
6
ByLayer
62
7
370
-1
100
AcDbSpline
210
0
220
0
230
1
70
8
71
3
72
8
73
4
74
0
42
1e-07
43
1e-07
40
0
40
0
40
0
40
0
40
1
40
1
40
1
40
1
10
95.81775
20
175.0155
30
0
10
92.09625
20
169.06425
30
0
10
90.62475
20
162.645
30
0
10
92.085
20
155.667
30
0
0
SPLINE
5
1C0
100
AcDbEntity
8
0
6
ByLayer
62
7
370
-1
100
AcDbSpline
210
0
220
0
230
1
70
8
71
3
72
8
73
4
74
0
42
1e-07
43
1e-07
40
0
40
0
40
0
40
0
40
1
40
1
40
1
40
1
10
92.085
20
155.667
30
0
10
93.6345
20
148.25775
30
0
10
97.63125
20
142.68075
30
0
10
104.40675
20
139.2195
30
0
0
SPLINE
5
1C1
100
AcDbEntity
8
0
6
ByLayer
62
7
370
-1
100
AcDbSpline
210
0
220
0
230
1
70
8
71
3
72
8
73
4
74
0
42
1e-07
43
1e-07
40
0
40
0
40
0
40
0
40
1
40
1
40
1
40
1
10
104.40675
20
139.2195
30
0
10
112.14975
20
135.264
30
0
10
121.99575
20
136.662
30
0
10
127.48275
20
143.5965
30
0
0
SPLINE
5
1C2
100
AcDbEntity
8
0
6
ByLayer
62
7
370
-1
100
AcDbSpline
210
0
220
0
230
1
70
8
71
3
72
8
73
4
74
0
42
1e-07
43
1e-07
40
0
40
0
40
0
40
0
40
1
40
1
40
1
40
1
10
127.48275
20
143.5965
30
0
10
130.87425
20
147.88425
30
0
10
131.96175
20
152.6715
30
0
10
129.77625
20
157.91775
30
0
0
SPLINE
5
1C3
100
AcDbEntity
8
0
6
ByLayer
62
7
370
-1
100
AcDbSpline
210
0
220
0
230
1
70
8
71
3
72
8
73
4
74
0
42
1e-07
43
1e-07
40
0
40
0
40
0
40
0
40
1
40
1
40
1
40
1
10
129.77625
20
157.91775
30
0
10
129.555
20
158.1735
30
0
10
129.5535
20
158.547
30
0
10
129.30975
20
158.79225
30
0
0
SPLINE
5
1C4
100
AcDbEntity
8
0
6
ByLayer
62
7
370
-1
100
AcDbSpline
210
0
220
0
230
1
70
8
71
3
72
8
73
4
74
0
42
1e-07
43
1e-07
40
0
40
0
40
0
40
0
40
1
40
1
40
1
40
1
10
129.30975
20
158.79225
30
0
10
128.6325
20
160.29225
30
0
10
127.56
20
161.463
30
0
10
126.252
20
162.43125
30
0
0
SPLINE
5
1C5
100
AcDbEntity
8
0
6
ByLayer
62
7
370
-1
100
AcDbSpline
210
0
220
0
230
1
70
8
71
3
72
8
73
4
74
0
42
1e-07
43
1e-07
40
0
40
0
40
0
40
0
40
1
40
1
40
1
40
1
10
126.252
20
162.43125
30
0
10
123.47175
20
164.4915
30
0
10
120.033
20
164.77725
30
0
10
117.34575
20
163.18125
30
0
0
SPLINE
5
1C6
100
AcDbEntity
8
0
6
ByLayer
62
7
370
-1
100
AcDbSpline
210
0
220
0
230
1
70
8
71
3
72
8
73
4
74
0
42
1e-07
43
1e-07
40
0
40
0
40
0
40
0
40
1
40
1
40
1
40
1
10
117.34575
20
163.18125
30
0
10
116.62125
20
162.73875
30
0
10
116.2635
20
162.3345
30
0
10
115.779
20
161.63025
30
0
0
SPLINE
5
1C7
100
AcDbEntity
8
0
6
ByLayer
62
7
370
-1
100
AcDbSpline
210
0
220
0
230
1
70
8
71
3
72
8
73
4
74
0
42
1e-07
43
1e-07
40
0
40
0
40
0
40
0
40
1
40
1
40
1
40
1
10
115.779
20
161.63025
30
0
10
114.5445
20
159.59325
30
0
10
114.7785
20
158.54325
30
0
10
116.5305
20
156.58875
30
0
0
SPLINE
5
1C8
100
AcDbEntity
8
0
6
ByLayer
62
7
370
-1
100
AcDbSpline
210
0
220
0
230
1
70
8
71
3
72
8
73
4
74
0
42
1e-07
43
1e-07
40
0
40
0
40
0
40
0
40
1
40
1
40
1
40
1
10
116.5305
20
156.58875
30
0
10
117.087
20
155.71425
30
0
10
117.33825
20
155.35725
30
0
10
117.32775
20
154.3065
30
0
0
SPLINE
5
1C9
100
AcDbEntity
8
0
6
ByLayer
62
7
370
-1
100
AcDbSpline
210
0
220
0
230
1
70
8
71
3
72
8
73
4
74
0
42
1e-07
43
1e-07
40
0
40
0
40
0
40
0
40
1
40
1
40
1
40
1
10
117.32775
20
154.3065
30
0
10
117.189
20
152.7225
30
0
10
117.132
20
152.4135
30
0
10
116.68875
20
151.5555
30
0
0
SPLINE
5
1CA
100
AcDbEntity
8
0
6
ByLayer
62
7
370
-1
100
AcDbSpline
210
0
220
0
230
1
70
8
71
3
72
8
73
4
74
0
42
1e-07
43
1e-07
40
0
40
0
40
0
40
0
40
1
40
1
40
1
40
1
10
116.68875
20
151.5555
30
0
10
116.33175
20
150.864
30
0
10
116.06925
20
150.63
30
0
10
115.37775
20
150.25425
30
0
0
SPLINE
5
1CB
100
AcDbEntity
8
0
6
ByLayer
62
7
370
-1
100
AcDbSpline
210
0
220
0
230
1
70
8
71
3
72
8
73
4
74
0
42
1e-07
43
1e-07
40
0
40
0
40
0
40
0
40
1
40
1
40
1
40
1
10
115.37775
20
150.25425
30
0
10
114.795
20
149.93775
30
0
10
114.32925
20
149.6565
30
0
10
113.31375
20
149.49975
30
0
0
SPLINE
5
1CC
100
AcDbEntity
8
0
6
ByLayer
62
7
370
-1
100
AcDbSpline
210
0
220
0
230
1
70
8
71
3
72
8
73
4
74
0
42
1e-07
43
1e-07
40
0
40
0
40
0
40
0
40
1
40
1
40
1
40
1
10
113.31375
20
149.49975
30
0
10
111.97575
20
149.2935
30
0
10
110.4465
20
149.706
30
0
10
109.194
20
150.4185
30
0
0
SPLINE
5
1CD
100
AcDbEntity
8
0
6
ByLayer
62
7
370
-1
100
AcDbSpline
210
0
220
0
230
1
70
8
71
3
72
8
73
4
74
0
42
1e-07
43
1e-07
40
0
40
0
40
0
40
0
40
1
40
1
40
1
40
1
10
109.194
20
150.4185
30
0
10
107.7435
20
151.32075
30
0
10
106.67025
20
152.316
30
0
10
105.789
20
153.762
30
0
0
SPLINE
5
1CE
100
AcDbEntity
8
0
6
ByLayer
62
7
370
-1
100
AcDbSpline
210
0
220
0
230
1
70
8
71
3
72
8
73
4
74
0
42
1e-07
43
1e-07
40
0
40
0
40
0
40
0
40
1
40
1
40
1
40
1
10
105.789
20
153.762
30
0
10
103.37175
20
157.72725
30
0
10
103.24725
20
161.99175
30
0
10
105.0465
20
166.11225
30
0
0
SPLINE
5
1CF
100
AcDbEntity
8
0
6
ByLayer
62
7
370
-1
100
AcDbSpline
210
0
220
0
230
1
70
8
71
3
72
8
73
4
74
0
42
1e-07
43
1e-07
40
0
40
0
40
0
40
0
40
1
40
1
40
1
40
1
10
105.0465
20
166.11225
30
0
10
108.34725
20
173.6685
30
0
10
115.6725
20
177.0315
30
0
10
123.72525
20
176.172
30
0
0
SPLINE
5
1D0
100
AcDbEntity
8
0
6
ByLayer
62
7
370
-1
100
AcDbSpline
210
0
220
0
230
1
70
8
71
3
72
8
73
4
74
0
42
1e-07
43
1e-07
40
0
40
0
40
0
40
0
40
1
40
1
40
1
40
1
10
123.72525
20
176.172
30
0
10
128.6835
20
175.64175
30
0
10
132.84075
20
173.41125
30
0
10
136.35225
20
169.88475
30
0
0
SPLINE
5
1D1
100
AcDbEntity
8
0
6
ByLayer
62
7
370
-1
100
AcDbSpline
210
0
220
0
230
1
70
8
71
3
72
8
73
4
74
0
42
1e-07
43
1e-07
40
0
40
0
40
0
40
0
40
1
40
1
40
1
40
1
10
136.35225
20
169.88475
30
0
10
140.0265
20
166.194
30
0
10
142.22025
20
161.739
30
0
10
142.983
20
156.65325
30
0
0
SPLINE
5
1D2
100
AcDbEntity
8
0
6
ByLayer
62
7
370
-1
100
AcDbSpline
210
0
220
0
230
1
70
8
71
3
72
8
73
4
74
0
42
1e-07
43
1e-07
40
0
40
0
40
0
40
0
40
1
40
1
40
1
40
1
10
142.983
20
156.65325
30
0
10
143.76075
20
151.434
30
0
10
143.0805
20
146.3565
30
0
10
140.793
20
141.525
30
0
0
SPLINE
5
1D3
100
AcDbEntity
8
0
6
ByLayer
62
7
370
-1
100
AcDbSpline
210
0
220
0
230
1
70
8
71
3
72
8
73
4
74
0
42
1e-07
43
1e-07
40
0
40
0
40
0
40
0
40
1
40
1
40
1
40
1
10
140.793
20
141.525
30
0
10
137.517
20
134.60175
30
0
10
132.285
20
129.71625
30
0
10
125.26425
20
126.82875
30
0
0
SPLINE
5
1D4
100
AcDbEntity
8
0
6
ByLayer
62
7
370
-1
100
AcDbSpline
210
0
220
0
230
1
70
8
71
3
72
8
73
4
74
0
42
1e-07
43
1e-07
40
0
40
0
40
0
40
0
40
1
40
1
40
1
40
1
10
125.26425
20
126.82875
30
0
10
118.59975
20
124.0905
30
0
10
111.7155
20
123.87225
30
0
10
104.76225
20
125.7
30
0
0
SPLINE
5
1D5
100
AcDbEntity
8
0
6
ByLayer
62
7
370
-1
100
AcDbSpline
210
0
220
0
230
1
70
8
71
3
72
8
73
4
74
0
42
1e-07
43
1e-07
40
0
40
0
40
0
40
0
40
1
40
1
40
1
40
1
10
104.76225
20
125.7
30
0
10
101.895
20
126.453
30
0
10
99.1365
20
127.59225
30
0
10
96.207
20
128.12625
30
0
0
SPLINE
5
1D6
100
AcDbEntity
8
0
6
ByLayer
62
7
370
-1
100
AcDbSpline
210
0
220
0
230
1
70
8
71
3
72
8
73
4
74
0
42
1e-07
43
1e-07
40
0
40
0
40
0
40
0
40
1
40
1
40
1
40
1
10
96.207
20
128.12625
30
0
10
89.09475
20
129.4215
30
0
10
82.11
20
129.051
30
0
10
75.25275
20
126.6255
30
0
0
SPLINE
5
1D7
100
AcDbEntity
8
0
6
ByLayer
62
7
370
-1
100
AcDbSpline
210
0
220
0
230
1
70
8
71
3
72
8
73
4
74
0
42
1e-07
43
1e-07
40
0
40
0
40
0
40
0
40
1
40
1
40
1
40
1
10
75.25275
20
126.6255
30
0
10
70.671
20
125.0055
30
0
10
66.5175
20
122.68875
30
0
10
62.8785
20
119.46225
30
0
0
SPLINE
5
1D8
100
AcDbEntity
8
0
6
ByLayer
62
7
370
-1
100
AcDbSpline
210
0
220
0
230
1
70
8
71
3
72
8
73
4
74
0
42
1e-07
43
1e-07
40
0
40
0
40
0
40
0
40
1
40
1
40
1
40
1
10
62.8785
20
119.46225
30
0
10
62.4375
20
119.08725
30
0
10
62.06625
20
118.63425
30
0
10
61.578
20
118.31475
30
0
0
SPLINE
5
1D9
100
AcDbEntity
8
0
6
ByLayer
62
7
370
-1
100
AcDbSpline
210
0
220
0
230
1
70
8
71
3
72
8
73
4
74
0
42
1e-07
43
1e-07
40
0
40
0
40
0
40
0
40
1
40
1
40
1
40
1
10
61.578
20
118.31475
30
0
10
61.0635
20
117.7965
30
0
10
60.549
20
117.27825
30
0
10
60.0345
20
116.76
30
0
0
SPLINE
5
1DA
100
AcDbEntity
8
0
6
ByLayer
62
7
370
-1
100
AcDbSpline
210
0
220
0
230
1
70
8
71
3
72
8
73
4
74
0
42
1e-07
43
1e-07
40
0
40
0
40
0
40
0
40
1
40
1
40
1
40
1
10
60.0345
20
116.76
30
0
10
59.72025
20
116.268
30
0
10
59.26425
20
115.899
30
0
10
58.9005
20
115.44975
30
0
0
SPLINE
5
1DB
100
AcDbEntity
8
0
6
ByLayer
62
7
370
-1
100
AcDbSpline
210
0
220
0
230
1
70
8
71
3
72
8
73
4
74
0
42
1e-07
43
1e-07
40
0
40
0
40
0
40
0
40
1
40
1
40
1
40
1
10
58.9005
20
115.44975
30
0
10
54.543
20
110.517
30
0
10
51.92175
20
104.76825
30
0
10
50.721
20
98.3145
30
0
0
SPLINE
5
1DC
100
AcDbEntity
8
0
6
ByLayer
62
7
370
-1
100
AcDbSpline
210
0
220
0
230
1
70
8
71
3
72
8
73
4
74
0
42
1e-07
43
1e-07
40
0
40
0
40
0
40
0
40
1
40
1
40
1
40
1
10
50.721
20
98.3145
30
0
10
50.02575
20
94.5795
30
0
10
49.9755
20
90.846
30
0
10
50.61225
20
87.12525
30
0
0
SPLINE
5
1DD
100
AcDbEntity
8
0
6
ByLayer
62
7
370
-1
100
AcDbSpline
210
0
220
0
230
1
70
8
71
3
72
8
73
4
74
0
42
1e-07
43
1e-07
40
0
40
0
40
0
40
0
40
1
40
1
40
1
40
1
10
50.61225
20
87.12525
30
0
10
51.00975
20
84.804
30
0
10
50.38575
20
82.92975
30
0
10
48.66975
20
81.44475
30
0
0
SPLINE
5
1DE
100
AcDbEntity
8
0
6
ByLayer
62
7
370
-1
100
AcDbSpline
210
0
220
0
230
1
70
8
71
3
72
8
73
4
74
0
42
1e-07
43
1e-07
40
0
40
0
40
0
40
0
40
1
40
1
40
1
40
1
10
48.66975
20
81.44475
30
0
10
46.91175
20
79.92225
30
0
10
45.0045
20
78.5745
30
0
10
43.23975
20
77.06175
30
0
0
SPLINE
5
1DF
100
AcDbEntity
8
0
6
ByLayer
62
7
370
-1
100
AcDbSpline
210
0
220
0
230
1
70
8
71
3
72
8
73
4
74
0
42
1e-07
43
1e-07
40
0
40
0
40
0
40
0
40
1
40
1
40
1
40
1
10
43.23975
20
77.06175
30
0
10
41.946
20
75.951
30
0
10
41.36025
20
74.19825
30
0
10
42.26025
20
72.6045
30
0
0
SPLINE
5
1E0
100
AcDbEntity
8
0
6
ByLayer
62
7
370
-1
100
AcDbSpline
210
0
220
0
230
1
70
8
71
3
72
8
73
4
74
0
42
1e-07
43
1e-07
40
0
40
0
40
0
40
0
40
1
40
1
40
1
40
1
10
42.26025
20
72.6045
30
0
10
43.23675
20
70.878
30
0
10
44.247
20
69.168
30
0
10
45.276
20
67.47075
30
0
0
SPLINE
5
1E1
100
AcDbEntity
8
0
6
ByLayer
62
7
370
-1
100
AcDbSpline
210
0
220
0
230
1
70
8
71
3
72
8
73
4
74
0
42
1e-07
43
1e-07
40
0
40
0
40
0
40
0
40
1
40
1
40
1
40
1
10
45.276
20
67.47075
30
0
10
46.04625
20
66.1995
30
0
10
48.129
20
65.51175
30
0
10
49.47825
20
66.0615
30
0
0
SPLINE
5
1E2
100
AcDbEntity
8
0
6
ByLayer
62
7
370
-1
100
AcDbSpline
210
0
220
0
230
1
70
8
71
3
72
8
73
4
74
0
42
1e-07
43
1e-07
40
0
40
0
40
0
40
0
40
1
40
1
40
1
40
1
10
49.47825
20
66.0615
30
0
10
51.768
20
66.99225
30
0
10
54.0315
20
68.00025
30
0
10
56.34675
20
68.86725
30
0
0
SPLINE
5
1E3
100
AcDbEntity
8
0
6
ByLayer
62
7
370
-1
100
AcDbSpline
210
0
220
0
230
1
70
8
71
3
72
8
73
4
74
0
42
1e-07
43
1e-07
40
0
40
0
40
0
40
0
40
1
40
1
40
1
40
1
10
56.34675
20
68.86725
30
0
10
57.858
20
69.432
30
0
10
59.406
20
69.34275
30
0
10
60.6765
20
68.22525
30
0
0
SPLINE
5
1E4
100
AcDbEntity
8
0
6
ByLayer
62
7
370
-1
100
AcDbSpline
210
0
220
0
230
1
70
8
71
3
72
8
73
4
74
0
42
1e-07
43
1e-07
40
0
40
0
40
0
40
0
40
1
40
1
40
1
40
1
10
60.6765
20
68.22525
30
0
10
65.4405
20
64.04025
30
0
10
70.91475
20
61.392
30
0
10
77.226
20
60.67875
30
0
0
SPLINE
5
1E5
100
AcDbEntity
8
0
6
ByLayer
62
7
370
-1
100
AcDbSpline
210
0
220
0
230
1
70
8
71
3
72
8
73
4
74
0
42
1e-07
43
1e-07
40
0
40
0
40
0
40
0
40
1
40
1
40
1
40
1
10
77.226
20
60.67875
30
0
10
83.8875
20
59.925
30
0
10
90.0675
20
61.3875
30
0
10
95.62875
20
65.19225
30
0
0
SPLINE
5
1E6
100
AcDbEntity
8
0
6
ByLayer
62
7
370
-1
100
AcDbSpline
210
0
220
0
230
1
70
8
71
3
72
8
73
4
74
0
42
1e-07
43
1e-07
40
0
40
0
40
0
40
0
40
1
40
1
40
1
40
1
10
95.62875
20
65.19225
30
0
10
98.8875
20
67.425
30
0
10
101.51475
20
70.2405
30
0
10
103.2975
20
73.7985
30
0
0
SPLINE
5
1E7
100
AcDbEntity
8
0
6
ByLayer
62
7
370
-1
100
AcDbSpline
210
0
220
0
230
1
70
8
71
3
72
8
73
4
74
0
42
1e-07
43
1e-07
40
0
40
0
40
0
40
0
40
1
40
1
40
1
40
1
10
103.2975
20
73.7985
30
0
10
103.53975
20
74.0445
30
0
10
103.542
20
74.41725
30
0
10
103.7595
20
74.67375
30
0
0
SPLINE
5
1E8
100
AcDbEntity
8
0
6
ByLayer
62
7
370
-1
100
AcDbSpline
210
0
220
0
230
1
70
8
71
3
72
8
73
4
74
0
42
1e-07
43
1e-07
40
0
40
0
40
0
40
0
40
1
40
1
40
1
40
1
10
103.7595
20
74.67375
30
0
10
105.63525
20
78.41025
30
0
10
106.374
20
82.362
30
0
10
105.92325
20
86.51925
30
0
0
SPLINE
5
1E9
100
AcDbEntity
8
0
6
ByLayer
62
7
370
-1
100
AcDbSpline
210
0
220
0
230
1
70
8
71
3
72
8
73
4
74
0
42
1e-07
43
1e-07
40
0
40
0
40
0
40
0
40
1
40
1
40
1
40
1
10
105.92325
20
86.51925
30
0
10
105.15225
20
93.6285
30
0
10
101.745
20
98.9925
30
0
10
95.31
20
102.288
30
0
0
SPLINE
5
1EA
100
AcDbEntity
8
0
6
ByLayer
62
7
370
-1
100
AcDbSpline
210
0
220
0
230
1
70
8
71
3
72
8
73
4
74
0
42
1e-07
43
1e-07
40
0
40
0
40
0
40
0
40
1
40
1
40
1
40
1
10
95.31
20
102.288
30
0
10
89.8065
20
105.10725
30
0
10
82.87425
20
104.1945
30
0
10
78.522
20
100.11825
30
0
0
SPLINE
5
1EB
100
AcDbEntity
8
0
6
ByLayer
62
7
370
-1
100
AcDbSpline
210
0
220
0
230
1
70
8
71
3
72
8
73
4
74
0
42
1e-07
43
1e-07
40
0
40
0
40
0
40
0
40
1
40
1
40
1
40
1
10
78.522
20
100.11825
30
0
10
75.255
20
97.05975
30
0
10
74.10525
20
92.73825
30
0
10
75.54675
20
88.93575
30
0
0
SPLINE
5
1EC
100
AcDbEntity
8
0
6
ByLayer
62
7
370
-1
100
AcDbSpline
210
0
220
0
230
1
70
8
71
3
72
8
73
4
74
0
42
1e-07
43
1e-07
40
0
40
0
40
0
40
0
40
1
40
1
40
1
40
1
10
75.54675
20
88.93575
30
0
10
76.506
20
87.27375
30
0
10
77.57775
20
85.7415
30
0
10
79.45425
20
84.96225
30
0
0
SPLINE
5
1ED
100
AcDbEntity
8
0
6
ByLayer
62
7
370
-1
100
AcDbSpline
210
0
220
0
230
1
70
8
71
3
72
8
73
4
74
0
42
1e-07
43
1e-07
40
0
40
0
40
0
40
0
40
1
40
1
40
1
40
1
10
79.45425
20
84.96225
30
0
10
81.636
20
84.057
30
0
10
84.02025
20
84.93825
30
0
10
84.53325
20
86.8935
30
0
0
SPLINE
5
1EE
100
AcDbEntity
8
0
6
ByLayer
62
7
370
-1
100
AcDbSpline
210
0
220
0
230
1
70
8
71
3
72
8
73
4
74
0
42
1e-07
43
1e-07
40
0
40
0
40
0
40
0
40
1
40
1
40
1
40
1
10
84.53325
20
86.8935
30
0
10
84.768
20
87.78975
30
0
10
84.768
20
88.87575
30
0
10
85.3845
20
89.55375
30
0
0
SPLINE
5
1EF
100
AcDbEntity
8
0
6
ByLayer
62
7
370
-1
100
AcDbSpline
210
0
220
0
230
1
70
8
71
3
72
8
73
4
74
0
42
1e-07
43
1e-07
40
0
40
0
40
0
40
0
40
1
40
1
40
1
40
1
10
85.3845
20
89.55375
30
0
10
86.02425
20
90.25875
30
0
10
86.601
20
90.5385
30
0
10
87.885
20
90.7725
30
0
0
SPLINE
5
1F0
100
AcDbEntity
8
0
6
ByLayer
62
7
370
-1
100
AcDbSpline
210
0
220
0
230
1
70
8
71
3
72
8
73
4
74
0
42
1e-07
43
1e-07
40
0
40
0
40
0
40
0
40
1
40
1
40
1
40
1
10
87.885
20
90.7725
30
0
10
88.5315
20
90.8895
30
0
10
89.4105
20
90.9075
30
0
10
90.1875
20
90.723
30
0
0
SPLINE
5
1F1
100
AcDbEntity
8
0
6
ByLayer
62
7
370
-1
100
AcDbSpline
210
0
220
0
230
1
70
8
71
3
72
8
73
4
74
0
42
1e-07
43
1e-07
40
0
40
0
40
0
40
0
40
1
40
1
40
1
40
1
10
90.1875
20
90.723
30
0
10
90.843
20
90.567
30
0
10
91.557
20
90.23775
30
0
10
92.01525
20
89.85675
30
0
0
SPLINE
5
1F2
100
AcDbEntity
8
0
6
ByLayer
62
7
370
-1
100
AcDbSpline
210
0
220
0
230
1
70
8
71
3
72
8
73
4
74
0
42
1e-07
43
1e-07
40
0
40
0
40
0
40
0
40
1
40
1
40
1
40
1
10
92.01525
20
89.85675
30
0
10
92.418
20
89.51925
30
0
10
92.8125
20
89.20725
30
0
10
93.26475
20
88.06125
30
0
0
SPLINE
5
1F3
100
AcDbEntity
8
0
6
ByLayer
62
7
370
-1
100
AcDbSpline
210
0
220
0
230
1
70
8
71
3
72
8
73
4
74
0
42
1e-07
43
1e-07
40
0
40
0
40
0
40
0
40
1
40
1
40
1
40
1
10
93.26475
20
88.06125
30
0
10
94.0155
20
86.10375
30
0
10
93.85575
20
84.0615
30
0
10
93.53475
20
82.09275
30
0
0
SPLINE
5
1F4
100
AcDbEntity
8
0
6
ByLayer
62
7
370
-1
100
AcDbSpline
210
0
220
0
230
1
70
8
71
3
72
8
73
4
74
0
42
1e-07
43
1e-07
40
0
40
0
40
0
40
0
40
1
40
1
40
1
40
1
10
93.53475
20
82.09275
30
0
10
93.07275
20
79.25325
30
0
10
91.1265
20
77.28075
30
0
10
88.995
20
75.549
30
0
0
SPLINE
5
1F5
100
AcDbEntity
8
0
6
ByLayer
62
7
370
-1
100
AcDbSpline
210
0
220
0
230
1
70
8
71
3
72
8
73
4
74
0
42
1e-07
43
1e-07
40
0
40
0
40
0
40
0
40
1
40
1
40
1
40
1
10
88.995
20
75.549
30
0
10
85.5855
20
72.77925
30
0
10
81.48825
20
72.47325
30
0
10
77.4645
20
73.15275
30
0
0
SPLINE
5
1F6
100
AcDbEntity
8
0
6
ByLayer
62
7
370
-1
100
AcDbSpline
210
0
220
0
230
1
70
8
71
3
72
8
73
4
74
0
42
1e-07
43
1e-07
40
0
40
0
40
0
40
0
40
1
40
1
40
1
40
1
10
77.4645
20
73.15275
30
0
10
71.97675
20
74.08125
30
0
10
67.91925
20
77.40675
30
0
10
65.24475
20
82.23675
30
0
0
SPLINE
5
1F7
100
AcDbEntity
8
0
6
ByLayer
62
7
370
-1
100
AcDbSpline
210
0
220
0
230
1
70
8
71
3
72
8
73
4
74
0
42
1e-07
43
1e-07
40
0
40
0
40
0
40
0
40
1
40
1
40
1
40
1
10
65.24475
20
82.23675
30
0
10
62.2215
20
87.69675
30
0
10
61.8315
20
93.51825
30
0
10
63.84825
20
99.37725
30
0
0
SPLINE
5
1F8
100
AcDbEntity
8
0
6
ByLayer
62
7
370
-1
100
AcDbSpline
210
0
220
0
230
1
70
8
71
3
72
8
73
4
74
0
42
1e-07
43
1e-07
40
0
40
0
40
0
40
0
40
1
40
1
40
1
40
1
10
63.84825
20
99.37725
30
0
10
67.03575
20
108.63675
30
0
10
73.803
20
113.9625
30
0
10
83.217
20
115.851
30
0
0
SPLINE
5
1F9
100
AcDbEntity
8
0
6
ByLayer
62
7
370
-1
100
AcDbSpline
210
0
220
0
230
1
70
8
71
3
72
8
73
4
74
0
42
1e-07
43
1e-07
40
0
40
0
40
0
40
0
40
1
40
1
40
1
40
1
10
83.217
20
115.851
30
0
10
89.95275
20
117.2025
30
0
10
96.444
20
116.07
30
0
10
102.4725
20
112.65825
30
0
0
SPLINE
5
1FA
100
AcDbEntity
8
0
6
ByLayer
62
7
370
-1
100
AcDbSpline
210
0
220
0
230
1
70
8
71
3
72
8
73
4
74
0
42
1e-07
43
1e-07
40
0
40
0
40
0
40
0
40
1
40
1
40
1
40
1
10
102.4725
20
112.65825
30
0
10
108.903
20
109.01625
30
0
10
113.433
20
103.71675
30
0
10
116.25075
20
96.90525
30
0
0
SPLINE
5
1FB
100
AcDbEntity
8
0
6
ByLayer
62
7
370
-1
100
AcDbSpline
210
0
220
0
230
1
70
8
71
3
72
8
73
4
74
0
42
1e-07
43
1e-07
40
0
40
0
40
0
40
0
40
1
40
1
40
1
40
1
10
116.25075
20
96.90525
30
0
10
117.43725
20
94.04025
30
0
10
117.9135
20
90.9915
30
0
10
118.6575
20
88.01325
30
0
0
SPLINE
5
1FC
100
AcDbEntity
8
0
6
ByLayer
62
7
370
-1
100
AcDbSpline
210
0
220
0
230
1
70
8
71
3
72
8
73
4
74
0
42
1e-07
43
1e-07
40
0
40
0
40
0
40
0
40
1
40
1
40
1
40
1
10
118.6575
20
88.01325
30
0
10
120.6315
20
80.11875
30
0
10
124.422
20
73.263
30
0
10
130.51725
20
67.80825
30
0
0
SPLINE
5
1FD
100
AcDbEntity
8
0
6
ByLayer
62
7
370
-1
100
AcDbSpline
210
0
220
0
230
1
70
8
71
3
72
8
73
4
74
0
42
1e-07
43
1e-07
40
0
40
0
40
0
40
0
40
1
40
1
40
1
40
1
10
130.51725
20
67.80825
30
0
10
139.85175
20
59.451
30
0
10
150.7005
20
56.09775
30
0
10
163.098
20
58.40775
30
0
0
SPLINE
5
1FE
100
AcDbEntity
8
0
6
ByLayer
62
7
370
-1
100
AcDbSpline
210
0
220
0
230
1
70
8
71
3
72
8
73
4
74
0
42
1e-07
43
1e-07
40
0
40
0
40
0
40
0
40
1
40
1
40
1
40
1
10
163.098
20
58.40775
30
0
10
169.752
20
59.6475
30
0
10
175.52925
20
62.75625
30
0
10
180.372
20
67.48575
30
0
0
SPLINE
5
1FF
100
AcDbEntity
8
0
6
ByLayer
62
7
370
-1
100
AcDbSpline
210
0
220
0
230
1
70
8
71
3
72
8
73
4
74
0
42
1e-07
43
1e-07
40
0
40
0
40
0
40
0
40
1
40
1
40
1
40
1
10
180.372
20
67.48575
30
0
10
181.5
20
68.5905
30
0
10
182.706
20
68.6055
30
0
10
183.9165
20
68.20725
30
0
0
SPLINE
5
200
100
AcDbEntity
8
0
6
ByLayer
62
7
370
-1
100
AcDbSpline
210
0
220
0
230
1
70
8
71
3
72
8
73
4
74
0
42
1e-07
43
1e-07
40
0
40
0
40
0
40
0
40
1
40
1
40
1
40
1
10
183.9165
20
68.20725
30
0
10
186.0885
20
67.4925
30
0
10
188.223
20
66.63525
30
0
10
190.302
20
65.68125
30
0
0
SPLINE
5
201
100
AcDbEntity
8
0
6
ByLayer
62
7
370
-1
100
AcDbSpline
210
0
220
0
230
1
70
8
71
3
72
8
73
4
74
0
42
1e-07
43
1e-07
40
0
40
0
40
0
40
0
40
1
40
1
40
1
40
1
10
190.302
20
65.68125
30
0
10
192.46875
20
64.689
30
0
10
194.67975
20
65.68125
30
0
10
195.5205
20
67.4595
30
0
0
SPLINE
5
202
100
AcDbEntity
8
0
6
ByLayer
62
7
370
-1
100
AcDbSpline
210
0
220
0
230
1
70
8
71
3
72
8
73
4
74
0
42
1e-07
43
1e-07
40
0
40
0
40
0
40
0
40
1
40
1
40
1
40
1
10
195.5205
20
67.4595
30
0
10
196.21275
20
68.91675
30
0
10
197.04675
20
70.3125
30
0
10
197.90325
20
71.68425
30
0
0
SPLINE
5
203
100
AcDbEntity
8
0
6
ByLayer
62
7
370
-1
100
AcDbSpline
210
0
220
0
230
1
70
8
71
3
72
8
73
4
74
0
42
1e-07
43
1e-07
40
0
40
0
40
0
40
0
40
1
40
1
40
1
40
1
10
197.90325
20
71.68425
30
0
10
198.9705
20
73.392
30
0
10
198.381
20
75.28275
30
0
10
197.14575
20
76.3755
30
0
0
LWPOLYLINE
5
204
100
AcDbEntity
8
0
6
ByLayer
62
7
370
-1
100
AcDbPolyline
90
1
70
1
43
0
10
228.9165
20
12.80925
0
LWPOLYLINE
5
205
100
AcDbEntity
8
0
6
ByLayer
62
7
370
-1
100
AcDbPolyline
90
1
70
1
43
0
10
197.14575
20
76.3755
0
LWPOLYLINE
5
206
100
AcDbEntity
8
0
6
ByLayer
62
7
370
-1
100
AcDbPolyline
90
7
70
1
43
0
10
123.3435
20
191.9145
10
119.8095
20
191.9145
10
118.04175
20
194.976
10
119.8095
20
198.0375
10
123.3435
20
198.0375
10
125.1105
20
194.976
10
123.3435
20
191.9145
0
SPLINE
5
207
100
AcDbEntity
8
0
6
ByLayer
62
7
370
-1
100
AcDbSpline
210
0
220
0
230
1
70
8
71
3
72
8
73
4
74
0
42
1e-07
43
1e-07
40
0
40
0
40
0
40
0
40
1
40
1
40
1
40
1
10
120.936
20
109.68825
30
0
10
118.9245
20
109.6815
30
0
10
117.28875
20
111.3075
30
0
10
117.28125
20
113.319
30
0
0
SPLINE
5
208
100
AcDbEntity
8
0
6
ByLayer
62
7
370
-1
100
AcDbSpline
210
0
220
0
230
1
70
8
71
3
72
8
73
4
74
0
42
1e-07
43
1e-07
40
0
40
0
40
0
40
0
40
1
40
1
40
1
40
1
10
117.28125
20
113.319
30
0
10
117.27525
20
115.332
30
0
10
118.89975
20
116.96775
30
0
10
120.91125
20
116.9745
30
0
0
SPLINE
5
209
100
AcDbEntity
8
0
6
ByLayer
62
7
370
-1
100
AcDbSpline
210
0
220
0
230
1
70
8
71
3
72
8
73
4
74
0
42
1e-07
43
1e-07
40
0
40
0
40
0
40
0
40
1
40
1
40
1
40
1
10
120.91125
20
116.9745
30
0
10
122.92425
20
116.98125
30
0
10
124.56075
20
115.35675
30
0
10
124.56825
20
113.3445
30
0
0
SPLINE
5
20A
100
AcDbEntity
8
0
6
ByLayer
62
7
370
-1
100
AcDbSpline
210
0
220
0
230
1
70
8
71
3
72
8
73
4
74
0
42
1e-07
43
1e-07
40
0
40
0
40
0
40
0
40
1
40
1
40
1
40
1
10
124.56825
20
113.3445
30
0
10
124.575
20
111.33225
30
0
10
122.949
20
109.69575
30
0
10
120.936
20
109.68825
30
0
0
LWPOLYLINE
5
20B
100
AcDbEntity
8
0
6
ByLayer
62
7
370
-1
100
AcDbPolyline
90
7
70
1
43
0
10
50.9865
20
69.85575
10
47.4525
20
69.85575
10
45.68475
20
72.918
10
47.4525
20
75.97725
10
50.98725
20
75.97725
10
52.75425
20
72.918
10
50.9865
20
69.85575
0
LWPOLYLINE
5
20C
100
AcDbEntity
8
0
6
ByLayer
62
7
370
-1
100
AcDbPolyline
90
1
70
1
43
0
10
120.936
20
109.68825
0
LWPOLYLINE
5
20D
100
AcDbEntity
8
0
6
ByLayer
62
7
370
-1
100
AcDbPolyline
90
7
70
1
43
0
10
193.05825
20
69.85575
10
189.5235
20
69.85575
10
187.75575
20
72.91575
10
189.5235
20
75.97725
10
193.05825
20
75.97725
10
194.82525
20
72.91575
10
193.05825
20
69.85575
0
SPLINE
5
20E
100
AcDbEntity
8
0
6
ByLayer
62
7
370
-1
100
AcDbSpline
210
0
220
0
230
1
70
8
71
3
72
8
73
4
74
0
42
1e-07
43
1e-07
40
0
40
0
40
0
40
0
40
1
40
1
40
1
40
1
10
33.41775
20
90.2415
30
0
10
33.58875
20
92.9295
30
0
10
33.05175
20
97.90875
30
0
10
32.74575
20
99.747
30
0
0
SPLINE
5
20F
100
AcDbEntity
8
0
6
ByLayer
62
7
370
-1
100
AcDbSpline
210
0
220
0
230
1
70
8
71
3
72
8
73
4
74
0
42
1e-07
43
1e-07
40
0
40
0
40
0
40
0
40
1
40
1
40
1
40
1
10
32.74575
20
99.747
30
0
10
32.5065
20
101.8755
30
0
10
32.328
20
102.65175
30
0
10
31.91775
20
103.80225
30
0
0
SPLINE
5
210
100
AcDbEntity
8
0
6
ByLayer
62
7
370
-1
100
AcDbSpline
210
0
220
0
230
1
70
8
71
3
72
8
73
4
74
0
42
1e-07
43
1e-07
40
0
40
0
40
0
40
0
40
1
40
1
40
1
40
1
10
31.91775
20
103.80225
30
0
10
31.326
20
105.462
30
0
10
30.45825
20
107.016
30
0
10
29.30325
20
108.4245
30
0
0
SPLINE
5
211
100
AcDbEntity
8
0
6
ByLayer
62
7
370
-1
100
AcDbSpline
210
0
220
0
230
1
70
8
71
3
72
8
73
4
74
0
42
1e-07
43
1e-07
40
0
40
0
40
0
40
0
40
1
40
1
40
1
40
1
10
29.30325
20
108.4245
30
0
10
27.135
20
111.066
30
0
10
24.58275
20
113.03175
30
0
10
21.216
20
113.8545
30
0
0
SPLINE
5
212
100
AcDbEntity
8
0
6
ByLayer
62
7
370
-1
100
AcDbSpline
210
0
220
0
230
1
70
8
71
3
72
8
73
4
74
0
42
1e-07
43
1e-07
40
0
40
0
40
0
40
0
40
1
40
1
40
1
40
1
10
21.216
20
113.8545
30
0
10
19.7265
20
114.21825
30
0
10
18.228
20
114.6345
30
0
10
16.79625
20
115.12575
30
0
0
SPLINE
5
213
100
AcDbEntity
8
0
6
ByLayer
62
7
370
-1
100
AcDbSpline
210
0
220
0
230
1
70
8
71
3
72
8
73
4
74
0
42
1e-07
43
1e-07
40
0
40
0
40
0
40
0
40
1
40
1
40
1
40
1
10
16.79625
20
115.12575
30
0
10
13.49475
20
116.25975
30
0
10
10.095
20
117.10725
30
0
10
6.867
20
118.44
30
0
0
SPLINE
5
214
100
AcDbEntity
8
0
6
ByLayer
62
7
370
-1
100
AcDbSpline
210
0
220
0
230
1
70
8
71
3
72
8
73
4
74
0
42
1e-07
43
1e-07
40
0
40
0
40
0
40
0
40
1
40
1
40
1
40
1
10
6.867
20
118.44
30
0
10
4.5855
20
119.38275
30
0
10
3.0315
20
120.95625
30
0
10
2.22375
20
123.441
30
0
0
SPLINE
5
215
100
AcDbEntity
8
0
6
ByLayer
62
7
370
-1
100
AcDbSpline
210
0
220
0
230
1
70
8
71
3
72
8
73
4
74
0
42
1e-07
43
1e-07
40
0
40
0
40
0
40
0
40
1
40
1
40
1
40
1
10
2.22375
20
123.441
30
0
10
1.4475
20
125.82825
30
0
10
2.1135
20
128.02425
30
0
10
2.45175
20
130.2825
30
0
0
SPLINE
5
216
100
AcDbEntity
8
0
6
ByLayer
62
7
370
-1
100
AcDbSpline
210
0
220
0
230
1
70
8
71
3
72
8
73
4
74
0
42
1e-07
43
1e-07
40
0
40
0
40
0
40
0
40
1
40
1
40
1
40
1
10
2.45175
20
130.2825
30
0
10
2.94675
20
133.59375
30
0
10
3.50775
20
136.89675
30
0
10
4.1235
20
140.1885
30
0
0
SPLINE
5
217
100
AcDbEntity
8
0
6
ByLayer
62
7
370
-1
100
AcDbSpline
210
0
220
0
230
1
70
8
71
3
72
8
73
4
74
0
42
1e-07
43
1e-07
40
0
40
0
40
0
40
0
40
1
40
1
40
1
40
1
10
4.1235
20
140.1885
30
0
10
4.4745
20
142.065
30
0
10
5.2965
20
143.685
30
0
10
6.72075
20
145.08225
30
0
0
SPLINE
5
218
100
AcDbEntity
8
0
6
ByLayer
62
7
370
-1
100
AcDbSpline
210
0
220
0
230
1
70
8
71
3
72
8
73
4
74
0
42
1e-07
43
1e-07
40
0
40
0
40
0
40
0
40
1
40
1
40
1
40
1
10
6.72075
20
145.08225
30
0
10
8.58075
20
146.907
30
0
10
10.791
20
147.2415
30
0
10
13.18875
20
147.18225
30
0
0
SPLINE
5
219
100
AcDbEntity
8
0
6
ByLayer
62
7
370
-1
100
AcDbSpline
210
0
220
0
230
1
70
8
71
3
72
8
73
4
74
0
42
1e-07
43
1e-07
40
0
40
0
40
0
40
0
40
1
40
1
40
1
40
1
10
13.18875
20
147.18225
30
0
10
15.66825
20
147.12
30
0
10
18.1455
20
147.01875
30
0
10
20.625
20
146.9715
30
0
0
SPLINE
5
21A
100
AcDbEntity
8
0
6
ByLayer
62
7
370
-1
100
AcDbSpline
210
0
220
0
230
1
70
8
71
3
72
8
73
4
74
0
42
1e-07
43
1e-07
40
0
40
0
40
0
40
0
40
1
40
1
40
1
40
1
10
20.625
20
146.9715
30
0
10
23.4045
20
146.919
30
0
10
26.1855
20
146.817
30
0
10
28.96575
20
146.87475
30
0
0
SPLINE
5
21B
100
AcDbEntity
8
0
6
ByLayer
62
7
370
-1
100
AcDbSpline
210
0
220
0
230
1
70
8
71
3
72
8
73
4
74
0
42
1e-07
43
1e-07
40
0
40
0
40
0
40
0
40
1
40
1
40
1
40
1
10
28.96575
20
146.87475
30
0
10
31.557
20
146.92725
30
0
10
32.3805
20
147.26775
30
0
10
33.97125
20
147.89475
30
0
0
SPLINE
5
21C
100
AcDbEntity
8
0
6
ByLayer
62
7
370
-1
100
AcDbSpline
210
0
220
0
230
1
70
8
71
3
72
8
73
4
74
0
42
1e-07
43
1e-07
40
0
40
0
40
0
40
0
40
1
40
1
40
1
40
1
10
33.97125
20
147.89475
30
0
10
35.8875
20
148.64925
30
0
10
37.164
20
149.98125
30
0
10
38.694
20
151.65225
30
0
0
SPLINE
5
21D
100
AcDbEntity
8
0
6
ByLayer
62
7
370
-1
100
AcDbSpline
210
0
220
0
230
1
70
8
71
3
72
8
73
4
74
0
42
1e-07
43
1e-07
40
0
40
0
40
0
40
0
40
1
40
1
40
1
40
1
10
38.694
20
151.65225
30
0
10
40.737
20
154.35075
30
0
10
43.8945
20
158.81025
30
0
10
45.75
20
163.2405
30
0
0
SPLINE
5
21E
100
AcDbEntity
8
0
6
ByLayer
62
7
370
-1
100
AcDbSpline
210
0
220
0
230
1
70
8
71
3
72
8
73
4
74
0
42
1e-07
43
1e-07
40
0
40
0
40
0
40
0
40
1
40
1
40
1
40
1
10
45.75
20
163.2405
30
0
10
46.10475
20
164.85
30
0
10
46.51275
20
166.44525
30
0
10
46.431
20
168.0585
30
0
0
SPLINE
5
21F
100
AcDbEntity
8
0
6
ByLayer
62
7
370
-1
100
AcDbSpline
210
0
220
0
230
1
70
8
71
3
72
8
73
4
74
0
42
1e-07
43
1e-07
40
0
40
0
40
0
40
0
40
1
40
1
40
1
40
1
10
46.431
20
168.0585
30
0
10
46.2945
20
170.75925
30
0
10
45.91275
20
173.3865
30
0
10
44.29725
20
175.773
30
0
0
SPLINE
5
220
100
AcDbEntity
8
0
6
ByLayer
62
7
370
-1
100
AcDbSpline
210
0
220
0
230
1
70
8
71
3
72
8
73
4
74
0
42
1e-07
43
1e-07
40
0
40
0
40
0
40
0
40
1
40
1
40
1
40
1
10
44.29725
20
175.773
30
0
10
43.06275
20
177.59775
30
0
10
41.93175
20
179.52525
30
0
10
40.71975
20
181.36875
30
0
0
SPLINE
5
221
100
AcDbEntity
8
0
6
ByLayer
62
7
370
-1
100
AcDbSpline
210
0
220
0
230
1
70
8
71
3
72
8
73
4
74
0
42
1e-07
43
1e-07
40
0
40
0
40
0
40
0
40
1
40
1
40
1
40
1
10
40.71975
20
181.36875
30
0
10
39.61875
20
183.045
30
0
10
38.5725
20
184.7715
30
0
10
37.437
20
186.43125
30
0
0
SPLINE
5
222
100
AcDbEntity
8
0
6
ByLayer
62
7
370
-1
100
AcDbSpline
210
0
220
0
230
1
70
8
71
3
72
8
73
4
74
0
42
1e-07
43
1e-07
40
0
40
0
40
0
40
0
40
1
40
1
40
1
40
1
10
37.437
20
186.43125
30
0
10
36.31875
20
188.06475
30
0
10
35.1
20
189.765
30
0
10
34.7985
20
191.8125
30
0
0
SPLINE
5
223
100
AcDbEntity
8
0
6
ByLayer
62
7
370
-1
100
AcDbSpline
210
0
220
0
230
1
70
8
71
3
72
8
73
4
74
0
42
1e-07
43
1e-07
40
0
40
0
40
0
40
0
40
1
40
1
40
1
40
1
10
34.7985
20
191.8125
30
0
10
34.479
20
193.986
30
0
10
34.85475
20
196.00125
30
0
10
36.267
20
197.823
30
0
0
SPLINE
5
224
100
AcDbEntity
8
0
6
ByLayer
62
7
370
-1
100
AcDbSpline
210
0
220
0
230
1
70
8
71
3
72
8
73
4
74
0
42
1e-07
43
1e-07
40
0
40
0
40
0
40
0
40
1
40
1
40
1
40
1
10
36.267
20
197.823
30
0
10
37.97775
20
200.028
30
0
10
40.31325
20
201.51525
30
0
10
42.32325
20
203.37375
30
0
0
SPLINE
5
225
100
AcDbEntity
8
0
6
ByLayer
62
7
370
-1
100
AcDbSpline
210
0
220
0
230
1
70
8
71
3
72
8
73
4
74
0
42
1e-07
43
1e-07
40
0
40
0
40
0
40
0
40
1
40
1
40
1
40
1
10
42.32325
20
203.37375
30
0
10
43.99425
20
204.9195
30
0
10
45.75375
20
206.37375
30
0
10
47.51175
20
207.822
30
0
0
SPLINE
5
226
100
AcDbEntity
8
0
6
ByLayer
62
7
370
-1
100
AcDbSpline
210
0
220
0
230
1
70
8
71
3
72
8
73
4
74
0
42
1e-07
43
1e-07
40
0
40
0
40
0
40
0
40
1
40
1
40
1
40
1
10
47.51175
20
207.822
30
0
10
48.9795
20
209.03175
30
0
10
50.652
20
209.715
30
0
10
52.587
20
209.9145
30
0
0
SPLINE
5
227
100
AcDbEntity
8
0
6
ByLayer
62
7
370
-1
100
AcDbSpline
210
0
220
0
230
1
70
8
71
3
72
8
73
4
74
0
42
1e-07
43
1e-07
40
0
40
0
40
0
40
0
40
1
40
1
40
1
40
1
10
52.587
20
209.9145
30
0
10
55.26
20
210.189
30
0
10
57.1905
20
208.92975
30
0
10
59.058
20
207.28875
30
0
0
SPLINE
5
228
100
AcDbEntity
8
0
6
ByLayer
62
7
370
-1
100
AcDbSpline
210
0
220
0
230
1
70
8
71
3
72
8
73
4
74
0
42
1e-07
43
1e-07
40
0
40
0
40
0
40
0
40
1
40
1
40
1
40
1
10
59.058
20
207.28875
30
0
10
60.918
20
205.6545
30
0
10
62.78775
20
204.0315
30
0
10
64.62825
20
202.37325
30
0
0
SPLINE
5
229
100
AcDbEntity
8
0
6
ByLayer
62
7
370
-1
100
AcDbSpline
210
0
220
0
230
1
70
8
71
3
72
8
73
4
74
0
42
1e-07
43
1e-07
40
0
40
0
40
0
40
0
40
1
40
1
40
1
40
1
10
64.62825
20
202.37325
30
0
10
66.74325
20
200.46825
30
0
10
68.91975
20
198.62925
30
0
10
71.1105
20
196.80825
30
0
0
SPLINE
5
22A
100
AcDbEntity
8
0
6
ByLayer
62
7
370
-1
100
AcDbSpline
210
0
220
0
230
1
70
8
71
3
72
8
73
4
74
0
42
1e-07
43
1e-07
40
0
40
0
40
0
40
0
40
1
40
1
40
1
40
1
10
71.1105
20
196.80825
30
0
10
72.8445
20
195.73125
30
0
10
73.48575
20
195.44475
30
0
10
75.2415
20
194.81925
30
0
0
SPLINE
5
22B
100
AcDbEntity
8
0
6
ByLayer
62
7
370
-1
100
AcDbSpline
210
0
220
0
230
1
70
8
71
3
72
8
73
4
74
0
42
1e-07
43
1e-07
40
0
40
0
40
0
40
0
40
1
40
1
40
1
40
1
10
75.2415
20
194.81925
30
0
10
76.70025
20
194.34225
30
0
10
78.14475
20
194.166
30
0
10
79.614
20
194.1045
30
0
0
SPLINE
5
22C
100
AcDbEntity
8
0
6
ByLayer
62
7
370
-1
100
AcDbSpline
210
0
220
0
230
1
70
8
71
3
72
8
73
4
74
0
42
1e-07
43
1e-07
40
0
40
0
40
0
40
0
40
1
40
1
40
1
40
1
10
79.614
20
194.1045
30
0
10
85.281
20
194.1525
30
0
10
93.8895
20
196.83075
30
0
10
97.22475
20
199.857
30
0
0
SPLINE
5
22D
100
AcDbEntity
8
0
6
ByLayer
62
7
370
-1
100
AcDbSpline
210
0
220
0
230
1
70
8
71
3
72
8
73
4
74
0
42
1e-07
43
1e-07
40
0
40
0
40
0
40
0
40
1
40
1
40
1
40
1
10
97.22475
20
199.857
30
0
10
99.033
20
201.60825
30
0
10
99.819
20
202.24425
30
0
10
100.854
20
204.18225
30
0
0
SPLINE
5
22E
100
AcDbEntity
8
0
6
ByLayer
62
7
370
-1
100
AcDbSpline
210
0
220
0
230
1
70
8
71
3
72
8
73
4
74
0
42
1e-07
43
1e-07
40
0
40
0
40
0
40
0
40
1
40
1
40
1
40
1
10
100.854
20
204.18225
30
0
10
101.53425
20
205.5315
30
0
10
101.928
20
206.83725
30
0
10
102.291
20
208.26675
30
0
0
SPLINE
5
22F
100
AcDbEntity
8
0
6
ByLayer
62
7
370
-1
100
AcDbSpline
210
0
220
0
230
1
70
8
71
3
72
8
73
4
74
0
42
1e-07
43
1e-07
40
0
40
0
40
0
40
0
40
1
40
1
40
1
40
1
10
102.291
20
208.26675
30
0
10
102.672
20
209.77425
30
0
10
105.88425
20
225.2625
30
0
10
106.33725
20
227.39775
30
0
0
SPLINE
5
230
100
AcDbEntity
8
0
6
ByLayer
62
7
370
-1
100
AcDbSpline
210
0
220
0
230
1
70
8
71
3
72
8
73
4
74
0
42
1e-07
43
1e-07
40
0
40
0
40
0
40
0
40
1
40
1
40
1
40
1
10
106.33725
20
227.39775
30
0
10
107.01225
20
230.57625
30
0
10
109.9635
20
232.11975
30
0
10
114.0885
20
232.134
30
0
0
SPLINE
5
231
100
AcDbEntity
8
0
6
ByLayer
62
7
370
-1
100
AcDbSpline
210
0
220
0
230
1
70
8
71
3
72
8
73
4
74
0
42
1e-07
43
1e-07
40
0
40
0
40
0
40
0
40
1
40
1
40
1
40
1
10
114.0885
20
232.134
30
0
10
119.40525
20
232.15425
30
0
10
122.28375
20
232.1715
30
0
10
127.581
20
232.18125
30
0
0
SPLINE
5
232
100
AcDbEntity
8
0
6
ByLayer
62
7
370
-1
100
AcDbSpline
210
0
220
0
230
1
70
8
71
3
72
8
73
4
74
0
42
1e-07
43
1e-07
40
0
40
0
40
0
40
0
40
1
40
1
40
1
40
1
10
127.581
20
232.18125
30
0
10
130.15275
20
232.18575
30
0
10
133.68
20
230.13825
30
0
10
134.301
20
227.63025
30
0
0
SPLINE
5
233
100
AcDbEntity
8
0
6
ByLayer
62
7
370
-1
100
AcDbSpline
210
0
220
0
230
1
70
8
71
3
72
8
73
4
74
0
42
1e-07
43
1e-07
40
0
40
0
40
0
40
0
40
1
40
1
40
1
40
1
10
134.301
20
227.63025
30
0
10
134.81925
20
225.54225
30
0
10
137.754
20
208.57575
30
0
10
137.92875
20
207.528
30
0
0
SPLINE
5
234
100
AcDbEntity
8
0
6
ByLayer
62
7
370
-1
100
AcDbSpline
210
0
220
0
230
1
70
8
71
3
72
8
73
4
74
0
42
1e-07
43
1e-07
40
0
40
0
40
0
40
0
40
1
40
1
40
1
40
1
10
137.92875
20
207.528
30
0
10
138.3825
20
205.431
30
0
10
139.329
20
204.34275
30
0
10
139.67175
20
203.75625
30
0
0
SPLINE
5
235
100
AcDbEntity
8
0
6
ByLayer
62
7
370
-1
100
AcDbSpline
210
0
220
0
230
1
70
8
71
3
72
8
73
4
74
0
42
1e-07
43
1e-07
40
0
40
0
40
0
40
0
40
1
40
1
40
1
40
1
10
139.67175
20
203.75625
30
0
10
141.33375
20
201.192
30
0
10
143.067
20
199.49025
30
0
10
145.94625
20
198.16275
30
0
0
SPLINE
5
236
100
AcDbEntity
8
0
6
ByLayer
62
7
370
-1
100
AcDbSpline
210
0
220
0
230
1
70
8
71
3
72
8
73
4
74
0
42
1e-07
43
1e-07
40
0
40
0
40
0
40
0
40
1
40
1
40
1
40
1
10
145.94625
20
198.16275
30
0
10
148.6125
20
196.99575
30
0
10
155.6715
20
194.8395
30
0
10
156.44175
20
194.6265
30
0
0
SPLINE
5
237
100
AcDbEntity
8
0
6
ByLayer
62
7
370
-1
100
AcDbSpline
210
0
220
0
230
1
70
8
71
3
72
8
73
4
74
0
42
1e-07
43
1e-07
40
0
40
0
40
0
40
0
40
1
40
1
40
1
40
1
10
156.44175
20
194.6265
30
0
10
158.9505
20
193.9335
30
0
10
161.49825
20
193.9215
30
0
10
163.959
20
194.44125
30
0
0
SPLINE
5
238
100
AcDbEntity
8
0
6
ByLayer
62
7
370
-1
100
AcDbSpline
210
0
220
0
230
1
70
8
71
3
72
8
73
4
74
0
42
1e-07
43
1e-07
40
0
40
0
40
0
40
0
40
1
40
1
40
1
40
1
10
163.959
20
194.44125
30
0
10
166.599
20
194.99775
30
0
10
168.9975
20
196.21725
30
0
10
171.0105
20
198.15975
30
0
0
SPLINE
5
239
100
AcDbEntity
8
0
6
ByLayer
62
7
370
-1
100
AcDbSpline
210
0
220
0
230
1
70
8
71
3
72
8
73
4
74
0
42
1e-07
43
1e-07
40
0
40
0
40
0
40
0
40
1
40
1
40
1
40
1
10
171.0105
20
198.15975
30
0
10
173.42025
20
200.3805
30
0
10
175.13325
20
201.86625
30
0
10
177.60975
20
204.06525
30
0
0
SPLINE
5
23A
100
AcDbEntity
8
0
6
ByLayer
62
7
370
-1
100
AcDbSpline
210
0
220
0
230
1
70
8
71
3
72
8
73
4
74
0
42
1e-07
43
1e-07
40
0
40
0
40
0
40
0
40
1
40
1
40
1
40
1
10
177.60975
20
204.06525
30
0
10
178.9965
20
205.2975
30
0
10
180.342
20
206.574
30
0
10
181.72575
20
207.8085
30
0
0
SPLINE
5
23B
100
AcDbEntity
8
0
6
ByLayer
62
7
370
-1
100
AcDbSpline
210
0
220
0
230
1
70
8
71
3
72
8
73
4
74
0
42
1e-07
43
1e-07
40
0
40
0
40
0
40
0
40
1
40
1
40
1
40
1
10
181.72575
20
207.8085
30
0
10
182.83575
20
208.8
30
0
10
184.08
20
209.52375
30
0
10
185.55075
20
209.92725
30
0
0
SPLINE
5
23C
100
AcDbEntity
8
0
6
ByLayer
62
7
370
-1
100
AcDbSpline
210
0
220
0
230
1
70
8
71
3
72
8
73
4
74
0
42
1e-07
43
1e-07
40
0
40
0
40
0
40
0
40
1
40
1
40
1
40
1
10
185.55075
20
209.92725
30
0
10
188.589
20
210.762
30
0
10
191.073
20
209.65575
30
0
10
193.31925
20
207.8085
30
0
0
SPLINE
5
23D
100
AcDbEntity
8
0
6
ByLayer
62
7
370
-1
100
AcDbSpline
210
0
220
0
230
1
70
8
71
3
72
8
73
4
74
0
42
1e-07
43
1e-07
40
0
40
0
40
0
40
0
40
1
40
1
40
1
40
1
10
193.31925
20
207.8085
30
0
10
196.53225
20
205.1715
30
0
10
199.6785
20
202.45575
30
0
10
202.84875
20
199.77225
30
0
0
SPLINE
5
23E
100
AcDbEntity
8
0
6
ByLayer
62
7
370
-1
100
AcDbSpline
210
0
220
0
230
1
70
8
71
3
72
8
73
4
74
0
42
1e-07
43
1e-07
40
0
40
0
40
0
40
0
40
1
40
1
40
1
40
1
10
202.84875
20
199.77225
30
0
10
204.282
20
198.558
30
0
10
205.19025
20
197.082
30
0
10
205.6725
20
195.21225
30
0
0
SPLINE
5
23F
100
AcDbEntity
8
0
6
ByLayer
62
7
370
-1
100
AcDbSpline
210
0
220
0
230
1
70
8
71
3
72
8
73
4
74
0
42
1e-07
43
1e-07
40
0
40
0
40
0
40
0
40
1
40
1
40
1
40
1
10
205.6725
20
195.21225
30
0
10
206.37675
20
192.47775
30
0
10
205.28175
20
190.29825
30
0
10
203.9985
20
188.0895
30
0
0
SPLINE
5
240
100
AcDbEntity
8
0
6
ByLayer
62
7
370
-1
100
AcDbSpline
210
0
220
0
230
1
70
8
71
3
72
8
73
4
74
0
42
1e-07
43
1e-07
40
0
40
0
40
0
40
0
40
1
40
1
40
1
40
1
10
203.9985
20
188.0895
30
0
10
203.0295
20
186.42075
30
0
10
201.98325
20
184.7955
30
0
10
200.98425
20
183.1455
30
0
0
SPLINE
5
241
100
AcDbEntity
8
0
6
ByLayer
62
7
370
-1
100
AcDbSpline
210
0
220
0
230
1
70
8
71
3
72
8
73
4
74
0
42
1e-07
43
1e-07
40
0
40
0
40
0
40
0
40
1
40
1
40
1
40
1
10
200.98425
20
183.1455
30
0
10
200.1315
20
181.73325
30
0
10
199.15725
20
180.3645
30
0
10
198.255
20
178.971
30
0
0
SPLINE
5
242
100
AcDbEntity
8
0
6
ByLayer
62
7
370
-1
100
AcDbSpline
210
0
220
0
230
1
70
8
71
3
72
8
73
4
74
0
42
1e-07
43
1e-07
40
0
40
0
40
0
40
0
40
1
40
1
40
1
40
1
10
198.255
20
178.971
30
0
10
197.0955
20
177.1815
30
0
10
195.8955
20
175.4085
30
0
10
195.0765
20
173.4105
30
0
0
SPLINE
5
243
100
AcDbEntity
8
0
6
ByLayer
62
7
370
-1
100
AcDbSpline
210
0
220
0
230
1
70
8
71
3
72
8
73
4
74
0
42
1e-07
43
1e-07
40
0
40
0
40
0
40
0
40
1
40
1
40
1
40
1
10
195.0765
20
173.4105
30
0
10
193.73625
20
170.142
30
0
10
193.89525
20
168.4155
30
0
10
194.54325
20
165.6345
30
0
0
SPLINE
5
244
100
AcDbEntity
8
0
6
ByLayer
62
7
370
-1
100
AcDbSpline
210
0
220
0
230
1
70
8
71
3
72
8
73
4
74
0
42
1e-07
43
1e-07
40
0
40
0
40
0
40
0
40
1
40
1
40
1
40
1
10
194.54325
20
165.6345
30
0
10
194.92125
20
163.9035
30
0
10
197.7675
20
157.4595
30
0
10
198.66
20
155.9685
30
0
0
SPLINE
5
245
100
AcDbEntity
8
0
6
ByLayer
62
7
370
-1
100
AcDbSpline
210
0
220
0
230
1
70
8
71
3
72
8
73
4
74
0
42
1e-07
43
1e-07
40
0
40
0
40
0
40
0
40
1
40
1
40
1
40
1
10
198.66
20
155.9685
30
0
10
199.5495
20
154.17375
30
0
10
200.47725
20
152.50725
30
0
10
201.9225
20
150.80325
30
0
0
SPLINE
5
246
100
AcDbEntity
8
0
6
ByLayer
62
7
370
-1
100
AcDbSpline
210
0
220
0
230
1
70
8
71
3
72
8
73
4
74
0
42
1e-07
43
1e-07
40
0
40
0
40
0
40
0
40
1
40
1
40
1
40
1
10
201.9225
20
150.80325
30
0
10
203.30925
20
149.19675
30
0
10
204.159
20
148.16325
30
0
10
208.7205
20
146.4945
30
0
0
SPLINE
5
247
100
AcDbEntity
8
0
6
ByLayer
62
7
370
-1
100
AcDbSpline
210
0
220
0
230
1
70
8
71
3
72
8
73
4
74
0
42
1e-07
43
1e-07
40
0
40
0
40
0
40
0
40
1
40
1
40
1
40
1
10
208.7205
20
146.4945
30
0
10
210.32625
20
145.82175
30
0
10
214.149
20
145.845
30
0
10
216.9045
20
145.96425
30
0
0
SPLINE
5
248
100
AcDbEntity
8
0
6
ByLayer
62
7
370
-1
100
AcDbSpline
210
0
220
0
230
1
70
8
71
3
72
8
73
4
74
0
42
1e-07
43
1e-07
40
0
40
0
40
0
40
0
40
1
40
1
40
1
40
1
10
216.9045
20
145.96425
30
0
10
219.4875
20
146.076
30
0
10
222.072
20
146.163
30
0
10
224.65575
20
146.19
30
0
0
SPLINE
5
249
100
AcDbEntity
8
0
6
ByLayer
62
7
370
-1
100
AcDbSpline
210
0
220
0
230
1
70
8
71
3
72
8
73
4
74
0
42
1e-07
43
1e-07
40
0
40
0
40
0
40
0
40
1
40
1
40
1
40
1
10
224.65575
20
146.19
30
0
10
226.58175
20
146.211
30
0
10
228.504
20
146.49975
30
0
10
230.43825
20
146.208
30
0
0
SPLINE
5
24A
100
AcDbEntity
8
0
6
ByLayer
62
7
370
-1
100
AcDbSpline
210
0
220
0
230
1
70
8
71
3
72
8
73
4
74
0
42
1e-07
43
1e-07
40
0
40
0
40
0
40
0
40
1
40
1
40
1
40
1
10
230.43825
20
146.208
30
0
10
233.81925
20
145.69875
30
0
10
235.94775
20
143.80275
30
0
10
236.92425
20
140.55675
30
0
0
SPLINE
5
24B
100
AcDbEntity
8
0
6
ByLayer
62
7
370
-1
100
AcDbSpline
210
0
220
0
230
1
70
8
71
3
72
8
73
4
74
0
42
1e-07
43
1e-07
40
0
40
0
40
0
40
0
40
1
40
1
40
1
40
1
10
236.92425
20
140.55675
30
0
10
237.9015
20
137.307
30
0
10
238.2105
20
133.92825
30
0
10
238.84725
20
130.61325
30
0
0
SPLINE
5
24C
100
AcDbEntity
8
0
6
ByLayer
62
7
370
-1
100
AcDbSpline
210
0
220
0
230
1
70
8
71
3
72
8
73
4
74
0
42
1e-07
43
1e-07
40
0
40
0
40
0
40
0
40
1
40
1
40
1
40
1
10
238.84725
20
130.61325
30
0
10
239.154
20
129.0255
30
0
10
239.39625
20
127.42575
30
0
10
239.64375
20
125.8275
30
0
0
SPLINE
5
24D
100
AcDbEntity
8
0
6
ByLayer
62
7
370
-1
100
AcDbSpline
210
0
220
0
230
1
70
8
71
3
72
8
73
4
74
0
42
1e-07
43
1e-07
40
0
40
0
40
0
40
0
40
1
40
1
40
1
40
1
10
239.64375
20
125.8275
30
0
10
239.9535
20
123.81375
30
0
10
239.31375
20
121.95075
30
0
10
238.338
20
120.2955
30
0
0
SPLINE
5
24E
100
AcDbEntity
8
0
6
ByLayer
62
7
370
-1
100
AcDbSpline
210
0
220
0
230
1
70
8
71
3
72
8
73
4
74
0
42
1e-07
43
1e-07
40
0
40
0
40
0
40
0
40
1
40
1
40
1
40
1
10
238.338
20
120.2955
30
0
10
238.017
20
119.74875
30
0
10
237.41775
20
118.98375
30
0
10
236.60325
20
118.72725
30
0
0
SPLINE
5
24F
100
AcDbEntity
8
0
6
ByLayer
62
7
370
-1
100
AcDbSpline
210
0
220
0
230
1
70
8
71
3
72
8
73
4
74
0
42
1e-07
43
1e-07
40
0
40
0
40
0
40
0
40
1
40
1
40
1
40
1
10
236.60325
20
118.72725
30
0
10
236.259
20
118.6185
30
0
10
236.09775
20
118.31475
30
0
10
235.875
20
118.07625
30
0
0
SPLINE
5
250
100
AcDbEntity
8
0
6
ByLayer
62
7
370
-1
100
AcDbSpline
210
0
220
0
230
1
70
8
71
3
72
8
73
4
74
0
42
1e-07
43
1e-07
40
0
40
0
40
0
40
0
40
1
40
1
40
1
40
1
10
235.875
20
118.07625
30
0
10
234.8535
20
117.576
30
0
10
233.83875
20
117.0615
30
0
10
232.71525
20
116.826
30
0
0
SPLINE
5
251
100
AcDbEntity
8
0
6
ByLayer
62
7
370
-1
100
AcDbSpline
210
0
220
0
230
1
70
8
71
3
72
8
73
4
74
0
42
1e-07
43
1e-07
40
0
40
0
40
0
40
0
40
1
40
1
40
1
40
1
10
232.71525
20
116.826
30
0
10
230.9295
20
116.08575
30
0
10
229.041
20
115.6485
30
0
10
227.22375
20
114.99075
30
0
0
SPLINE
5
252
100
AcDbEntity
8
0
6
ByLayer
62
7
370
-1
100
AcDbSpline
210
0
220
0
230
1
70
8
71
3
72
8
73
4
74
0
42
1e-07
43
1e-07
40
0
40
0
40
0
40
0
40
1
40
1
40
1
40
1
10
227.22375
20
114.99075
30
0
10
225.35925
20
114.315
30
0
10
223.398
20
113.85225
30
0
10
221.4975
20
113.2425
30
0
0
SPLINE
5
253
100
AcDbEntity
8
0
6
ByLayer
62
7
370
-1
100
AcDbSpline
210
0
220
0
230
1
70
8
71
3
72
8
73
4
74
0
42
1e-07
43
1e-07
40
0
40
0
40
0
40
0
40
1
40
1
40
1
40
1
10
221.4975
20
113.2425
30
0
10
219.879
20
112.725
30
0
10
218.24775
20
112.2345
30
0
10
216.70425
20
111.48375
30
0
0
SPLINE
5
254
100
AcDbEntity
8
0
6
ByLayer
62
7
370
-1
100
AcDbSpline
210
0
220
0
230
1
70
8
71
3
72
8
73
4
74
0
42
1e-07
43
1e-07
40
0
40
0
40
0
40
0
40
1
40
1
40
1
40
1
10
216.70425
20
111.48375
30
0
10
214.5555
20
110.31975
30
0
10
211.7055
20
107.124
30
0
10
210.73875
20
105.03825
30
0
0
SPLINE
5
255
100
AcDbEntity
8
0
6
ByLayer
62
7
370
-1
100
AcDbSpline
210
0
220
0
230
1
70
8
71
3
72
8
73
4
74
0
42
1e-07
43
1e-07
40
0
40
0
40
0
40
0
40
1
40
1
40
1
40
1
10
210.73875
20
105.03825
30
0
10
210.093
20
103.6395
30
0
10
207.46725
20
92.952
30
0
10
207.44775
20
91.38375
30
0
0
SPLINE
5
256
100
AcDbEntity
8
0
6
ByLayer
62
7
370
-1
100
AcDbSpline
210
0
220
0
230
1
70
8
71
3
72
8
73
4
74
0
42
1e-07
43
1e-07
40
0
40
0
40
0
40
0
40
1
40
1
40
1
40
1
10
207.44775
20
91.38375
30
0
10
207.42375
20
89.50425
30
0
10
207.8805
20
87.77325
30
0
10
208.53675
20
86.17725
30
0
0
SPLINE
5
257
100
AcDbEntity
8
0
6
ByLayer
62
7
370
-1
100
AcDbSpline
210
0
220
0
230
1
70
8
71
3
72
8
73
4
74
0
42
1e-07
43
1e-07
40
0
40
0
40
0
40
0
40
1
40
1
40
1
40
1
10
208.53675
20
86.17725
30
0
10
209.5545
20
83.69175
30
0
10
211.13475
20
81.504
30
0
10
213.40125
20
79.8645
30
0
0
SPLINE
5
258
100
AcDbEntity
8
0
6
ByLayer
62
7
370
-1
100
AcDbSpline
210
0
220
0
230
1
70
8
71
3
72
8
73
4
74
0
42
1e-07
43
1e-07
40
0
40
0
40
0
40
0
40
1
40
1
40
1
40
1
10
213.40125
20
79.8645
30
0
10
216.78225
20
77.2875
30
0
10
220.12875
20
74.6205
30
0
10
224.712
20
71.0355
30
0
0
SPLINE
5
259
100
AcDbEntity
8
0
6
ByLayer
62
7
370
-1
100
AcDbSpline
210
0
220
0
230
1
70
8
71
3
72
8
73
4
74
0
42
1e-07
43
1e-07
40
0
40
0
40
0
40
0
40
1
40
1
40
1
40
1
10
224.712
20
71.0355
30
0
10
226.79775
20
69.4245
30
0
10
227.69325
20
68.421
30
0
10
228.171
20
65.649
30
0
0
SPLINE
5
25A
100
AcDbEntity
8
0
6
ByLayer
62
7
370
-1
100
AcDbSpline
210
0
220
0
230
1
70
8
71
3
72
8
73
4
74
0
42
1e-07
43
1e-07
40
0
40
0
40
0
40
0
40
1
40
1
40
1
40
1
10
228.171
20
65.649
30
0
10
228.36075
20
63.2205
30
0
10
227.706
20
61.1655
30
0
10
226.52175
20
59.15475
30
0
0
SPLINE
5
25B
100
AcDbEntity
8
0
6
ByLayer
62
7
370
-1
100
AcDbSpline
210
0
220
0
230
1
70
8
71
3
72
8
73
4
74
0
42
1e-07
43
1e-07
40
0
40
0
40
0
40
0
40
1
40
1
40
1
40
1
10
226.52175
20
59.15475
30
0
10
224.3985
20
55.542
30
0
10
222.3525
20
51.88275
30
0
10
220.17375
20
48.30225
30
0
0
SPLINE
5
25C
100
AcDbEntity
8
0
6
ByLayer
62
7
370
-1
100
AcDbSpline
210
0
220
0
230
1
70
8
71
3
72
8
73
4
74
0
42
1e-07
43
1e-07
40
0
40
0
40
0
40
0
40
1
40
1
40
1
40
1
10
220.17375
20
48.30225
30
0
10
219.33975
20
46.9305
30
0
10
218.091
20
45.9615
30
0
10
216.564
20
45.25875
30
0
0
SPLINE
5
25D
100
AcDbEntity
8
0
6
ByLayer
62
7
370
-1
100
AcDbSpline
210
0
220
0
230
1
70
8
71
3
72
8
73
4
74
0
42
1e-07
43
1e-07
40
0
40
0
40
0
40
0
40
1
40
1
40
1
40
1
10
216.564
20
45.25875
30
0
10
213.909
20
44.0385
30
0
10
211.521
20
44.7945
30
0
10
209.03175
20
45.74325
30
0
0
SPLINE
5
25E
100
AcDbEntity
8
0
6
ByLayer
62
7
370
-1
100
AcDbSpline
210
0
220
0
230
1
70
8
71
3
72
8
73
4
74
0
42
1e-07
43
1e-07
40
0
40
0
40
0
40
0
40
1
40
1
40
1
40
1
10
209.03175
20
45.74325
30
0
10
207.25725
20
46.41825
30
0
10
175.72275
20
59.54775
30
0
10
174.7995
20
59.9775
30
0
0
SPLINE
5
25F
100
AcDbEntity
8
0
6
ByLayer
62
7
370
-1
100
AcDbSpline
210
0
220
0
230
1
70
8
71
3
72
8
73
4
74
0
42
1e-07
43
1e-07
40
0
40
0
40
0
40
0
40
1
40
1
40
1
40
1
10
174.7995
20
59.9775
30
0
10
177.39975
20
61.5255
30
0
10
179.6055
20
63.222
30
0
10
180.8145
20
64.377
30
0
0
SPLINE
5
260
100
AcDbEntity
8
0
6
ByLayer
62
7
370
-1
100
AcDbSpline
210
0
220
0
230
1
70
8
71
3
72
8
73
4
74
0
42
1e-07
43
1e-07
40
0
40
0
40
0
40
0
40
1
40
1
40
1
40
1
10
180.8145
20
64.377
30
0
10
181.761
20
65.337
30
0
10
182.50575
20
65.382
30
0
10
183.68475
20
64.824
30
0
0
SPLINE
5
261
100
AcDbEntity
8
0
6
ByLayer
62
7
370
-1
100
AcDbSpline
210
0
220
0
230
1
70
8
71
3
72
8
73
4
74
0
42
1e-07
43
1e-07
40
0
40
0
40
0
40
0
40
1
40
1
40
1
40
1
10
183.68475
20
64.824
30
0
10
185.85675
20
63.85725
30
0
10
186.97725
20
63.43125
30
0
10
188.8665
20
62.751
30
0
0
SPLINE
5
262
100
AcDbEntity
8
0
6
ByLayer
62
7
370
-1
100
AcDbSpline
210
0
220
0
230
1
70
8
71
3
72
8
73
4
74
0
42
1e-07
43
1e-07
40
0
40
0
40
0
40
0
40
1
40
1
40
1
40
1
10
188.8665
20
62.751
30
0
10
191.81475
20
61.512
30
0
10
194.02275
20
61.1775
30
0
10
195.76275
20
63.38175
30
0
0
SPLINE
5
263
100
AcDbEntity
8
0
6
ByLayer
62
7
370
-1
100
AcDbSpline
210
0
220
0
230
1
70
8
71
3
72
8
73
4
74
0
42
1e-07
43
1e-07
40
0
40
0
40
0
40
0
40
1
40
1
40
1
40
1
10
195.76275
20
63.38175
30
0
10
196.086
20
63.75825
30
0
10
199.47675
20
69.07275
30
0
10
199.72575
20
69.468
30
0
0
SPLINE
5
264
100
AcDbEntity
8
0
6
ByLayer
62
7
370
-1
100
AcDbSpline
210
0
220
0
230
1
70
8
71
3
72
8
73
4
74
0
42
1e-07
43
1e-07
40
0
40
0
40
0
40
0
40
1
40
1
40
1
40
1
10
199.72575
20
69.468
30
0
10
201.5145
20
72.31425
30
0
10
202.39275
20
75.318
30
0
10
199.2015
20
78.09375
30
0
0
SPLINE
5
265
100
AcDbEntity
8
0
6
ByLayer
62
7
370
-1
100
AcDbSpline
210
0
220
0
230
1
70
8
71
3
72
8
73
4
74
0
42
1e-07
43
1e-07
40
0
40
0
40
0
40
0
40
1
40
1
40
1
40
1
10
199.2015
20
78.09375
30
0
10
197.3115
20
79.7115
30
0
10
196.1835
20
80.823
30
0
10
193.7025
20
82.944
30
0
0
SPLINE
5
266
100
AcDbEntity
8
0
6
ByLayer
62
7
370
-1
100
AcDbSpline
210
0
220
0
230
1
70
8
71
3
72
8
73
4
74
0
42
1e-07
43
1e-07
40
0
40
0
40
0
40
0
40
1
40
1
40
1
40
1
10
193.7025
20
82.944
30
0
10
192.417
20
84.04425
30
0
10
192.38025
20
84.8265
30
0
10
192.72375
20
86.35575
30
0
0
SPLINE
5
267
100
AcDbEntity
8
0
6
ByLayer
62
7
370
-1
100
AcDbSpline
210
0
220
0
230
1
70
8
71
3
72
8
73
4
74
0
42
1e-07
43
1e-07
40
0
40
0
40
0
40
0
40
1
40
1
40
1
40
1
10
192.72375
20
86.35575
30
0
10
193.218
20
88.5525
30
0
10
193.26375
20
89.31825
30
0
10
193.55175
20
93.67875
30
0
0
SPLINE
5
268
100
AcDbEntity
8
0
6
ByLayer
62
7
370
-1
100
AcDbSpline
210
0
220
0
230
1
70
8
71
3
72
8
73
4
74
0
42
1e-07
43
1e-07
40
0
40
0
40
0
40
0
40
1
40
1
40
1
40
1
10
193.55175
20
93.67875
30
0
10
193.5255
20
95.04375
30
0
10
193.52925
20
97.00725
30
0
10
193.6245
20
98.49375
30
0
0
SPLINE
5
269
100
AcDbEntity
8
0
6
ByLayer
62
7
370
-1
100
AcDbSpline
210
0
220
0
230
1
70
8
71
3
72
8
73
4
74
0
42
1e-07
43
1e-07
40
0
40
0
40
0
40
0
40
1
40
1
40
1
40
1
10
193.6245
20
98.49375
30
0
10
194.31825
20
102.48525
30
0
10
194.56425
20
103.85625
30
0
10
194.89875
20
107.514
30
0
0
SPLINE
5
26A
100
AcDbEntity
8
0
6
ByLayer
62
7
370
-1
100
AcDbSpline
210
0
220
0
230
1
70
8
71
3
72
8
73
4
74
0
42
1e-07
43
1e-07
40
0
40
0
40
0
40
0
40
1
40
1
40
1
40
1
10
194.89875
20
107.514
30
0
10
195.159
20
110.3685
30
0
10
195.22425
20
112.854
30
0
10
194.98875
20
118.2375
30
0
0
SPLINE
5
26B
100
AcDbEntity
8
0
6
ByLayer
62
7
370
-1
100
AcDbSpline
210
0
220
0
230
1
70
8
71
3
72
8
73
4
74
0
42
1e-07
43
1e-07
40
0
40
0
40
0
40
0
40
1
40
1
40
1
40
1
10
194.98875
20
118.2375
30
0
10
194.42775
20
124.40025
30
0
10
194.097
20
126.2445
30
0
10
192.93225
20
131.46225
30
0
0
SPLINE
5
26C
100
AcDbEntity
8
0
6
ByLayer
62
7
370
-1
100
AcDbSpline
210
0
220
0
230
1
70
8
71
3
72
8
73
4
74
0
42
1e-07
43
1e-07
40
0
40
0
40
0
40
0
40
1
40
1
40
1
40
1
10
192.93225
20
131.46225
30
0
10
191.46975
20
136.7205
30
0
10
190.542
20
139.725
30
0
10
188.754
20
143.6265
30
0
0
SPLINE
5
26D
100
AcDbEntity
8
0
6
ByLayer
62
7
370
-1
100
AcDbSpline
210
0
220
0
230
1
70
8
71
3
72
8
73
4
74
0
42
1e-07
43
1e-07
40
0
40
0
40
0
40
0
40
1
40
1
40
1
40
1
10
188.754
20
143.6265
30
0
10
187.10175
20
147.22575
30
0
10
185.30775
20
150.6915
30
0
10
183.11325
20
154.01625
30
0
0
SPLINE
5
26E
100
AcDbEntity
8
0
6
ByLayer
62
7
370
-1
100
AcDbSpline
210
0
220
0
230
1
70
8
71
3
72
8
73
4
74
0
42
1e-07
43
1e-07
40
0
40
0
40
0
40
0
40
1
40
1
40
1
40
1
10
183.11325
20
154.01625
30
0
10
180.633
20
157.65
30
0
10
180.183
20
158.298
30
0
10
178.0485
20
160.90875
30
0
0
SPLINE
5
26F
100
AcDbEntity
8
0
6
ByLayer
62
7
370
-1
100
AcDbSpline
210
0
220
0
230
1
70
8
71
3
72
8
73
4
74
0
42
1e-07
43
1e-07
40
0
40
0
40
0
40
0
40
1
40
1
40
1
40
1
10
178.0485
20
160.90875
30
0
10
176.6565
20
162.591
30
0
10
176.427
20
162.80775
30
0
10
174.77025
20
164.6205
30
0
0
SPLINE
5
270
100
AcDbEntity
8
0
6
ByLayer
62
7
370
-1
100
AcDbSpline
210
0
220
0
230
1
70
8
71
3
72
8
73
4
74
0
42
1e-07
43
1e-07
40
0
40
0
40
0
40
0
40
1
40
1
40
1
40
1
10
174.77025
20
164.6205
30
0
10
173.5815
20
165.7635
30
0
10
172.83075
20
166.5945
30
0
10
172.446
20
166.97475
30
0
0
SPLINE
5
271
100
AcDbEntity
8
0
6
ByLayer
62
7
370
-1
100
AcDbSpline
210
0
220
0
230
1
70
8
71
3
72
8
73
4
74
0
42
1e-07
43
1e-07
40
0
40
0
40
0
40
0
40
1
40
1
40
1
40
1
10
172.446
20
166.97475
30
0
10
169.87575
20
169.422
30
0
10
167.5815
20
171.34575
30
0
10
164.967
20
173.33475
30
0
0
SPLINE
5
272
100
AcDbEntity
8
0
6
ByLayer
62
7
370
-1
100
AcDbSpline
210
0
220
0
230
1
70
8
71
3
72
8
73
4
74
0
42
1e-07
43
1e-07
40
0
40
0
40
0
40
0
40
1
40
1
40
1
40
1
10
164.967
20
173.33475
30
0
10
162.93075
20
174.80025
30
0
10
162.471
20
175.1025
30
0
10
159.38325
20
177.10575
30
0
0
SPLINE
5
273
100
AcDbEntity
8
0
6
ByLayer
62
7
370
-1
100
AcDbSpline
210
0
220
0
230
1
70
8
71
3
72
8
73
4
74
0
42
1e-07
43
1e-07
40
0
40
0
40
0
40
0
40
1
40
1
40
1
40
1
10
159.38325
20
177.10575
30
0
10
156.74775
20
178.64925
30
0
10
155.919
20
179.15475
30
0
10
152.33925
20
180.91425
30
0
0
SPLINE
5
274
100
AcDbEntity
8
0
6
ByLayer
62
7
370
-1
100
AcDbSpline
210
0
220
0
230
1
70
8
71
3
72
8
73
4
74
0
42
1e-07
43
1e-07
40
0
40
0
40
0
40
0
40
1
40
1
40
1
40
1
10
152.33925
20
180.91425
30
0
10
148.68825
20
182.53425
30
0
10
148.029
20
182.82825
30
0
10
143.15775
20
184.524
30
0
0
SPLINE
5
275
100
AcDbEntity
8
0
6
ByLayer
62
7
370
-1
100
AcDbSpline
210
0
220
0
230
1
70
8
71
3
72
8
73
4
74
0
42
1e-07
43
1e-07
40
0
40
0
40
0
40
0
40
1
40
1
40
1
40
1
10
143.15775
20
184.524
30
0
10
141.64725
20
185.0505
30
0
10
141.57225
20
184.8705
30
0
10
140.1765
20
185.6865
30
0
0
SPLINE
5
276
100
AcDbEntity
8
0
6
ByLayer
62
7
370
-1
100
AcDbSpline
210
0
220
0
230
1
70
8
71
3
72
8
73
4
74
0
42
1e-07
43
1e-07
40
0
40
0
40
0
40
0
40
1
40
1
40
1
40
1
10
140.1765
20
185.6865
30
0
10
136.77
20
187.68225
30
0
10
134.86725
20
188.62575
30
0
10
132.4605
20
189.50475
30
0
0
SPLINE
5
277
100
AcDbEntity
8
0
6
ByLayer
62
7
370
-1
100
AcDbSpline
210
0
220
0
230
1
70
8
71
3
72
8
73
4
74
0
42
1e-07
43
1e-07
40
0
40
0
40
0
40
0
40
1
40
1
40
1
40
1
10
132.4605
20
189.50475
30
0
10
131.7915
20
189.74925
30
0
10
131.48925
20
189.94875
30
0
10
131.3805
20
190.6065
30
0
0
SPLINE
5
278
100
AcDbEntity
8
0
6
ByLayer
62
7
370
-1
100
AcDbSpline
210
0
220
0
230
1
70
8
71
3
72
8
73
4
74
0
42
1e-07
43
1e-07
40
0
40
0
40
0
40
0
40
1
40
1
40
1
40
1
10
131.3805
20
190.6065
30
0
10
131.244
20
191.43375
30
0
10
131.244
20
191.43375
30
0
10
129.8835
20
199.62825
30
0
0
SPLINE
5
279
100
AcDbEntity
8
0
6
ByLayer
62
7
370
-1
100
AcDbSpline
210
0
220
0
230
1
70
8
71
3
72
8
73
4
74
0
42
1e-07
43
1e-07
40
0
40
0
40
0
40
0
40
1
40
1
40
1
40
1
10
129.8835
20
199.62825
30
0
10
129.5055
20
201.24975
30
0
10
127.15875
20
203.07
30
0
10
125.487
20
203.0715
30
0
0
SPLINE
5
27A
100
AcDbEntity
8
0
6
ByLayer
62
7
370
-1
100
AcDbSpline
210
0
220
0
230
1
70
8
71
3
72
8
73
4
74
0
42
1e-07
43
1e-07
40
0
40
0
40
0
40
0
40
1
40
1
40
1
40
1
10
125.487
20
203.0715
30
0
10
117.20025
20
203.076
30
0
10
125.487
20
203.0715
30
0
10
117.20025
20
203.076
30
0
0
SPLINE
5
27B
100
AcDbEntity
8
0
6
ByLayer
62
7
370
-1
100
AcDbSpline
210
0
220
0
230
1
70
8
71
3
72
8
73
4
74
0
42
1e-07
43
1e-07
40
0
40
0
40
0
40
0
40
1
40
1
40
1
40
1
10
117.20025
20
203.076
30
0
10
115.5495
20
203.14275
30
0
10
113.4945
20
201.5925
30
0
10
113.0925
20
200.32575
30
0
0
SPLINE
5
27C
100
AcDbEntity
8
0
6
ByLayer
62
7
370
-1
100
AcDbSpline
210
0
220
0
230
1
70
8
71
3
72
8
73
4
74
0
42
1e-07
43
1e-07
40
0
40
0
40
0
40
0
40
1
40
1
40
1
40
1
10
113.0925
20
200.32575
30
0
10
110.92275
20
190.572
30
0
10
113.0925
20
200.32575
30
0
10
110.92275
20
190.572
30
0
0
SPLINE
5
27D
100
AcDbEntity
8
0
6
ByLayer
62
7
370
-1
100
AcDbSpline
210
0
220
0
230
1
70
8
71
3
72
8
73
4
74
0
42
1e-07
43
1e-07
40
0
40
0
40
0
40
0
40
1
40
1
40
1
40
1
10
110.92275
20
190.572
30
0
10
110.7255
20
190.00275
30
0
10
110.45025
20
189.69675
30
0
10
109.86975
20
189.51375
30
0
0
SPLINE
5
27E
100
AcDbEntity
8
0
6
ByLayer
62
7
370
-1
100
AcDbSpline
210
0
220
0
230
1
70
8
71
3
72
8
73
4
74
0
42
1e-07
43
1e-07
40
0
40
0
40
0
40
0
40
1
40
1
40
1
40
1
10
109.86975
20
189.51375
30
0
10
107.45775
20
188.75475
30
0
10
105.54975
20
187.71675
30
0
10
103.3875
20
186.42675
30
0
0
SPLINE
5
27F
100
AcDbEntity
8
0
6
ByLayer
62
7
370
-1
100
AcDbSpline
210
0
220
0
230
1
70
8
71
3
72
8
73
4
74
0
42
1e-07
43
1e-07
40
0
40
0
40
0
40
0
40
1
40
1
40
1
40
1
10
103.3875
20
186.42675
30
0
10
102.86325
20
186.11325
30
0
10
101.9835
20
185.77875
30
0
10
101.39625
20
185.61
30
0
0
SPLINE
5
280
100
AcDbEntity
8
0
6
ByLayer
62
7
370
-1
100
AcDbSpline
210
0
220
0
230
1
70
8
71
3
72
8
73
4
74
0
42
1e-07
43
1e-07
40
0
40
0
40
0
40
0
40
1
40
1
40
1
40
1
10
101.39625
20
185.61
30
0
10
97.3335
20
184.4475
30
0
10
93.28725
20
183.17175
30
0
10
89.4615
20
181.41
30
0
0
SPLINE
5
281
100
AcDbEntity
8
0
6
ByLayer
62
7
370
-1
100
AcDbSpline
210
0
220
0
230
1
70
8
71
3
72
8
73
4
74
0
42
1e-07
43
1e-07
40
0
40
0
40
0
40
0
40
1
40
1
40
1
40
1
10
89.4615
20
181.41
30
0
10
87.15975
20
180.351
30
0
10
84.45075
20
178.94175
30
0
10
82.66575
20
177.8625
30
0
0
SPLINE
5
282
100
AcDbEntity
8
0
6
ByLayer
62
7
370
-1
100
AcDbSpline
210
0
220
0
230
1
70
8
71
3
72
8
73
4
74
0
42
1e-07
43
1e-07
40
0
40
0
40
0
40
0
40
1
40
1
40
1
40
1
10
82.66575
20
177.8625
30
0
10
80.712
20
176.70225
30
0
10
79.46025
20
175.93725
30
0
10
77.412
20
174.495
30
0
0
SPLINE
5
283
100
AcDbEntity
8
0
6
ByLayer
62
7
370
-1
100
AcDbSpline
210
0
220
0
230
1
70
8
71
3
72
8
73
4
74
0
42
1e-07
43
1e-07
40
0
40
0
40
0
40
0
40
1
40
1
40
1
40
1
10
77.412
20
174.495
30
0
10
74.12175
20
172.10175
30
0
10
73.36275
20
171.4425
30
0
10
71.1405
20
169.51875
30
0
0
SPLINE
5
284
100
AcDbEntity
8
0
6
ByLayer
62
7
370
-1
100
AcDbSpline
210
0
220
0
230
1
70
8
71
3
72
8
73
4
74
0
42
1e-07
43
1e-07
40
0
40
0
40
0
40
0
40
1
40
1
40
1
40
1
10
71.1405
20
169.51875
30
0
10
69.35025
20
167.9715
30
0
10
66.90825
20
165.531
30
0
10
66.06825
20
164.6265
30
0
0
SPLINE
5
285
100
AcDbEntity
8
0
6
ByLayer
62
7
370
-1
100
AcDbSpline
210
0
220
0
230
1
70
8
71
3
72
8
73
4
74
0
42
1e-07
43
1e-07
40
0
40
0
40
0
40
0
40
1
40
1
40
1
40
1
10
66.06825
20
164.6265
30
0
10
63.54975
20
161.91225
30
0
10
62.148
20
159.9585
30
0
10
60.1755
20
157.54425
30
0
0
SPLINE
5
286
100
AcDbEntity
8
0
6
ByLayer
62
7
370
-1
100
AcDbSpline
210
0
220
0
230
1
70
8
71
3
72
8
73
4
74
0
42
1e-07
43
1e-07
40
0
40
0
40
0
40
0
40
1
40
1
40
1
40
1
10
60.1755
20
157.54425
30
0
10
57.46425
20
153.84
30
0
10
55.40325
20
150.45
30
0
10
53.472
20
146.5575
30
0
0
SPLINE
5
287
100
AcDbEntity
8
0
6
ByLayer
62
7
370
-1
100
AcDbSpline
210
0
220
0
230
1
70
8
71
3
72
8
73
4
74
0
42
1e-07
43
1e-07
40
0
40
0
40
0
40
0
40
1
40
1
40
1
40
1
10
53.472
20
146.5575
30
0
10
51.45825
20
142.49775
30
0
10
49.9035
20
138.32625
30
0
10
48.597
20
134.019
30
0
0
SPLINE
5
288
100
AcDbEntity
8
0
6
ByLayer
62
7
370
-1
100
AcDbSpline
210
0
220
0
230
1
70
8
71
3
72
8
73
4
74
0
42
1e-07
43
1e-07
40
0
40
0
40
0
40
0
40
1
40
1
40
1
40
1
10
48.597
20
134.019
30
0
10
47.47875
20
129.63
30
0
10
46.722
20
126.28275
30
0
10
46.266
20
122.61
30
0
0
SPLINE
5
289
100
AcDbEntity
8
0
6
ByLayer
62
7
370
-1
100
AcDbSpline
210
0
220
0
230
1
70
8
71
3
72
8
73
4
74
0
42
1e-07
43
1e-07
40
0
40
0
40
0
40
0
40
1
40
1
40
1
40
1
10
46.266
20
122.61
30
0
10
45.9465
20
119.484
30
0
10
45.73275
20
116.8365
30
0
10
45.693
20
114.2025
30
0
0
SPLINE
5
28A
100
AcDbEntity
8
0
6
ByLayer
62
7
370
-1
100
AcDbSpline
210
0
220
0
230
1
70
8
71
3
72
8
73
4
74
0
42
1e-07
43
1e-07
40
0
40
0
40
0
40
0
40
1
40
1
40
1
40
1
10
45.693
20
114.2025
30
0
10
45.70575
20
110.76225
30
0
10
45.81975
20
108.24975
30
0
10
46.122
20
105.31275
30
0
0
SPLINE
5
28B
100
AcDbEntity
8
0
6
ByLayer
62
7
370
-1
100
AcDbSpline
210
0
220
0
230
1
70
8
71
3
72
8
73
4
74
0
42
1e-07
43
1e-07
40
0
40
0
40
0
40
0
40
1
40
1
40
1
40
1
10
46.122
20
105.31275
30
0
10
46.359
20
103.0095
30
0
10
46.75275
20
100.7625
30
0
10
47.16375
20
98.52675
30
0
0
SPLINE
5
28C
100
AcDbEntity
8
0
6
ByLayer
62
7
370
-1
100
AcDbSpline
210
0
220
0
230
1
70
8
71
3
72
8
73
4
74
0
42
1e-07
43
1e-07
40
0
40
0
40
0
40
0
40
1
40
1
40
1
40
1
10
47.16375
20
98.52675
30
0
10
47.31075
20
96.7845
30
0
10
47.31075
20
95.73
30
0
10
47.205
20
94.12725
30
0
0
SPLINE
5
28D
100
AcDbEntity
8
0
6
ByLayer
62
7
370
-1
100
AcDbSpline
210
0
220
0
230
1
70
8
71
3
72
8
73
4
74
0
42
1e-07
43
1e-07
40
0
40
0
40
0
40
0
40
1
40
1
40
1
40
1
10
47.205
20
94.12725
30
0
10
47.0025
20
91.86225
30
0
10
46.95375
20
89.247
30
0
10
47.3205
20
86.268
30
0
0
SPLINE
5
28E
100
AcDbEntity
8
0
6
ByLayer
62
7
370
-1
100
AcDbSpline
210
0
220
0
230
1
70
8
71
3
72
8
73
4
74
0
42
1e-07
43
1e-07
40
0
40
0
40
0
40
0
40
1
40
1
40
1
40
1
10
47.3205
20
86.268
30
0
10
47.43225
20
85.365
30
0
10
47.30775
20
84.33375
30
0
10
46.61175
20
83.652
30
0
0
SPLINE
5
28F
100
AcDbEntity
8
0
6
ByLayer
62
7
370
-1
100
AcDbSpline
210
0
220
0
230
1
70
8
71
3
72
8
73
4
74
0
42
1e-07
43
1e-07
40
0
40
0
40
0
40
0
40
1
40
1
40
1
40
1
10
46.61175
20
83.652
30
0
10
45.0765
20
82.14975
30
0
10
43.362
20
80.8575
30
0
10
41.595
20
79.63875
30
0
0
SPLINE
5
290
100
AcDbEntity
8
0
6
ByLayer
62
7
370
-1
100
AcDbSpline
210
0
220
0
230
1
70
8
71
3
72
8
73
4
74
0
42
1e-07
43
1e-07
40
0
40
0
40
0
40
0
40
1
40
1
40
1
40
1
10
41.595
20
79.63875
30
0
10
39.468
20
78.171
30
0
10
38.2455
20
76.5795
30
0
10
38.541
20
74.17725
30
0
0
SPLINE
5
291
100
AcDbEntity
8
0
6
ByLayer
62
7
370
-1
100
AcDbSpline
210
0
220
0
230
1
70
8
71
3
72
8
73
4
74
0
42
1e-07
43
1e-07
40
0
40
0
40
0
40
0
40
1
40
1
40
1
40
1
10
38.541
20
74.17725
30
0
10
40.42275
20
69.41625
30
0
10
41.36925
20
67.96725
30
0
10
43.43775
20
64.695
30
0
0
SPLINE
5
292
100
AcDbEntity
8
0
6
ByLayer
62
7
370
-1
100
AcDbSpline
210
0
220
0
230
1
70
8
71
3
72
8
73
4
74
0
42
1e-07
43
1e-07
40
0
40
0
40
0
40
0
40
1
40
1
40
1
40
1
10
43.43775
20
64.695
30
0
10
45.606
20
62.3715
30
0
10
46.58475
20
62.5005
30
0
10
49.5585
20
63.39975
30
0
0
SPLINE
5
293
100
AcDbEntity
8
0
6
ByLayer
62
7
370
-1
100
AcDbSpline
210
0
220
0
230
1
70
8
71
3
72
8
73
4
74
0
42
1e-07
43
1e-07
40
0
40
0
40
0
40
0
40
1
40
1
40
1
40
1
10
49.5585
20
63.39975
30
0
10
54.04425
20
64.914
30
0
10
54.22575
20
64.965
30
0
10
56.409
20
65.6745
30
0
0
SPLINE
5
294
100
AcDbEntity
8
0
6
ByLayer
62
7
370
-1
100
AcDbSpline
210
0
220
0
230
1
70
8
71
3
72
8
73
4
74
0
42
1e-07
43
1e-07
40
0
40
0
40
0
40
0
40
1
40
1
40
1
40
1
10
56.409
20
65.6745
30
0
10
57.627
20
66.054
30
0
10
57.95775
20
66.06975
30
0
10
58.791
20
65.47875
30
0
0
SPLINE
5
295
100
AcDbEntity
8
0
6
ByLayer
62
7
370
-1
100
AcDbSpline
210
0
220
0
230
1
70
8
71
3
72
8
73
4
74
0
42
1e-07
43
1e-07
40
0
40
0
40
0
40
0
40
1
40
1
40
1
40
1
10
58.791
20
65.47875
30
0
10
61.50675
20
63.50475
30
0
10
62.4585
20
62.9025
30
0
10
65.89125
20
61.04475
30
0
0
SPLINE
5
296
100
AcDbEntity
8
0
6
ByLayer
62
7
370
-1
100
AcDbSpline
210
0
220
0
230
1
70
8
71
3
72
8
73
4
74
0
42
1e-07
43
1e-07
40
0
40
0
40
0
40
0
40
1
40
1
40
1
40
1
10
65.89125
20
61.04475
30
0
10
62.8755
20
59.622
30
0
10
36.26775
20
47.6595
30
0
10
33.351
20
46.52925
30
0
0
SPLINE
5
297
100
AcDbEntity
8
0
6
ByLayer
62
7
370
-1
100
AcDbSpline
210
0
220
0
230
1
70
8
71
3
72
8
73
4
74
0
42
1e-07
43
1e-07
40
0
40
0
40
0
40
0
40
1
40
1
40
1
40
1
10
33.351
20
46.52925
30
0
10
32.07675
20
46.03425
30
0
10
30.8325
20
45.39375
30
0
10
29.47575
20
45.13125
30
0
0
SPLINE
5
298
100
AcDbEntity
8
0
6
ByLayer
62
7
370
-1
100
AcDbSpline
210
0
220
0
230
1
70
8
71
3
72
8
73
4
74
0
42
1e-07
43
1e-07
40
0
40
0
40
0
40
0
40
1
40
1
40
1
40
1
10
29.47575
20
45.13125
30
0
10
27.36825
20
44.72325
30
0
10
25.398
20
44.886
30
0
10
23.469
20
46.092
30
0
0
SPLINE
5
299
100
AcDbEntity
8
0
6
ByLayer
62
7
370
-1
100
AcDbSpline
210
0
220
0
230
1
70
8
71
3
72
8
73
4
74
0
42
1e-07
43
1e-07
40
0
40
0
40
0
40
0
40
1
40
1
40
1
40
1
10
23.469
20
46.092
30
0
10
20.58
20
47.8965
30
0
10
19.65975
20
51.05775
30
0
10
17.913
20
53.64075
30
0
0
SPLINE
5
29A
100
AcDbEntity
8
0
6
ByLayer
62
7
370
-1
100
AcDbSpline
210
0
220
0
230
1
70
8
71
3
72
8
73
4
74
0
42
1e-07
43
1e-07
40
0
40
0
40
0
40
0
40
1
40
1
40
1
40
1
10
17.913
20
53.64075
30
0
10
16.67925
20
55.46625
30
0
10
15.68325
20
57.4485
30
0
10
14.53875
20
59.334
30
0
0
SPLINE
5
29B
100
AcDbEntity
8
0
6
ByLayer
62
7
370
-1
100
AcDbSpline
210
0
220
0
230
1
70
8
71
3
72
8
73
4
74
0
42
1e-07
43
1e-07
40
0
40
0
40
0
40
0
40
1
40
1
40
1
40
1
10
14.53875
20
59.334
30
0
10
13.34175
20
61.3035
30
0
10
12.72075
20
63.32625
30
0
10
12.88575
20
65.71875
30
0
0
SPLINE
5
29C
100
AcDbEntity
8
0
6
ByLayer
62
7
370
-1
100
AcDbSpline
210
0
220
0
230
1
70
8
71
3
72
8
73
4
74
0
42
1e-07
43
1e-07
40
0
40
0
40
0
40
0
40
1
40
1
40
1
40
1
10
12.88575
20
65.71875
30
0
10
13.0545
20
68.15325
30
0
10
14.4975
20
69.65925
30
0
10
16.05675
20
71.10225
30
0
0
SPLINE
5
29D
100
AcDbEntity
8
0
6
ByLayer
62
7
370
-1
100
AcDbSpline
210
0
220
0
230
1
70
8
71
3
72
8
73
4
74
0
42
1e-07
43
1e-07
40
0
40
0
40
0
40
0
40
1
40
1
40
1
40
1
10
16.05675
20
71.10225
30
0
10
17.676
20
72.6015
30
0
10
19.4985
20
73.88175
30
0
10
21.23025
20
75.26025
30
0
0
SPLINE
5
29E
100
AcDbEntity
8
0
6
ByLayer
62
7
370
-1
100
AcDbSpline
210
0
220
0
230
1
70
8
71
3
72
8
73
4
74
0
42
1e-07
43
1e-07
40
0
40
0
40
0
40
0
40
1
40
1
40
1
40
1
10
21.23025
20
75.26025
30
0
10
23.51775
20
77.07825
30
0
10
25.81125
20
78.888
30
0
10
28.08675
20
80.7225
30
0
0
SPLINE
5
29F
100
AcDbEntity
8
0
6
ByLayer
62
7
370
-1
100
AcDbSpline
210
0
220
0
230
1
70
8
71
3
72
8
73
4
74
0
42
1e-07
43
1e-07
40
0
40
0
40
0
40
0
40
1
40
1
40
1
40
1
10
28.08675
20
80.7225
30
0
10
29.80575
20
82.41825
30
0
10
30.34425
20
83.01675
30
0
10
31.76775
20
85.44975
30
0
0
SPLINE
5
2A0
100
AcDbEntity
8
0
6
ByLayer
62
7
370
-1
100
AcDbSpline
210
0
220
0
230
1
70
8
71
3
72
8
73
4
74
0
42
1e-07
43
1e-07
40
0
40
0
40
0
40
0
40
1
40
1
40
1
40
1
10
31.76775
20
85.44975
30
0
10
33.0015
20
87.7755
30
0
10
33.20025
20
88.52475
30
0
10
33.41775
20
90.2415
30
0
0
LWPOLYLINE
5
2A1
100
AcDbEntity
8
0
6
ByLayer
62
7
370
-1
100
AcDbPolyline
90
1
70
1
43
0
10
185.103
20
124.65375
0
LWPOLYLINE
5
2A2
100
AcDbEntity
8
0
6
ByLayer
62
7
370
-1
100
AcDbPolyline
90
1
70
1
43
0
10
33.41775
20
90.2415
0
ENDBLK
5
4A
330
48
100
AcDbEntity
8
0
100
AcDbBlockEnd
0
ENDSEC
0
SECTION
2
ENTITIES
0
LINE
5
2A3
100
AcDbEntity
8
0
6
ByLayer
62
256
370
-1
100
AcDbLine
10
0
20
0
11
6.12323399574e-17
21
1
0
LINE
5
2A4
100
AcDbEntity
8
0
6
ByLayer
62
256
370
-1
100
AcDbLine
10
0
20
0
11
1
21
0
0
LINE
5
2A5
100
AcDbEntity
8
0
6
ByLayer
62
256
370
-1
100
AcDbLine
10
1.2858791391e-14
20
210
11
1
21
210
0
LINE
5
2A6
100
AcDbEntity
8
0
6
ByLayer
62
256
370
-1
100
AcDbLine
10
297
20
-7.27440198694e-14
11
297
21
1
0
LINE
5
2A7
100
AcDbEntity
8
0
6
ByLayer
62
256
370
-1
100
AcDbLine
10
3.06161699787e-16
20
5
11
1
21
5
0
LINE
5
2A8
100
AcDbEntity
8
0
6
ByLayer
62
256
370
-1
100
AcDbLine
10
292
20
-7.21316964698e-14
11
292
21
1
0
LINE
5
2A9
100
AcDbEntity
8
0
6
ByLayer
62
256
370
-1
100
AcDbLine
10
1.19403062917e-14
20
205
11
1
21
205
0
LINE
5
2AA
100
AcDbEntity
8
0
6
ByLayer
62
256
370
-1
100
AcDbLine
10
25
20
-6.12323399574e-15
11
25
21
1
0
LINE
5
2AB
100
AcDbEntity
8
border
6
ByLayer
62
256
370
-1
100
AcDbLine
10
25
20
205
11
292
21
205
0
LINE
5
2AC
100
AcDbEntity
8
border
6
ByLayer
62
256
370
-1
100
AcDbLine
10
292
20
205
11
292
21
5
0
LINE
5
2AD
100
AcDbEntity
8
border
6
ByLayer
62
256
370
-1
100
AcDbLine
10
292
20
5
11
25
21
5
0
LINE
5
2AE
100
AcDbEntity
8
border
6
ByLayer
62
256
370
-1
100
AcDbLine
10
25
20
5
11
25
21
205
0
LINE
5
2AF
100
AcDbEntity
8
0
6
ByLayer
62
256
370
-1
100
AcDbLine
10
9.18485099361e-16
20
15
11
1
21
15
0
LINE
5
2B0
100
AcDbEntity
8
0
6
ByLayer
62
256
370
-1
100
AcDbLine
10
1.53080849893e-15
20
25
11
1
21
25
0
LINE
5
2B1
100
AcDbEntity
8
0
6
ByLayer
62
256
370
-1
100
AcDbLine
10
2.14313189851e-15
20
35
11
1
21
35
0
LINE
5
2B2
100
AcDbEntity
8
0
6
ByLayer
62
256
370
-1
100
AcDbLine
10
3.36777869766e-15
20
55
11
1
21
55
0
LINE
5
2B3
100
AcDbEntity
8
0
6
ByLayer
62
256
370
-1
100
AcDbLine
10
3.98010209723e-15
20
65
11
1
21
65
0
LINE
5
2B4
100
AcDbEntity
8
0
6
ByLayer
62
256
370
-1
100
AcDbLine
10
212
20
-6.23345220766e-14
11
212
21
1
0
LINE
5
2B5
100
AcDbEntity
8
border
6
ByLayer
62
256
370
-1
100
AcDbLine
10
292
20
65
11
212
21
65
0
LINE
5
2B6
100
AcDbEntity
8
border
6
ByLayer
62
256
370
-1
100
AcDbLine
10
212
20
65
11
212
21
5
0
LINE
5
2B7
100
AcDbEntity
8
border
6
ByLayer
62
256
370
-1
100
AcDbLine
10
212
20
55
11
292
21
55
0
LINE
5
2B8
100
AcDbEntity
8
border
6
ByLayer
62
256
370
-1
100
AcDbLine
10
212
20
35
11
292
21
35
0
LINE
5
2B9
100
AcDbEntity
8
border
6
ByLayer
62
256
370
-1
100
AcDbLine
10
212
20
25
11
292
21
25
0
LINE
5
2BA
100
AcDbEntity
8
border
6
ByLayer
62
256
370
-1
100
AcDbLine
10
212
20
15
11
292
21
15
0
MTEXT
5
2BB
100
AcDbEntity
8
border
6
ByLayer
62
256
370
-1
100
AcDbMText
10
239
20
62
30
0
40
5
41
30.555558127
71
1
72
1
1
BricoLabs
7
STANDARD
210
0
220
0
230
1
50
0
73
2
44
1
0
LINE
5
2BC
100
AcDbEntity
8
0
6
ByLayer
62
256
370
-1
100
AcDbLine
10
227
20
-6.6008462474e-14
11
227
21
1
0
LINE
5
2BD
100
AcDbEntity
8
0
6
ByLayer
62
256
370
-1
100
AcDbLine
10
242
20
-6.96824028715e-14
11
242
21
1
0
LINE
5
2BE
100
AcDbEntity
8
border
6
ByLayer
62
256
370
-1
100
AcDbLine
10
227
20
15
11
227
21
5
0
LINE
5
2BF
100
AcDbEntity
8
border
6
ByLayer
62
256
370
-1
100
AcDbLine
10
242
20
15
11
242
21
5
0
LINE
5
2C0
100
AcDbEntity
8
0
6
ByLayer
62
256
370
-1
100
AcDbLine
10
272
20
-6.96824028715e-14
11
272
21
1
0
LINE
5
2C1
100
AcDbEntity
8
border
6
ByLayer
62
256
370
-1
100
AcDbLine
10
272
20
25
11
272
21
15
0
MTEXT
5
2C2
100
AcDbEntity
8
border
6
ByLayer
62
256
370
-1
100
AcDbMText
10
213
20
14
30
0
40
1
41
4.77777829207
71
1
72
1
1
Versin
7
STANDARD
210
0
220
0
230
1
50
0
73
2
44
1
0
MTEXT
5
2C3
100
AcDbEntity
8
border
6
ByLayer
62
256
370
-1
100
AcDbMText
10
228
20
14
30
0
40
1
41
3.88888940318
71
1
72
1
1
Escala
7
STANDARD
210
0
220
0
230
1
50
0
73
2
44
1
0
MTEXT
5
2C4
100
AcDbEntity
8
border
6
ByLayer
62
256
370
-1
100
AcDbMText
10
244
20
14
30
0
40
1
41
2.66666666667
71
1
72
1
1
Hoja
7
STANDARD
210
0
220
0
230
1
50
0
73
2
44
1
0
MTEXT
5
2C5
100
AcDbEntity
8
border
6
ByLayer
62
256
370
-1
100
AcDbMText
10
215
20
24
30
0
40
1
41
6.86111111111
71
1
72
1
1
Cod. Parte
7
STANDARD
210
0
220
0
230
1
50
0
73
2
44
1
0
MTEXT
5
2C6
100
AcDbEntity
8
border
6
ByLayer
62
256
370
-1
100
AcDbMText
10
215
20
34
30
0
40
1
41
5.66666666667
71
1
72
1
1
Proyecto
7
STANDARD
210
0
220
0
230
1
50
0
73
2
44
1
0
MTEXT
5
2C7
100
AcDbEntity
8
border
6
ByLayer
62
256
370
-1
100
AcDbMText
10
274
20
24
30
0
40
1
41
3.77777777778
71
1
72
1
1
Dibujo
7
STANDARD
210
0
220
0
230
1
50
0
73
2
44
1
0
MTEXT
5
2C8
100
AcDbEntity
8
border
6
ByLayer
62
256
370
-1
100
AcDbMText
10
217
20
11
30
0
40
5
41
7.77777777778
71
1
72
1
1
0.0
7
STANDARD
210
0
220
0
230
1
50
0
73
2
44
1
0
MTEXT
5
2C9
100
AcDbEntity
8
border
6
ByLayer
62
256
370
-1
100
AcDbMText
10
234
20
11
30
0
40
5
41
5.55555555556
71
1
72
1
1
1:1
7
STANDARD
210
0
220
0
230
1
50
0
73
2
44
1
0
MTEXT
5
2CA
100
AcDbEntity
8
border
6
ByLayer
62
256
370
-1
100
AcDbMText
10
276
20
20
30
0
40
3
41
12.6678095827
71
1
72
1
1
salvari
7
STANDARD
210
0
220
0
230
1
50
0
73
2
44
1
0
MTEXT
5
2CB
100
AcDbEntity
8
border
6
ByLayer
62
256
370
-1
100
AcDbMText
10
255
20
12
30
0
40
5
41
27.2222222222
71
1
72
1
1
01/00001
7
STANDARD
210
0
220
0
230
1
50
0
73
2
44
1
0
MTEXT
5
2CC
100
AcDbEntity
8
border
6
ByLayer
62
256
370
-1
100
AcDbMText
10
229
20
33
30
0
40
5
41
21.1111111111
71
1
72
1
1
Raptor
7
STANDARD
210
0
220
0
230
1
50
0
73
2
44
1
0
MTEXT
5
2CD
100
AcDbEntity
8
border
6
ByLayer
62
256
370
-1
100
AcDbMText
10
220
20
50
30
0
40
7
41
64.3611183111
71
1
72
1
1
Chasis Raptor
7
STANDARD
210
0
220
0
230
1
50
0
73
2
44
1
0
MTEXT
5
2CE
100
AcDbEntity
8
border
6
ByLayer
62
256
370
-1
100
AcDbMText
10
146
20
12
30
0
40
5
41
63.74999894
71
1
72
1
1
CC-By-SA-INTL 4.0
7
STANDARD
210
0
220
0
230
1
50
0
73
2
44
1
0
MTEXT
5
2CF
100
AcDbEntity
8
border
6
ByLayer
62
256
370
-1
100
AcDbMText
10
146
20
20
30
0
40
5
41
44.7222247937
71
1
72
1
1
 fstpd 2017
7
STANDARD
210
0
220
0
230
1
50
0
73
2
44
1
0
LINE
5
2D0
100
AcDbEntity
8
border
6
ByLayer
62
256
370
-1
100
AcDbLine
10
212
20
25
11
143
21
25
0
LINE
5
2D1
100
AcDbEntity
8
border
6
ByLayer
62
256
370
-1
100
AcDbLine
10
143
20
25
11
143
21
5
0
INSERT
5
2D2
100
AcDbEntity
8
border
6
ByLayer
62
256
370
-1
100
AcDbBlockReference
2
bricolabs_logo-0
10
212.497869698
20
55.3996429402
30
0
41
0.04
42
0.04
43
0
50
0
70
1
71
1
44
0.04
45
0.04
0
ENDSEC
0
SECTION
2
OBJECTS
0
DICTIONARY
5
C
330
0
100
AcDbDictionary
281
1
3
ACAD_GROUP
350
D
0
DICTIONARY
5
D
330
C
100
AcDbDictionary
281
1
0
ENDSEC
0
EOF
